{"glyphs":{"0":{"ha":806,"x_min":63,"x_max":743,"o":"m 403 -14 q 233 44 311 -14 q 109 210 156 103 q 63 465 63 318 q 109 721 63 614 q 233 886 156 828 q 403 944 311 944 q 573 886 496 944 q 697 721 650 828 q 743 465 743 614 q 697 210 743 318 q 573 44 650 103 q 403 -14 496 -14 m 414 42 q 528 93 485 42 q 591 235 571 144 q 611 442 611 325 q 584 688 611 589 q 508 838 557 788 q 392 889 458 889 q 278 838 322 889 q 215 696 235 786 q 194 489 194 606 q 222 242 194 342 q 298 92 249 143 q 414 42 347 42 z "},"1":{"ha":694,"x_min":125,"x_max":625,"o":"m 313 0 l 313 793 q 240 730 286 763 q 150 674 193 697 l 125 719 q 174 749 142 728 q 244 801 207 771 q 313 864 281 831 q 361 931 344 897 l 438 931 l 438 0 l 313 0 m 125 0 l 125 49 l 306 49 l 313 56 l 438 56 l 444 49 l 625 49 l 625 0 l 125 0 z "},"2":{"ha":833,"x_min":75,"x_max":739,"o":"m 690 264 l 739 264 l 679 0 l 75 0 q 108 136 75 75 q 195 249 142 197 q 308 348 249 300 q 420 446 367 396 q 507 552 474 496 q 540 678 540 608 q 488 831 540 772 q 357 889 435 889 q 235 860 285 889 q 165 774 185 831 l 89 713 q 122 821 89 768 q 219 909 154 874 q 382 944 285 944 q 488 932 436 944 q 581 891 539 919 q 647 816 622 863 q 672 703 672 769 q 643 564 672 622 q 565 461 614 506 q 460 379 517 417 q 345 303 403 342 q 240 219 288 265 q 164 111 192 174 l 415 111 q 550 122 496 111 q 638 165 604 132 q 690 264 671 199 m 165 621 q 112 645 135 621 q 89 713 89 669 l 165 774 q 204 763 188 774 q 231 735 221 753 q 242 697 242 718 q 219 643 242 665 q 165 621 197 621 z "},"3":{"ha":764,"x_min":65,"x_max":714,"o":"m 365 -14 q 208 15 275 -14 q 103 92 140 44 q 65 193 65 140 l 149 132 q 242 62 183 82 q 363 42 300 42 q 530 93 478 42 q 582 242 582 144 q 551 355 582 308 q 459 426 521 401 q 304 451 397 451 l 304 500 q 431 489 361 500 q 566 449 501 478 q 672 372 631 421 q 714 247 714 322 q 685 138 714 186 q 608 55 657 89 q 497 3 560 21 q 365 -14 435 -14 m 149 132 l 65 193 q 88 261 65 238 q 142 285 111 285 q 196 263 174 285 q 218 208 218 240 q 197 156 218 178 q 149 132 176 135 m 158 635 q 105 659 128 635 q 82 726 82 683 l 158 788 q 197 777 181 788 q 224 749 214 767 q 235 711 235 732 q 213 657 235 679 q 158 635 190 635 m 304 465 l 304 500 q 381 510 342 500 q 456 544 421 521 q 512 609 490 568 q 533 711 533 650 q 481 845 533 801 q 346 889 428 889 q 227 860 278 889 q 158 788 176 832 l 82 726 q 115 825 82 775 q 213 910 147 875 q 375 944 278 944 q 482 931 431 944 q 575 891 533 918 q 641 823 617 864 q 665 726 665 782 q 633 612 665 661 q 549 530 601 563 q 432 481 496 497 q 304 465 368 465 z "},"4":{"ha":889,"x_min":69,"x_max":786,"o":"m 69 246 l 143 294 l 786 294 l 786 246 l 69 246 m 69 246 l 69 288 l 532 931 l 640 931 l 640 56 l 647 49 l 758 49 l 758 0 l 397 0 l 397 49 l 508 49 l 515 56 l 515 811 l 511 811 l 143 301 l 143 294 l 69 246 z "},"5":{"ha":792,"x_min":61,"x_max":707,"o":"m 353 -14 q 194 19 260 -14 q 95 102 129 51 q 61 207 61 153 l 144 146 q 223 71 168 100 q 343 42 278 42 q 520 109 465 42 q 575 281 575 176 q 519 464 575 392 q 365 536 464 536 q 238 506 297 536 q 144 422 178 475 l 103 433 l 144 931 l 676 931 l 676 819 l 196 819 l 174 526 q 249 570 199 549 q 386 592 300 592 q 553 554 481 592 q 666 450 625 517 q 707 296 707 383 q 664 137 707 207 q 541 26 621 67 q 353 -14 461 -14 m 144 146 l 61 207 q 84 275 61 251 q 138 299 107 299 q 192 276 169 299 q 214 222 214 254 q 193 170 214 192 q 144 146 172 149 z "},"6":{"ha":785,"x_min":63,"x_max":722,"o":"m 403 -14 q 281 10 342 -14 q 172 89 221 35 q 92 230 122 143 q 63 442 63 317 q 109 710 63 597 q 241 883 156 822 q 440 944 326 944 q 569 920 510 944 q 666 853 629 896 q 703 753 703 810 q 680 690 703 714 q 625 667 657 667 q 572 689 594 667 q 550 744 550 711 q 563 785 550 764 q 610 818 575 806 q 536 872 585 856 q 440 889 488 889 q 251 772 307 889 q 194 450 194 656 q 223 208 194 297 q 300 80 251 118 q 408 42 349 42 q 540 99 490 42 q 590 275 590 157 q 538 449 590 393 q 411 504 486 504 q 281 462 343 504 q 167 333 219 419 l 167 410 q 266 515 203 471 q 422 560 329 560 q 528 543 475 560 q 624 492 581 526 q 695 404 668 457 q 722 281 722 351 q 675 117 722 183 q 555 19 628 51 q 403 -14 482 -14 z "},"7":{"ha":778,"x_min":68,"x_max":690,"o":"m 690 931 q 669 797 690 858 q 617 676 649 735 q 549 557 585 618 q 485 425 514 496 q 440 268 456 354 q 432 74 424 182 q 414 9 435 32 q 363 -14 393 -14 q 313 9 332 -14 q 293 74 293 32 q 320 254 293 171 q 388 412 347 338 q 475 554 429 486 q 560 688 521 622 q 621 819 600 753 l 386 819 q 252 810 306 819 q 166 771 199 801 q 114 674 133 740 l 68 688 l 122 931 l 690 931 z "},"8":{"ha":764,"x_min":63,"x_max":701,"o":"m 375 -14 q 267 -1 322 -14 q 166 39 213 11 q 91 113 119 67 q 63 225 63 158 q 94 350 63 297 q 177 439 126 403 q 281 494 228 475 l 349 474 q 240 421 292 453 q 157 343 189 389 q 125 235 125 297 q 149 142 125 179 q 212 83 174 106 q 293 51 250 61 q 374 42 336 42 q 483 62 432 42 q 566 120 535 82 q 597 214 597 158 q 569 301 597 265 q 496 360 542 336 q 395 406 450 385 q 285 449 340 426 q 185 503 231 472 q 111 579 139 533 q 83 692 83 625 q 124 827 83 771 q 231 914 164 883 q 382 944 299 944 q 516 921 453 944 q 619 849 579 897 q 660 724 660 800 q 619 599 660 654 q 492 494 579 543 l 413 508 q 555 608 513 557 q 597 719 597 658 q 565 817 597 781 q 482 872 532 854 q 382 889 432 889 q 243 847 299 889 q 188 732 188 806 q 215 647 188 681 q 289 588 243 613 q 390 544 335 564 q 499 502 444 525 q 600 447 554 479 q 674 367 646 415 q 701 247 701 318 q 681 143 701 188 q 628 69 661 99 q 552 21 594 39 q 464 -6 510 3 q 375 -14 418 -14 z "},"9":{"ha":785,"x_min":63,"x_max":722,"o":"m 358 -14 q 229 10 289 -14 q 133 78 169 35 q 96 178 96 122 q 119 240 96 217 q 174 264 142 264 q 227 242 206 264 q 249 186 249 219 q 236 146 249 167 q 189 113 224 125 q 263 58 214 75 q 358 42 311 42 q 498 99 447 42 q 569 260 549 156 q 590 508 590 365 q 562 744 590 663 q 485 858 533 826 q 376 889 436 889 q 244 833 294 889 q 194 658 194 776 q 247 483 194 540 q 374 426 299 426 q 504 469 442 426 q 618 597 567 513 l 618 521 q 519 415 582 460 q 363 371 456 371 q 258 388 311 371 q 160 438 204 404 q 90 524 117 472 q 63 647 63 576 q 110 812 63 746 q 231 911 157 878 q 382 944 304 944 q 503 924 443 944 q 613 856 564 904 q 692 724 663 807 q 722 517 722 642 q 679 235 722 354 q 555 51 636 117 q 358 -14 474 -14 z "},"A":{"ha":975,"x_min":21,"x_max":954,"o":"m 21 0 l 21 49 l 101 49 l 438 931 l 542 931 l 860 49 l 954 49 l 954 0 l 625 0 l 625 49 l 715 49 l 722 56 l 460 799 l 453 799 l 171 56 l 178 49 l 292 49 l 292 0 l 21 0 m 242 333 l 242 382 l 657 382 l 657 333 l 242 333 z "},"Á":{"ha":975,"x_min":21,"x_max":954,"o":"m 21 0 l 21 49 l 101 49 l 438 931 l 542 931 l 860 49 l 954 49 l 954 0 l 625 0 l 625 49 l 715 49 l 722 56 l 460 799 l 453 799 l 171 56 l 178 49 l 292 49 l 292 0 l 21 0 m 242 333 l 242 382 l 657 382 l 657 333 l 242 333 m 688 1208 l 494 1014 l 453 1014 l 535 1208 l 688 1208 z "},"Ă":{"ha":975,"x_min":21,"x_max":954,"o":"m 21 0 l 21 49 l 101 49 l 438 931 l 542 931 l 860 49 l 954 49 l 954 0 l 625 0 l 625 49 l 715 49 l 722 56 l 460 799 l 453 799 l 171 56 l 178 49 l 292 49 l 292 0 l 21 0 m 242 333 l 242 382 l 657 382 l 657 333 l 242 333 m 633 1208 l 675 1208 q 651 1101 675 1149 q 586 1027 628 1054 q 488 1000 544 1000 q 390 1027 432 1000 q 324 1101 347 1054 q 300 1208 300 1149 l 342 1208 q 367 1146 346 1172 q 419 1105 388 1119 q 488 1090 451 1090 q 556 1105 524 1090 q 609 1146 588 1119 q 633 1208 631 1172 z "},"Ắ":{"ha":975,"x_min":21,"x_max":954,"o":"m 21 0 l 21 49 l 101 49 l 438 931 l 542 931 l 860 49 l 954 49 l 954 0 l 625 0 l 625 49 l 715 49 l 722 56 l 460 799 l 453 799 l 171 56 l 178 49 l 292 49 l 292 0 l 21 0 m 242 333 l 242 382 l 657 382 l 657 333 l 242 333 m 633 1208 l 675 1208 q 651 1101 675 1149 q 586 1027 628 1054 q 488 1000 544 1000 q 390 1027 432 1000 q 324 1101 347 1054 q 300 1208 300 1149 l 342 1208 q 367 1146 346 1172 q 419 1105 388 1119 q 488 1090 451 1090 q 556 1105 524 1090 q 609 1146 588 1119 q 633 1208 631 1172 m 688 1403 l 494 1208 l 453 1208 l 535 1403 l 688 1403 z "},"Ặ":{"ha":975,"x_min":21,"x_max":954,"o":"m 21 0 l 21 49 l 101 49 l 438 931 l 542 931 l 860 49 l 954 49 l 954 0 l 625 0 l 625 49 l 715 49 l 722 56 l 460 799 l 453 799 l 171 56 l 178 49 l 292 49 l 292 0 l 21 0 m 242 333 l 242 382 l 657 382 l 657 333 l 242 333 m 488 -278 q 434 -255 457 -278 q 411 -201 411 -232 q 434 -147 411 -169 q 488 -125 457 -125 q 542 -147 519 -125 q 564 -201 564 -169 q 542 -255 564 -232 q 488 -278 519 -278 m 633 1208 l 675 1208 q 651 1101 675 1149 q 586 1027 628 1054 q 488 1000 544 1000 q 390 1027 432 1000 q 324 1101 347 1054 q 300 1208 300 1149 l 342 1208 q 367 1146 346 1172 q 419 1105 388 1119 q 488 1090 451 1090 q 556 1105 524 1090 q 609 1146 588 1119 q 633 1208 631 1172 z "},"Ằ":{"ha":975,"x_min":21,"x_max":954,"o":"m 21 0 l 21 49 l 101 49 l 438 931 l 542 931 l 860 49 l 954 49 l 954 0 l 625 0 l 625 49 l 715 49 l 722 56 l 460 799 l 453 799 l 171 56 l 178 49 l 292 49 l 292 0 l 21 0 m 242 333 l 242 382 l 657 382 l 657 333 l 242 333 m 633 1208 l 675 1208 q 651 1101 675 1149 q 586 1027 628 1054 q 488 1000 544 1000 q 390 1027 432 1000 q 324 1101 347 1054 q 300 1208 300 1149 l 342 1208 q 367 1146 346 1172 q 419 1105 388 1119 q 488 1090 451 1090 q 556 1105 524 1090 q 609 1146 588 1119 q 633 1208 631 1172 m 301 1403 l 454 1403 l 536 1208 l 494 1208 l 301 1403 z "},"Ẳ":{"ha":975,"x_min":21,"x_max":954,"o":"m 21 0 l 21 49 l 101 49 l 438 931 l 542 931 l 860 49 l 954 49 l 954 0 l 625 0 l 625 49 l 715 49 l 722 56 l 460 799 l 453 799 l 171 56 l 178 49 l 292 49 l 292 0 l 21 0 m 242 333 l 242 382 l 657 382 l 657 333 l 242 333 m 488 1000 q 390 1027 432 1000 q 324 1101 347 1054 q 300 1208 300 1149 l 342 1208 q 367 1146 346 1172 q 419 1105 388 1119 q 488 1090 451 1090 q 556 1105 524 1090 q 609 1146 588 1119 q 633 1208 631 1172 l 675 1208 q 651 1101 675 1149 q 586 1027 628 1054 q 488 1000 544 1000 m 469 1208 q 482 1251 469 1233 q 506 1288 494 1269 q 518 1331 518 1306 q 506 1363 518 1353 q 475 1374 494 1374 q 438 1364 456 1374 q 406 1339 421 1354 l 383 1361 q 433 1433 403 1408 q 510 1457 463 1457 q 558 1447 533 1457 q 599 1415 582 1436 q 617 1361 617 1394 q 604 1313 617 1332 q 574 1278 592 1294 q 538 1247 556 1263 q 511 1208 521 1231 l 469 1208 z "},"Ẵ":{"ha":975,"x_min":21,"x_max":954,"o":"m 21 0 l 21 49 l 101 49 l 438 931 l 542 931 l 860 49 l 954 49 l 954 0 l 625 0 l 625 49 l 715 49 l 722 56 l 460 799 l 453 799 l 171 56 l 178 49 l 292 49 l 292 0 l 21 0 m 242 333 l 242 382 l 657 382 l 657 333 l 242 333 m 633 1208 l 675 1208 q 651 1101 675 1149 q 586 1027 628 1054 q 488 1000 544 1000 q 390 1027 432 1000 q 324 1101 347 1054 q 300 1208 300 1149 l 342 1208 q 367 1146 346 1172 q 419 1105 388 1119 q 488 1090 451 1090 q 556 1105 524 1090 q 609 1146 588 1119 q 633 1208 631 1172 m 692 1375 l 731 1354 q 674 1244 715 1274 q 592 1214 633 1214 q 506 1235 547 1214 q 429 1278 465 1257 q 360 1299 393 1299 q 318 1283 338 1299 q 283 1221 299 1267 l 244 1242 q 299 1350 260 1318 q 382 1382 339 1382 q 466 1361 425 1382 q 545 1319 507 1340 q 615 1297 583 1297 q 657 1313 638 1297 q 692 1375 676 1329 z "},"Ǎ":{"ha":975,"x_min":21,"x_max":954,"o":"m 21 0 l 21 49 l 101 49 l 438 931 l 542 931 l 860 49 l 954 49 l 954 0 l 625 0 l 625 49 l 715 49 l 722 56 l 460 799 l 453 799 l 171 56 l 178 49 l 292 49 l 292 0 l 21 0 m 242 333 l 242 382 l 657 382 l 657 333 l 242 333 m 646 1208 l 688 1208 l 508 1014 l 465 1014 l 286 1208 l 328 1208 l 488 1124 l 646 1208 z "},"Â":{"ha":975,"x_min":21,"x_max":954,"o":"m 21 0 l 21 49 l 101 49 l 438 931 l 542 931 l 860 49 l 954 49 l 954 0 l 625 0 l 625 49 l 715 49 l 722 56 l 460 799 l 453 799 l 171 56 l 178 49 l 292 49 l 292 0 l 21 0 m 242 333 l 242 382 l 657 382 l 657 333 l 242 333 m 646 1014 l 488 1099 l 328 1014 l 286 1014 l 465 1208 l 508 1208 l 688 1014 l 646 1014 z "},"Ấ":{"ha":975,"x_min":21,"x_max":954,"o":"m 21 0 l 21 49 l 101 49 l 438 931 l 542 931 l 860 49 l 954 49 l 954 0 l 625 0 l 625 49 l 715 49 l 722 56 l 460 799 l 453 799 l 171 56 l 178 49 l 292 49 l 292 0 l 21 0 m 242 333 l 242 382 l 657 382 l 657 333 l 242 333 m 286 1014 l 465 1208 l 508 1208 l 688 1014 l 646 1014 l 432 1128 l 543 1128 l 328 1014 l 286 1014 m 606 1153 l 688 1347 l 840 1347 l 647 1153 l 606 1153 z "},"Ậ":{"ha":975,"x_min":21,"x_max":954,"o":"m 21 0 l 21 49 l 101 49 l 438 931 l 542 931 l 860 49 l 954 49 l 954 0 l 625 0 l 625 49 l 715 49 l 722 56 l 460 799 l 453 799 l 171 56 l 178 49 l 292 49 l 292 0 l 21 0 m 242 333 l 242 382 l 657 382 l 657 333 l 242 333 m 488 -278 q 434 -255 457 -278 q 411 -201 411 -232 q 434 -147 411 -169 q 488 -125 457 -125 q 542 -147 519 -125 q 564 -201 564 -169 q 542 -255 564 -232 q 488 -278 519 -278 m 646 1014 l 488 1099 l 328 1014 l 286 1014 l 465 1208 l 508 1208 l 688 1014 l 646 1014 z "},"Ầ":{"ha":975,"x_min":21,"x_max":954,"o":"m 21 0 l 21 49 l 101 49 l 438 931 l 542 931 l 860 49 l 954 49 l 954 0 l 625 0 l 625 49 l 715 49 l 722 56 l 460 799 l 453 799 l 171 56 l 178 49 l 292 49 l 292 0 l 21 0 m 242 333 l 242 382 l 657 382 l 657 333 l 242 333 m 286 1014 l 465 1208 l 508 1208 l 688 1014 l 646 1014 l 432 1128 l 543 1128 l 328 1014 l 286 1014 m 701 1153 l 508 1347 l 661 1347 l 743 1153 l 701 1153 z "},"Ẩ":{"ha":975,"x_min":21,"x_max":954,"o":"m 21 0 l 21 49 l 101 49 l 438 931 l 542 931 l 860 49 l 954 49 l 954 0 l 625 0 l 625 49 l 715 49 l 722 56 l 460 799 l 453 799 l 171 56 l 178 49 l 292 49 l 292 0 l 21 0 m 242 333 l 242 382 l 657 382 l 657 333 l 242 333 m 286 1014 l 465 1208 l 508 1208 l 688 1014 l 646 1014 l 432 1128 l 543 1128 l 328 1014 l 286 1014 m 622 1153 q 635 1196 622 1178 q 659 1232 647 1214 q 671 1275 671 1250 q 659 1308 671 1297 q 628 1318 647 1318 q 591 1308 608 1318 q 558 1283 574 1299 l 536 1306 q 585 1377 556 1353 q 663 1401 615 1401 q 710 1391 686 1401 q 752 1360 735 1381 q 769 1306 769 1339 q 757 1258 769 1276 q 726 1223 744 1239 q 691 1191 708 1207 q 664 1153 674 1175 l 622 1153 z "},"Ẫ":{"ha":975,"x_min":21,"x_max":954,"o":"m 21 0 l 21 49 l 101 49 l 438 931 l 542 931 l 860 49 l 954 49 l 954 0 l 625 0 l 625 49 l 715 49 l 722 56 l 460 799 l 453 799 l 171 56 l 178 49 l 292 49 l 292 0 l 21 0 m 242 333 l 242 382 l 657 382 l 657 333 l 242 333 m 592 1242 q 506 1263 547 1242 q 429 1306 465 1285 q 360 1326 393 1326 q 318 1310 338 1326 q 283 1249 299 1294 l 244 1269 q 299 1378 260 1346 q 382 1410 339 1410 q 466 1389 425 1410 q 545 1347 507 1368 q 615 1325 583 1325 q 657 1341 638 1325 q 692 1403 676 1357 l 731 1382 q 674 1272 715 1301 q 592 1242 633 1242 m 286 1014 l 465 1208 l 508 1208 l 688 1014 l 646 1014 l 432 1128 l 543 1128 l 328 1014 l 286 1014 z "},"Ȁ":{"ha":975,"x_min":21,"x_max":954,"o":"m 21 0 l 21 49 l 101 49 l 438 931 l 542 931 l 860 49 l 954 49 l 954 0 l 625 0 l 625 49 l 715 49 l 722 56 l 460 799 l 453 799 l 171 56 l 178 49 l 292 49 l 292 0 l 21 0 m 242 333 l 242 382 l 657 382 l 657 333 l 242 333 m 592 1014 l 399 1208 l 551 1208 l 633 1014 l 592 1014 m 356 1014 l 163 1208 l 315 1208 l 397 1014 l 356 1014 z "},"Ä":{"ha":975,"x_min":21,"x_max":954,"o":"m 21 0 l 21 49 l 101 49 l 438 931 l 542 931 l 860 49 l 954 49 l 954 0 l 625 0 l 625 49 l 715 49 l 722 56 l 460 799 l 453 799 l 171 56 l 178 49 l 292 49 l 292 0 l 21 0 m 242 333 l 242 382 l 657 382 l 657 333 l 242 333 m 335 1028 q 281 1051 304 1028 q 258 1104 258 1074 q 281 1158 258 1136 q 335 1181 304 1181 q 389 1158 367 1181 q 411 1104 411 1136 q 389 1051 411 1074 q 335 1028 367 1028 m 640 1028 q 587 1051 610 1028 q 564 1104 564 1074 q 587 1158 564 1136 q 640 1181 610 1181 q 694 1158 672 1181 q 717 1104 717 1136 q 694 1051 717 1074 q 640 1028 672 1028 z "},"Ạ":{"ha":975,"x_min":21,"x_max":954,"o":"m 21 0 l 21 49 l 101 49 l 438 931 l 542 931 l 860 49 l 954 49 l 954 0 l 625 0 l 625 49 l 715 49 l 722 56 l 460 799 l 453 799 l 171 56 l 178 49 l 292 49 l 292 0 l 21 0 m 242 333 l 242 382 l 657 382 l 657 333 l 242 333 m 488 -278 q 434 -255 457 -278 q 411 -201 411 -232 q 434 -147 411 -169 q 488 -125 457 -125 q 542 -147 519 -125 q 564 -201 564 -169 q 542 -255 564 -232 q 488 -278 519 -278 z "},"À":{"ha":975,"x_min":21,"x_max":954,"o":"m 21 0 l 21 49 l 101 49 l 438 931 l 542 931 l 860 49 l 954 49 l 954 0 l 625 0 l 625 49 l 715 49 l 722 56 l 460 799 l 453 799 l 171 56 l 178 49 l 292 49 l 292 0 l 21 0 m 242 333 l 242 382 l 657 382 l 657 333 l 242 333 m 301 1208 l 454 1208 l 536 1014 l 494 1014 l 301 1208 z "},"Ả":{"ha":975,"x_min":21,"x_max":954,"o":"m 21 0 l 21 49 l 101 49 l 438 931 l 542 931 l 860 49 l 954 49 l 954 0 l 625 0 l 625 49 l 715 49 l 722 56 l 460 799 l 453 799 l 171 56 l 178 49 l 292 49 l 292 0 l 21 0 m 242 333 l 242 382 l 657 382 l 657 333 l 242 333 m 511 1014 l 469 1014 q 482 1057 469 1039 q 506 1093 494 1075 q 518 1136 518 1111 q 506 1169 518 1158 q 475 1179 494 1179 q 438 1169 456 1179 q 406 1144 421 1160 l 383 1167 q 433 1238 403 1214 q 510 1263 463 1263 q 558 1252 533 1263 q 599 1221 582 1242 q 617 1167 617 1200 q 604 1119 617 1138 q 574 1084 592 1100 q 538 1052 556 1068 q 511 1014 521 1036 z "},"Ȃ":{"ha":975,"x_min":21,"x_max":954,"o":"m 21 0 l 21 49 l 101 49 l 438 931 l 542 931 l 860 49 l 954 49 l 954 0 l 625 0 l 625 49 l 715 49 l 722 56 l 460 799 l 453 799 l 171 56 l 178 49 l 292 49 l 292 0 l 21 0 m 242 333 l 242 382 l 657 382 l 657 333 l 242 333 m 633 1000 q 609 1063 631 1036 q 556 1103 588 1089 q 488 1118 524 1118 q 419 1103 451 1118 q 367 1063 388 1089 q 342 1000 346 1036 l 300 1000 q 324 1107 300 1060 q 390 1181 347 1154 q 488 1208 432 1208 q 586 1181 544 1208 q 651 1107 628 1154 q 675 1000 675 1060 l 633 1000 z "},"Ā":{"ha":975,"x_min":21,"x_max":954,"o":"m 21 0 l 21 49 l 101 49 l 438 931 l 542 931 l 860 49 l 954 49 l 954 0 l 625 0 l 625 49 l 715 49 l 722 56 l 460 799 l 453 799 l 171 56 l 178 49 l 292 49 l 292 0 l 21 0 m 242 333 l 242 382 l 657 382 l 657 333 l 242 333 m 258 1139 l 717 1139 l 717 1069 l 258 1069 l 258 1139 z "},"Ą":{"ha":975,"x_min":21,"x_max":954,"o":"m 21 0 l 21 49 l 101 49 l 438 931 l 542 931 l 860 49 l 954 49 l 954 0 l 625 0 l 625 49 l 715 49 l 722 56 l 460 799 l 453 799 l 171 56 l 178 49 l 292 49 l 292 0 l 21 0 m 242 333 l 242 382 l 657 382 l 657 333 l 242 333 m 857 42 l 878 14 q 748 -79 790 -28 q 706 -183 706 -131 q 724 -240 706 -217 q 776 -264 742 -264 q 823 -253 800 -264 q 868 -218 846 -242 l 906 -250 q 833 -313 871 -293 q 750 -333 796 -333 q 638 -294 681 -333 q 594 -192 594 -256 q 667 -56 594 -108 q 857 42 740 -3 z "},"Å":{"ha":975,"x_min":21,"x_max":954,"o":"m 21 0 l 21 49 l 101 49 l 438 931 l 542 931 l 860 49 l 954 49 l 954 0 l 625 0 l 625 49 l 715 49 l 722 56 l 460 799 l 453 799 l 171 56 l 178 49 l 292 49 l 292 0 l 21 0 m 242 333 l 242 382 l 657 382 l 657 333 l 242 333 m 490 897 q 393 932 435 897 q 351 1022 351 967 q 393 1113 351 1078 q 490 1147 435 1147 q 588 1113 547 1147 q 629 1022 629 1078 q 588 932 629 967 q 490 897 547 897 m 493 932 q 537 956 521 932 q 553 1022 553 979 q 534 1090 553 1067 q 488 1113 515 1113 q 444 1090 461 1113 q 428 1022 428 1067 q 447 956 428 979 q 493 932 467 932 z "},"Ǻ":{"ha":975,"x_min":21,"x_max":954,"o":"m 21 0 l 21 49 l 101 49 l 438 931 l 542 931 l 860 49 l 954 49 l 954 0 l 625 0 l 625 49 l 715 49 l 722 56 l 460 799 l 453 799 l 171 56 l 178 49 l 292 49 l 292 0 l 21 0 m 242 333 l 242 382 l 657 382 l 657 333 l 242 333 m 490 897 q 393 932 435 897 q 351 1022 351 967 q 393 1113 351 1078 q 490 1147 435 1147 q 588 1113 547 1147 q 629 1022 629 1078 q 588 932 629 967 q 490 897 547 897 m 493 932 q 537 956 521 932 q 553 1022 553 979 q 534 1090 553 1067 q 488 1113 515 1113 q 444 1090 461 1113 q 428 1022 428 1067 q 447 956 428 979 q 493 932 467 932 m 690 1315 l 497 1121 l 456 1121 l 538 1315 l 690 1315 z "},"Ã":{"ha":975,"x_min":21,"x_max":954,"o":"m 21 0 l 21 49 l 101 49 l 438 931 l 542 931 l 860 49 l 954 49 l 954 0 l 625 0 l 625 49 l 715 49 l 722 56 l 460 799 l 453 799 l 171 56 l 178 49 l 292 49 l 292 0 l 21 0 m 242 333 l 242 382 l 657 382 l 657 333 l 242 333 m 692 1181 l 731 1160 q 674 1049 715 1079 q 592 1019 633 1019 q 506 1041 547 1019 q 429 1083 465 1063 q 360 1104 393 1104 q 318 1088 338 1104 q 283 1026 299 1072 l 244 1047 q 299 1156 260 1124 q 382 1188 339 1188 q 466 1167 425 1188 q 545 1124 507 1146 q 615 1103 583 1103 q 657 1119 638 1103 q 692 1181 676 1135 z "},"Æ":{"ha":1274,"x_min":-7,"x_max":1218,"o":"m 301 382 l 671 382 l 671 333 l 301 333 l 301 382 m 1169 264 l 1218 264 l 1158 0 l 483 0 l 483 49 l 594 49 l 601 56 l 601 799 l 594 799 l 149 56 l 154 49 l 268 49 l 268 0 l -7 0 l -7 49 l 74 49 l 601 931 l 1144 931 l 1194 708 l 1149 694 q 1097 808 1129 768 q 1013 865 1065 849 q 881 882 961 882 l 733 882 l 726 875 l 726 507 l 842 507 q 931 538 901 507 q 967 660 961 568 l 1015 660 l 1015 306 l 967 306 q 931 428 961 397 q 842 458 901 458 l 726 458 l 726 56 l 733 49 l 894 49 q 1078 101 1015 49 q 1169 264 1140 154 z "},"Ǽ":{"ha":1274,"x_min":-7,"x_max":1218,"o":"m 301 382 l 671 382 l 671 333 l 301 333 l 301 382 m 1169 264 l 1218 264 l 1158 0 l 483 0 l 483 49 l 594 49 l 601 56 l 601 799 l 594 799 l 149 56 l 154 49 l 268 49 l 268 0 l -7 0 l -7 49 l 74 49 l 601 931 l 1144 931 l 1194 708 l 1149 694 q 1097 808 1129 768 q 1013 865 1065 849 q 881 882 961 882 l 733 882 l 726 875 l 726 507 l 842 507 q 931 538 901 507 q 967 660 961 568 l 1015 660 l 1015 306 l 967 306 q 931 428 961 397 q 842 458 901 458 l 726 458 l 726 56 l 733 49 l 894 49 q 1078 101 1015 49 q 1169 264 1140 154 m 838 1208 l 644 1014 l 603 1014 l 685 1208 l 838 1208 z "},"B":{"ha":944,"x_min":69,"x_max":896,"o":"m 575 476 l 575 493 q 738 466 665 493 q 853 389 810 439 q 896 265 896 339 q 863 140 896 190 q 776 58 829 89 q 663 14 724 28 q 549 0 603 0 l 69 0 l 69 49 l 181 49 l 188 56 l 188 875 l 181 882 l 69 882 l 69 931 l 493 931 q 614 920 553 931 q 726 885 675 910 q 809 819 778 861 q 840 713 840 776 q 765 563 840 622 q 575 476 690 504 m 319 882 l 313 875 l 313 494 l 250 507 l 465 507 q 588 524 533 507 q 676 585 643 542 q 708 701 708 628 q 675 803 708 764 q 586 863 642 843 q 465 882 531 882 l 319 882 m 521 49 q 644 69 589 49 q 731 135 699 89 q 764 254 764 181 q 731 363 764 317 q 642 433 697 408 q 521 458 586 458 l 250 458 l 313 474 l 313 56 l 319 49 l 521 49 z "},"C":{"ha":951,"x_min":69,"x_max":910,"o":"m 538 49 q 712 92 628 49 q 872 225 796 136 l 910 193 q 739 41 836 96 q 514 -14 642 -14 l 513 -14 q 336 22 417 -14 q 196 121 256 57 q 103 271 136 185 q 69 458 69 357 q 106 654 69 565 q 208 808 143 743 q 357 909 272 874 q 538 944 442 944 q 663 926 607 944 q 769 875 719 907 l 799 931 l 847 931 q 864 794 853 860 q 889 663 875 728 l 843 649 q 780 771 818 724 q 699 844 742 818 q 613 879 656 869 q 533 889 569 889 q 358 835 432 889 q 242 687 283 782 q 201 468 201 592 q 242 249 201 343 q 359 101 283 154 q 538 49 435 49 z "},"Ć":{"ha":951,"x_min":69,"x_max":910,"o":"m 538 49 q 712 92 628 49 q 872 225 796 136 l 910 193 q 739 41 836 96 q 514 -14 642 -14 l 513 -14 q 336 22 417 -14 q 196 121 256 57 q 103 271 136 185 q 69 458 69 357 q 106 654 69 565 q 208 808 143 743 q 357 909 272 874 q 538 944 442 944 q 663 926 607 944 q 769 875 719 907 l 799 931 l 847 931 q 864 794 853 860 q 889 663 875 728 l 843 649 q 780 771 818 724 q 699 844 742 818 q 613 879 656 869 q 533 889 569 889 q 358 835 432 889 q 242 687 283 782 q 201 468 201 592 q 242 249 201 343 q 359 101 283 154 q 538 49 435 49 m 732 1208 l 539 1014 l 497 1014 l 579 1208 l 732 1208 z "},"Č":{"ha":951,"x_min":69,"x_max":910,"o":"m 538 49 q 712 92 628 49 q 872 225 796 136 l 910 193 q 739 41 836 96 q 514 -14 642 -14 l 513 -14 q 336 22 417 -14 q 196 121 256 57 q 103 271 136 185 q 69 458 69 357 q 106 654 69 565 q 208 808 143 743 q 357 909 272 874 q 538 944 442 944 q 663 926 607 944 q 769 875 719 907 l 799 931 l 847 931 q 864 794 853 860 q 889 663 875 728 l 843 649 q 780 771 818 724 q 699 844 742 818 q 613 879 656 869 q 533 889 569 889 q 358 835 432 889 q 242 687 283 782 q 201 468 201 592 q 242 249 201 343 q 359 101 283 154 q 538 49 435 49 m 690 1208 l 732 1208 l 553 1014 l 510 1014 l 331 1208 l 372 1208 l 532 1124 l 690 1208 z "},"Ç":{"ha":951,"x_min":69,"x_max":910,"o":"m 538 49 q 712 92 628 49 q 872 225 796 136 l 910 193 q 739 41 836 96 q 514 -14 642 -14 l 513 -14 q 336 22 417 -14 q 196 121 256 57 q 103 271 136 185 q 69 458 69 357 q 106 654 69 565 q 208 808 143 743 q 357 909 272 874 q 538 944 442 944 q 663 926 607 944 q 769 875 719 907 l 799 931 l 847 931 q 864 794 853 860 q 889 663 875 728 l 843 649 q 780 771 818 724 q 699 844 742 818 q 613 879 656 869 q 533 889 569 889 q 358 835 432 889 q 242 687 283 782 q 201 468 201 592 q 242 249 201 343 q 359 101 283 154 q 538 49 435 49 m 521 -347 q 394 -306 457 -347 l 411 -260 q 465 -285 439 -278 q 514 -292 492 -292 q 572 -274 557 -292 q 588 -235 588 -256 q 553 -175 588 -199 q 457 -135 519 -151 l 507 0 l 563 0 l 515 -126 l 493 -60 q 581 -85 539 -65 q 651 -136 624 -104 q 678 -212 678 -168 q 634 -308 678 -268 q 521 -347 590 -347 z "},"Ḉ":{"ha":951,"x_min":69,"x_max":910,"o":"m 538 49 q 712 92 628 49 q 872 225 796 136 l 910 193 q 739 41 836 96 q 514 -14 642 -14 l 513 -14 q 336 22 417 -14 q 196 121 256 57 q 103 271 136 185 q 69 458 69 357 q 106 654 69 565 q 208 808 143 743 q 357 909 272 874 q 538 944 442 944 q 663 926 607 944 q 769 875 719 907 l 799 931 l 847 931 q 864 794 853 860 q 889 663 875 728 l 843 649 q 780 771 818 724 q 699 844 742 818 q 613 879 656 869 q 533 889 569 889 q 358 835 432 889 q 242 687 283 782 q 201 468 201 592 q 242 249 201 343 q 359 101 283 154 q 538 49 435 49 m 521 -347 q 394 -306 457 -347 l 411 -260 q 465 -285 439 -278 q 514 -292 492 -292 q 572 -274 557 -292 q 588 -235 588 -256 q 553 -175 588 -199 q 457 -135 519 -151 l 507 0 l 563 0 l 515 -126 l 493 -60 q 581 -85 539 -65 q 651 -136 624 -104 q 678 -212 678 -168 q 634 -308 678 -268 q 521 -347 590 -347 m 732 1208 l 539 1014 l 497 1014 l 579 1208 l 732 1208 z "},"Ĉ":{"ha":951,"x_min":69,"x_max":910,"o":"m 538 49 q 712 92 628 49 q 872 225 796 136 l 910 193 q 739 41 836 96 q 514 -14 642 -14 l 513 -14 q 336 22 417 -14 q 196 121 256 57 q 103 271 136 185 q 69 458 69 357 q 106 654 69 565 q 208 808 143 743 q 357 909 272 874 q 538 944 442 944 q 663 926 607 944 q 769 875 719 907 l 799 931 l 847 931 q 864 794 853 860 q 889 663 875 728 l 843 649 q 780 771 818 724 q 699 844 742 818 q 613 879 656 869 q 533 889 569 889 q 358 835 432 889 q 242 687 283 782 q 201 468 201 592 q 242 249 201 343 q 359 101 283 154 q 538 49 435 49 m 690 1014 l 532 1099 l 372 1014 l 331 1014 l 510 1208 l 553 1208 l 732 1014 l 690 1014 z "},"Ċ":{"ha":951,"x_min":69,"x_max":910,"o":"m 538 49 q 712 92 628 49 q 872 225 796 136 l 910 193 q 739 41 836 96 q 514 -14 642 -14 l 513 -14 q 336 22 417 -14 q 196 121 256 57 q 103 271 136 185 q 69 458 69 357 q 106 654 69 565 q 208 808 143 743 q 357 909 272 874 q 538 944 442 944 q 663 926 607 944 q 769 875 719 907 l 799 931 l 847 931 q 864 794 853 860 q 889 663 875 728 l 843 649 q 780 771 818 724 q 699 844 742 818 q 613 879 656 869 q 533 889 569 889 q 358 835 432 889 q 242 687 283 782 q 201 468 201 592 q 242 249 201 343 q 359 101 283 154 q 538 49 435 49 m 532 1028 q 478 1051 501 1028 q 456 1104 456 1074 q 478 1158 456 1136 q 532 1181 501 1181 q 586 1158 564 1181 q 608 1104 608 1136 q 586 1051 608 1074 q 532 1028 564 1028 z "},"D":{"ha":1042,"x_min":69,"x_max":972,"o":"m 500 931 q 694 899 607 931 q 842 810 781 868 q 938 668 904 751 q 972 479 972 585 q 937 289 972 376 q 838 137 901 201 q 688 36 774 72 q 500 0 601 0 l 69 0 l 69 49 l 181 49 l 188 56 l 188 875 l 181 882 l 69 882 l 69 931 l 500 931 m 500 49 q 679 100 603 49 q 798 245 756 151 q 840 465 840 339 q 796 681 840 586 q 669 828 751 775 q 472 882 586 882 l 319 882 l 313 875 l 313 56 l 319 49 l 500 49 z "},"Ǆ":{"ha":1849,"x_min":69,"x_max":1822,"o":"m 500 931 q 694 899 607 931 q 842 810 781 868 q 938 668 904 751 q 972 479 972 585 q 937 289 972 376 q 838 137 901 201 q 688 36 774 72 q 500 0 601 0 l 69 0 l 69 49 l 181 49 l 188 56 l 188 875 l 181 882 l 69 882 l 69 931 l 500 931 m 500 49 q 679 100 603 49 q 798 245 756 151 q 840 465 840 339 q 796 681 840 586 q 669 828 751 775 q 472 882 586 882 l 319 882 l 313 875 l 313 56 l 319 49 l 500 49 m 1072 0 l 1072 42 l 1614 875 l 1607 882 l 1400 882 q 1267 865 1319 882 q 1183 808 1215 849 q 1132 694 1151 768 l 1086 708 l 1136 931 l 1769 931 l 1769 889 l 1226 56 l 1233 49 l 1499 49 q 1682 101 1619 49 q 1774 264 1744 154 l 1822 264 l 1763 0 l 1072 0 m 1431 1014 l 1251 1208 l 1293 1208 l 1453 1124 l 1611 1208 l 1653 1208 l 1474 1014 l 1431 1014 z "},"Ð":{"ha":1042,"x_min":69,"x_max":972,"o":"m 69 0 l 69 49 l 181 49 l 188 56 l 188 875 l 181 882 l 69 882 l 69 931 l 500 931 q 694 899 607 931 q 842 810 781 868 q 938 668 904 751 q 972 479 972 585 q 937 289 972 376 q 838 137 901 201 q 688 36 774 72 q 500 0 601 0 l 69 0 m 83 440 l 83 489 l 528 489 l 528 440 l 83 440 m 319 49 l 500 49 q 679 100 603 49 q 798 245 756 151 q 840 465 840 339 q 796 681 840 586 q 669 828 751 775 q 472 882 586 882 l 319 882 l 313 875 l 313 56 l 319 49 z "},"Ď":{"ha":1042,"x_min":69,"x_max":972,"o":"m 500 931 q 694 899 607 931 q 842 810 781 868 q 938 668 904 751 q 972 479 972 585 q 937 289 972 376 q 838 137 901 201 q 688 36 774 72 q 500 0 601 0 l 69 0 l 69 49 l 181 49 l 188 56 l 188 875 l 181 882 l 69 882 l 69 931 l 500 931 m 500 49 q 679 100 603 49 q 798 245 756 151 q 840 465 840 339 q 796 681 840 586 q 669 828 751 775 q 472 882 586 882 l 319 882 l 313 875 l 313 56 l 319 49 l 500 49 m 679 1208 l 721 1208 l 542 1014 l 499 1014 l 319 1208 l 361 1208 l 521 1124 l 679 1208 z "},"Đ":{"ha":1042,"x_min":69,"x_max":972,"o":"m 69 0 l 69 49 l 181 49 l 188 56 l 188 875 l 181 882 l 69 882 l 69 931 l 500 931 q 694 899 607 931 q 842 810 781 868 q 938 668 904 751 q 972 479 972 585 q 937 289 972 376 q 838 137 901 201 q 688 36 774 72 q 500 0 601 0 l 69 0 m 83 440 l 83 489 l 528 489 l 528 440 l 83 440 m 319 49 l 500 49 q 679 100 603 49 q 798 245 756 151 q 840 465 840 339 q 796 681 840 586 q 669 828 751 775 q 472 882 586 882 l 319 882 l 313 875 l 313 56 l 319 49 z "},"Ḍ":{"ha":1042,"x_min":69,"x_max":972,"o":"m 500 931 q 694 899 607 931 q 842 810 781 868 q 938 668 904 751 q 972 479 972 585 q 937 289 972 376 q 838 137 901 201 q 688 36 774 72 q 500 0 601 0 l 69 0 l 69 49 l 181 49 l 188 56 l 188 875 l 181 882 l 69 882 l 69 931 l 500 931 m 500 49 q 679 100 603 49 q 798 245 756 151 q 840 465 840 339 q 796 681 840 586 q 669 828 751 775 q 472 882 586 882 l 319 882 l 313 875 l 313 56 l 319 49 l 500 49 m 521 -278 q 467 -255 490 -278 q 444 -201 444 -232 q 467 -147 444 -169 q 521 -125 490 -125 q 575 -147 553 -125 q 597 -201 597 -169 q 575 -255 597 -232 q 521 -278 553 -278 z "},"Ḏ":{"ha":1042,"x_min":69,"x_max":972,"o":"m 500 931 q 694 899 607 931 q 842 810 781 868 q 938 668 904 751 q 972 479 972 585 q 937 289 972 376 q 838 137 901 201 q 688 36 774 72 q 500 0 601 0 l 69 0 l 69 49 l 181 49 l 188 56 l 188 875 l 181 882 l 69 882 l 69 931 l 500 931 m 500 49 q 679 100 603 49 q 798 245 756 151 q 840 465 840 339 q 796 681 840 586 q 669 828 751 775 q 472 882 586 882 l 319 882 l 313 875 l 313 56 l 319 49 l 500 49 m 319 -222 l 319 -153 l 722 -153 l 722 -222 l 319 -222 z "},"ǅ":{"ha":1732,"x_min":69,"x_max":1683,"o":"m 500 931 q 694 899 607 931 q 842 810 781 868 q 938 668 904 751 q 972 479 972 585 q 937 289 972 376 q 838 137 901 201 q 688 36 774 72 q 500 0 601 0 l 69 0 l 69 49 l 181 49 l 188 56 l 188 875 l 181 882 l 69 882 l 69 931 l 500 931 m 500 49 q 679 100 603 49 q 798 245 756 151 q 840 465 840 339 q 796 681 840 586 q 669 828 751 775 q 472 882 586 882 l 319 882 l 313 875 l 313 56 l 319 49 l 500 49 m 1090 0 l 1090 35 l 1497 583 l 1490 590 l 1364 590 q 1261 581 1301 590 q 1195 538 1221 571 q 1150 431 1169 504 l 1104 444 l 1149 639 l 1649 639 l 1649 604 l 1242 56 l 1249 49 l 1342 49 q 1471 56 1421 49 q 1551 83 1521 64 q 1599 133 1581 101 q 1635 215 1618 165 l 1683 215 l 1635 0 l 1090 0 m 1372 764 l 1221 1000 l 1263 1000 l 1394 874 l 1525 1000 l 1567 1000 l 1415 764 l 1372 764 z "},"E":{"ha":888,"x_min":69,"x_max":832,"o":"m 783 264 l 832 264 l 772 0 l 69 0 l 69 49 l 181 49 l 188 56 l 188 875 l 181 882 l 69 882 l 69 931 l 758 931 l 808 708 l 763 694 q 711 808 743 768 q 627 865 679 849 q 494 882 575 882 l 319 882 l 313 875 l 313 492 l 250 507 l 456 507 q 545 538 515 507 q 581 660 575 568 l 629 660 l 629 306 l 581 306 q 545 428 575 397 q 456 458 515 458 l 250 458 l 313 476 l 313 56 l 319 49 l 508 49 q 692 101 629 49 q 783 264 754 154 z "},"É":{"ha":888,"x_min":69,"x_max":832,"o":"m 783 264 l 832 264 l 772 0 l 69 0 l 69 49 l 181 49 l 188 56 l 188 875 l 181 882 l 69 882 l 69 931 l 758 931 l 808 708 l 763 694 q 711 808 743 768 q 627 865 679 849 q 494 882 575 882 l 319 882 l 313 875 l 313 492 l 250 507 l 456 507 q 545 538 515 507 q 581 660 575 568 l 629 660 l 629 306 l 581 306 q 545 428 575 397 q 456 458 515 458 l 250 458 l 313 476 l 313 56 l 319 49 l 508 49 q 692 101 629 49 q 783 264 754 154 m 658 1208 l 465 1014 l 424 1014 l 506 1208 l 658 1208 z "},"Ĕ":{"ha":888,"x_min":69,"x_max":832,"o":"m 783 264 l 832 264 l 772 0 l 69 0 l 69 49 l 181 49 l 188 56 l 188 875 l 181 882 l 69 882 l 69 931 l 758 931 l 808 708 l 763 694 q 711 808 743 768 q 627 865 679 849 q 494 882 575 882 l 319 882 l 313 875 l 313 492 l 250 507 l 456 507 q 545 538 515 507 q 581 660 575 568 l 629 660 l 629 306 l 581 306 q 545 428 575 397 q 456 458 515 458 l 250 458 l 313 476 l 313 56 l 319 49 l 508 49 q 692 101 629 49 q 783 264 754 154 m 604 1208 l 646 1208 q 622 1101 646 1149 q 557 1027 599 1054 q 458 1000 515 1000 q 360 1027 403 1000 q 294 1101 318 1054 q 271 1208 271 1149 l 313 1208 q 338 1146 317 1172 q 390 1105 358 1119 q 458 1090 422 1090 q 526 1105 494 1090 q 580 1146 558 1119 q 604 1208 601 1172 z "},"Ě":{"ha":888,"x_min":69,"x_max":832,"o":"m 783 264 l 832 264 l 772 0 l 69 0 l 69 49 l 181 49 l 188 56 l 188 875 l 181 882 l 69 882 l 69 931 l 758 931 l 808 708 l 763 694 q 711 808 743 768 q 627 865 679 849 q 494 882 575 882 l 319 882 l 313 875 l 313 492 l 250 507 l 456 507 q 545 538 515 507 q 581 660 575 568 l 629 660 l 629 306 l 581 306 q 545 428 575 397 q 456 458 515 458 l 250 458 l 313 476 l 313 56 l 319 49 l 508 49 q 692 101 629 49 q 783 264 754 154 m 617 1208 l 658 1208 l 479 1014 l 436 1014 l 257 1208 l 299 1208 l 458 1124 l 617 1208 z "},"Ḝ":{"ha":888,"x_min":69,"x_max":832,"o":"m 783 264 l 832 264 l 772 0 l 69 0 l 69 49 l 181 49 l 188 56 l 188 875 l 181 882 l 69 882 l 69 931 l 758 931 l 808 708 l 763 694 q 711 808 743 768 q 627 865 679 849 q 494 882 575 882 l 319 882 l 313 875 l 313 492 l 250 507 l 456 507 q 545 538 515 507 q 581 660 575 568 l 629 660 l 629 306 l 581 306 q 545 428 575 397 q 456 458 515 458 l 250 458 l 313 476 l 313 56 l 319 49 l 508 49 q 692 101 629 49 q 783 264 754 154 m 447 -347 q 321 -306 383 -347 l 338 -260 q 392 -285 365 -278 q 440 -292 418 -292 q 499 -274 483 -292 q 514 -235 514 -256 q 480 -175 514 -199 q 383 -135 446 -151 l 433 0 l 489 0 l 442 -126 l 419 -60 q 508 -85 465 -65 q 577 -136 550 -104 q 604 -212 604 -168 q 560 -308 604 -268 q 447 -347 517 -347 m 604 1208 l 646 1208 q 622 1101 646 1149 q 557 1027 599 1054 q 458 1000 515 1000 q 360 1027 403 1000 q 294 1101 318 1054 q 271 1208 271 1149 l 313 1208 q 338 1146 317 1172 q 390 1105 358 1119 q 458 1090 422 1090 q 526 1105 494 1090 q 580 1146 558 1119 q 604 1208 601 1172 z "},"Ê":{"ha":888,"x_min":69,"x_max":832,"o":"m 783 264 l 832 264 l 772 0 l 69 0 l 69 49 l 181 49 l 188 56 l 188 875 l 181 882 l 69 882 l 69 931 l 758 931 l 808 708 l 763 694 q 711 808 743 768 q 627 865 679 849 q 494 882 575 882 l 319 882 l 313 875 l 313 492 l 250 507 l 456 507 q 545 538 515 507 q 581 660 575 568 l 629 660 l 629 306 l 581 306 q 545 428 575 397 q 456 458 515 458 l 250 458 l 313 476 l 313 56 l 319 49 l 508 49 q 692 101 629 49 q 783 264 754 154 m 617 1014 l 458 1099 l 299 1014 l 257 1014 l 436 1208 l 479 1208 l 658 1014 l 617 1014 z "},"Ế":{"ha":888,"x_min":69,"x_max":832,"o":"m 783 264 l 832 264 l 772 0 l 69 0 l 69 49 l 181 49 l 188 56 l 188 875 l 181 882 l 69 882 l 69 931 l 758 931 l 808 708 l 763 694 q 711 808 743 768 q 627 865 679 849 q 494 882 575 882 l 319 882 l 313 875 l 313 492 l 250 507 l 456 507 q 545 538 515 507 q 581 660 575 568 l 629 660 l 629 306 l 581 306 q 545 428 575 397 q 456 458 515 458 l 250 458 l 313 476 l 313 56 l 319 49 l 508 49 q 692 101 629 49 q 783 264 754 154 m 257 1014 l 436 1208 l 479 1208 l 658 1014 l 617 1014 l 403 1128 l 514 1128 l 299 1014 l 257 1014 m 576 1153 l 658 1347 l 811 1347 l 618 1153 l 576 1153 z "},"Ệ":{"ha":888,"x_min":69,"x_max":832,"o":"m 783 264 l 832 264 l 772 0 l 69 0 l 69 49 l 181 49 l 188 56 l 188 875 l 181 882 l 69 882 l 69 931 l 758 931 l 808 708 l 763 694 q 711 808 743 768 q 627 865 679 849 q 494 882 575 882 l 319 882 l 313 875 l 313 492 l 250 507 l 456 507 q 545 538 515 507 q 581 660 575 568 l 629 660 l 629 306 l 581 306 q 545 428 575 397 q 456 458 515 458 l 250 458 l 313 476 l 313 56 l 319 49 l 508 49 q 692 101 629 49 q 783 264 754 154 m 458 -278 q 405 -255 428 -278 q 382 -201 382 -232 q 405 -147 382 -169 q 458 -125 428 -125 q 513 -147 490 -125 q 535 -201 535 -169 q 513 -255 535 -232 q 458 -278 490 -278 m 617 1014 l 458 1099 l 299 1014 l 257 1014 l 436 1208 l 479 1208 l 658 1014 l 617 1014 z "},"Ề":{"ha":888,"x_min":69,"x_max":832,"o":"m 783 264 l 832 264 l 772 0 l 69 0 l 69 49 l 181 49 l 188 56 l 188 875 l 181 882 l 69 882 l 69 931 l 758 931 l 808 708 l 763 694 q 711 808 743 768 q 627 865 679 849 q 494 882 575 882 l 319 882 l 313 875 l 313 492 l 250 507 l 456 507 q 545 538 515 507 q 581 660 575 568 l 629 660 l 629 306 l 581 306 q 545 428 575 397 q 456 458 515 458 l 250 458 l 313 476 l 313 56 l 319 49 l 508 49 q 692 101 629 49 q 783 264 754 154 m 257 1014 l 436 1208 l 479 1208 l 658 1014 l 617 1014 l 403 1128 l 514 1128 l 299 1014 l 257 1014 m 672 1153 l 479 1347 l 632 1347 l 714 1153 l 672 1153 z "},"Ể":{"ha":888,"x_min":69,"x_max":832,"o":"m 783 264 l 832 264 l 772 0 l 69 0 l 69 49 l 181 49 l 188 56 l 188 875 l 181 882 l 69 882 l 69 931 l 758 931 l 808 708 l 763 694 q 711 808 743 768 q 627 865 679 849 q 494 882 575 882 l 319 882 l 313 875 l 313 492 l 250 507 l 456 507 q 545 538 515 507 q 581 660 575 568 l 629 660 l 629 306 l 581 306 q 545 428 575 397 q 456 458 515 458 l 250 458 l 313 476 l 313 56 l 319 49 l 508 49 q 692 101 629 49 q 783 264 754 154 m 257 1014 l 436 1208 l 479 1208 l 658 1014 l 617 1014 l 403 1128 l 514 1128 l 299 1014 l 257 1014 m 593 1153 q 606 1196 593 1178 q 630 1232 618 1214 q 642 1275 642 1250 q 630 1308 642 1297 q 599 1318 618 1318 q 562 1308 579 1318 q 529 1283 544 1299 l 507 1306 q 556 1377 526 1353 q 633 1401 586 1401 q 681 1391 657 1401 q 723 1360 706 1381 q 740 1306 740 1339 q 728 1258 740 1276 q 697 1223 715 1239 q 662 1191 679 1207 q 635 1153 644 1175 l 593 1153 z "},"Ễ":{"ha":888,"x_min":69,"x_max":832,"o":"m 783 264 l 832 264 l 772 0 l 69 0 l 69 49 l 181 49 l 188 56 l 188 875 l 181 882 l 69 882 l 69 931 l 758 931 l 808 708 l 763 694 q 711 808 743 768 q 627 865 679 849 q 494 882 575 882 l 319 882 l 313 875 l 313 492 l 250 507 l 456 507 q 545 538 515 507 q 581 660 575 568 l 629 660 l 629 306 l 581 306 q 545 428 575 397 q 456 458 515 458 l 250 458 l 313 476 l 313 56 l 319 49 l 508 49 q 692 101 629 49 q 783 264 754 154 m 563 1242 q 477 1263 518 1242 q 400 1306 436 1285 q 331 1326 364 1326 q 289 1310 308 1326 q 254 1249 269 1294 l 215 1269 q 270 1378 231 1346 q 353 1410 310 1410 q 437 1389 396 1410 q 516 1347 478 1368 q 586 1325 554 1325 q 628 1341 608 1325 q 663 1403 647 1357 l 701 1382 q 645 1272 686 1301 q 563 1242 604 1242 m 257 1014 l 436 1208 l 479 1208 l 658 1014 l 617 1014 l 403 1128 l 514 1128 l 299 1014 l 257 1014 z "},"Ȅ":{"ha":888,"x_min":69,"x_max":832,"o":"m 783 264 l 832 264 l 772 0 l 69 0 l 69 49 l 181 49 l 188 56 l 188 875 l 181 882 l 69 882 l 69 931 l 758 931 l 808 708 l 763 694 q 711 808 743 768 q 627 865 679 849 q 494 882 575 882 l 319 882 l 313 875 l 313 492 l 250 507 l 456 507 q 545 538 515 507 q 581 660 575 568 l 629 660 l 629 306 l 581 306 q 545 428 575 397 q 456 458 515 458 l 250 458 l 313 476 l 313 56 l 319 49 l 508 49 q 692 101 629 49 q 783 264 754 154 m 563 1014 l 369 1208 l 522 1208 l 604 1014 l 563 1014 m 326 1014 l 133 1208 l 286 1208 l 368 1014 l 326 1014 z "},"Ë":{"ha":888,"x_min":69,"x_max":832,"o":"m 783 264 l 832 264 l 772 0 l 69 0 l 69 49 l 181 49 l 188 56 l 188 875 l 181 882 l 69 882 l 69 931 l 758 931 l 808 708 l 763 694 q 711 808 743 768 q 627 865 679 849 q 494 882 575 882 l 319 882 l 313 875 l 313 492 l 250 507 l 456 507 q 545 538 515 507 q 581 660 575 568 l 629 660 l 629 306 l 581 306 q 545 428 575 397 q 456 458 515 458 l 250 458 l 313 476 l 313 56 l 319 49 l 508 49 q 692 101 629 49 q 783 264 754 154 m 306 1028 q 252 1051 275 1028 q 229 1104 229 1074 q 252 1158 229 1136 q 306 1181 275 1181 q 360 1158 338 1181 q 382 1104 382 1136 q 360 1051 382 1074 q 306 1028 338 1028 m 611 1028 q 558 1051 581 1028 q 535 1104 535 1074 q 558 1158 535 1136 q 611 1181 581 1181 q 665 1158 643 1181 q 688 1104 688 1136 q 665 1051 688 1074 q 611 1028 643 1028 z "},"Ė":{"ha":888,"x_min":69,"x_max":832,"o":"m 783 264 l 832 264 l 772 0 l 69 0 l 69 49 l 181 49 l 188 56 l 188 875 l 181 882 l 69 882 l 69 931 l 758 931 l 808 708 l 763 694 q 711 808 743 768 q 627 865 679 849 q 494 882 575 882 l 319 882 l 313 875 l 313 492 l 250 507 l 456 507 q 545 538 515 507 q 581 660 575 568 l 629 660 l 629 306 l 581 306 q 545 428 575 397 q 456 458 515 458 l 250 458 l 313 476 l 313 56 l 319 49 l 508 49 q 692 101 629 49 q 783 264 754 154 m 458 1028 q 405 1051 428 1028 q 382 1104 382 1074 q 405 1158 382 1136 q 458 1181 428 1181 q 513 1158 490 1181 q 535 1104 535 1136 q 513 1051 535 1074 q 458 1028 490 1028 z "},"Ẹ":{"ha":888,"x_min":69,"x_max":832,"o":"m 783 264 l 832 264 l 772 0 l 69 0 l 69 49 l 181 49 l 188 56 l 188 875 l 181 882 l 69 882 l 69 931 l 758 931 l 808 708 l 763 694 q 711 808 743 768 q 627 865 679 849 q 494 882 575 882 l 319 882 l 313 875 l 313 492 l 250 507 l 456 507 q 545 538 515 507 q 581 660 575 568 l 629 660 l 629 306 l 581 306 q 545 428 575 397 q 456 458 515 458 l 250 458 l 313 476 l 313 56 l 319 49 l 508 49 q 692 101 629 49 q 783 264 754 154 m 458 -278 q 405 -255 428 -278 q 382 -201 382 -232 q 405 -147 382 -169 q 458 -125 428 -125 q 513 -147 490 -125 q 535 -201 535 -169 q 513 -255 535 -232 q 458 -278 490 -278 z "},"È":{"ha":888,"x_min":69,"x_max":832,"o":"m 783 264 l 832 264 l 772 0 l 69 0 l 69 49 l 181 49 l 188 56 l 188 875 l 181 882 l 69 882 l 69 931 l 758 931 l 808 708 l 763 694 q 711 808 743 768 q 627 865 679 849 q 494 882 575 882 l 319 882 l 313 875 l 313 492 l 250 507 l 456 507 q 545 538 515 507 q 581 660 575 568 l 629 660 l 629 306 l 581 306 q 545 428 575 397 q 456 458 515 458 l 250 458 l 313 476 l 313 56 l 319 49 l 508 49 q 692 101 629 49 q 783 264 754 154 m 272 1208 l 425 1208 l 507 1014 l 465 1014 l 272 1208 z "},"Ẻ":{"ha":888,"x_min":69,"x_max":832,"o":"m 783 264 l 832 264 l 772 0 l 69 0 l 69 49 l 181 49 l 188 56 l 188 875 l 181 882 l 69 882 l 69 931 l 758 931 l 808 708 l 763 694 q 711 808 743 768 q 627 865 679 849 q 494 882 575 882 l 319 882 l 313 875 l 313 492 l 250 507 l 456 507 q 545 538 515 507 q 581 660 575 568 l 629 660 l 629 306 l 581 306 q 545 428 575 397 q 456 458 515 458 l 250 458 l 313 476 l 313 56 l 319 49 l 508 49 q 692 101 629 49 q 783 264 754 154 m 482 1014 l 440 1014 q 453 1057 440 1039 q 477 1093 465 1075 q 489 1136 489 1111 q 477 1169 489 1158 q 446 1179 465 1179 q 409 1169 426 1179 q 376 1144 392 1160 l 354 1167 q 403 1238 374 1214 q 481 1263 433 1263 q 528 1252 504 1263 q 570 1221 553 1242 q 588 1167 588 1200 q 575 1119 588 1138 q 544 1084 563 1100 q 509 1052 526 1068 q 482 1014 492 1036 z "},"Ȇ":{"ha":888,"x_min":69,"x_max":832,"o":"m 783 264 l 832 264 l 772 0 l 69 0 l 69 49 l 181 49 l 188 56 l 188 875 l 181 882 l 69 882 l 69 931 l 758 931 l 808 708 l 763 694 q 711 808 743 768 q 627 865 679 849 q 494 882 575 882 l 319 882 l 313 875 l 313 492 l 250 507 l 456 507 q 545 538 515 507 q 581 660 575 568 l 629 660 l 629 306 l 581 306 q 545 428 575 397 q 456 458 515 458 l 250 458 l 313 476 l 313 56 l 319 49 l 508 49 q 692 101 629 49 q 783 264 754 154 m 604 1000 q 580 1063 601 1036 q 526 1103 558 1089 q 458 1118 494 1118 q 390 1103 422 1118 q 338 1063 358 1089 q 313 1000 317 1036 l 271 1000 q 294 1107 271 1060 q 360 1181 318 1154 q 458 1208 403 1208 q 557 1181 515 1208 q 622 1107 599 1154 q 646 1000 646 1060 l 604 1000 z "},"Ē":{"ha":888,"x_min":69,"x_max":832,"o":"m 783 264 l 832 264 l 772 0 l 69 0 l 69 49 l 181 49 l 188 56 l 188 875 l 181 882 l 69 882 l 69 931 l 758 931 l 808 708 l 763 694 q 711 808 743 768 q 627 865 679 849 q 494 882 575 882 l 319 882 l 313 875 l 313 492 l 250 507 l 456 507 q 545 538 515 507 q 581 660 575 568 l 629 660 l 629 306 l 581 306 q 545 428 575 397 q 456 458 515 458 l 250 458 l 313 476 l 313 56 l 319 49 l 508 49 q 692 101 629 49 q 783 264 754 154 m 229 1139 l 688 1139 l 688 1069 l 229 1069 l 229 1139 z "},"Ḗ":{"ha":888,"x_min":69,"x_max":832,"o":"m 783 264 l 832 264 l 772 0 l 69 0 l 69 49 l 181 49 l 188 56 l 188 875 l 181 882 l 69 882 l 69 931 l 758 931 l 808 708 l 763 694 q 711 808 743 768 q 627 865 679 849 q 494 882 575 882 l 319 882 l 313 875 l 313 492 l 250 507 l 456 507 q 545 538 515 507 q 581 660 575 568 l 629 660 l 629 306 l 581 306 q 545 428 575 397 q 456 458 515 458 l 250 458 l 313 476 l 313 56 l 319 49 l 508 49 q 692 101 629 49 q 783 264 754 154 m 229 1139 l 688 1139 l 688 1069 l 229 1069 l 229 1139 m 658 1403 l 465 1208 l 424 1208 l 506 1403 l 658 1403 z "},"Ḕ":{"ha":888,"x_min":69,"x_max":832,"o":"m 783 264 l 832 264 l 772 0 l 69 0 l 69 49 l 181 49 l 188 56 l 188 875 l 181 882 l 69 882 l 69 931 l 758 931 l 808 708 l 763 694 q 711 808 743 768 q 627 865 679 849 q 494 882 575 882 l 319 882 l 313 875 l 313 492 l 250 507 l 456 507 q 545 538 515 507 q 581 660 575 568 l 629 660 l 629 306 l 581 306 q 545 428 575 397 q 456 458 515 458 l 250 458 l 313 476 l 313 56 l 319 49 l 508 49 q 692 101 629 49 q 783 264 754 154 m 229 1139 l 688 1139 l 688 1069 l 229 1069 l 229 1139 m 272 1403 l 425 1403 l 507 1208 l 465 1208 l 272 1403 z "},"Ę":{"ha":888,"x_min":69,"x_max":832,"o":"m 783 264 l 832 264 l 772 0 l 69 0 l 69 49 l 181 49 l 188 56 l 188 875 l 181 882 l 69 882 l 69 931 l 758 931 l 808 708 l 763 694 q 711 808 743 768 q 627 865 679 849 q 494 882 575 882 l 319 882 l 313 875 l 313 492 l 250 507 l 456 507 q 545 538 515 507 q 581 660 575 568 l 629 660 l 629 306 l 581 306 q 545 428 575 397 q 456 458 515 458 l 250 458 l 313 476 l 313 56 l 319 49 l 508 49 q 692 101 629 49 q 783 264 754 154 m 751 28 l 772 0 q 642 -93 685 -42 q 600 -197 600 -144 q 618 -254 600 -231 q 671 -278 636 -278 q 717 -267 694 -278 q 763 -232 740 -256 l 800 -264 q 728 -327 765 -307 q 644 -347 690 -347 q 532 -308 575 -347 q 489 -206 489 -269 q 562 -69 489 -122 q 751 28 635 -17 z "},"Ẽ":{"ha":888,"x_min":69,"x_max":832,"o":"m 783 264 l 832 264 l 772 0 l 69 0 l 69 49 l 181 49 l 188 56 l 188 875 l 181 882 l 69 882 l 69 931 l 758 931 l 808 708 l 763 694 q 711 808 743 768 q 627 865 679 849 q 494 882 575 882 l 319 882 l 313 875 l 313 492 l 250 507 l 456 507 q 545 538 515 507 q 581 660 575 568 l 629 660 l 629 306 l 581 306 q 545 428 575 397 q 456 458 515 458 l 250 458 l 313 476 l 313 56 l 319 49 l 508 49 q 692 101 629 49 q 783 264 754 154 m 663 1181 l 701 1160 q 645 1049 686 1079 q 563 1019 604 1019 q 477 1041 518 1019 q 400 1083 436 1063 q 331 1104 364 1104 q 289 1088 308 1104 q 254 1026 269 1072 l 215 1047 q 270 1156 231 1124 q 353 1188 310 1188 q 437 1167 396 1188 q 516 1124 478 1146 q 586 1103 554 1103 q 628 1119 608 1103 q 663 1181 647 1135 z "},"F":{"ha":806,"x_min":69,"x_max":767,"o":"m 69 0 l 69 49 l 181 49 l 188 56 l 188 875 l 181 882 l 69 882 l 69 931 l 717 931 l 767 708 l 721 694 q 669 808 701 768 q 585 865 638 849 q 453 882 533 882 l 319 882 l 313 875 l 313 417 l 250 479 l 469 479 q 559 510 529 479 q 594 632 589 540 l 643 632 l 643 278 l 594 278 q 559 400 589 369 q 469 431 529 431 l 250 431 l 313 493 l 313 56 l 319 49 l 486 49 l 486 0 l 69 0 z "},"G":{"ha":1032,"x_min":69,"x_max":988,"o":"m 661 444 l 988 444 l 988 396 l 904 396 l 897 389 l 897 0 l 849 0 l 794 103 l 788 103 q 710 38 750 64 q 623 -1 671 13 q 514 -14 575 -14 l 513 -14 q 336 22 417 -14 q 196 121 256 57 q 103 271 136 185 q 69 458 69 357 q 106 654 69 565 q 206 808 142 743 q 357 909 271 874 q 543 944 443 944 q 678 925 619 944 q 783 875 738 906 l 813 931 l 861 931 q 878 794 867 860 q 903 663 889 728 l 857 649 q 772 797 825 744 q 657 869 718 849 q 539 889 596 889 q 358 835 433 889 q 242 685 282 781 q 201 468 201 590 q 241 251 201 346 q 353 102 281 156 q 526 49 426 49 q 656 78 599 49 q 746 165 713 107 q 779 308 779 222 l 779 389 l 772 396 l 661 396 l 661 444 z "},"Ğ":{"ha":1032,"x_min":69,"x_max":988,"o":"m 661 444 l 988 444 l 988 396 l 904 396 l 897 389 l 897 0 l 849 0 l 794 103 l 788 103 q 710 38 750 64 q 623 -1 671 13 q 514 -14 575 -14 l 513 -14 q 336 22 417 -14 q 196 121 256 57 q 103 271 136 185 q 69 458 69 357 q 106 654 69 565 q 206 808 142 743 q 357 909 271 874 q 543 944 443 944 q 678 925 619 944 q 783 875 738 906 l 813 931 l 861 931 q 878 794 867 860 q 903 663 889 728 l 857 649 q 772 797 825 744 q 657 869 718 849 q 539 889 596 889 q 358 835 433 889 q 242 685 282 781 q 201 468 201 590 q 241 251 201 346 q 353 102 281 156 q 526 49 426 49 q 656 78 599 49 q 746 165 713 107 q 779 308 779 222 l 779 389 l 772 396 l 661 396 l 661 444 m 679 1208 l 721 1208 q 697 1101 721 1149 q 632 1027 674 1054 q 533 1000 590 1000 q 435 1027 478 1000 q 369 1101 393 1054 q 346 1208 346 1149 l 388 1208 q 413 1146 392 1172 q 465 1105 433 1119 q 533 1090 497 1090 q 601 1105 569 1090 q 655 1146 633 1119 q 679 1208 676 1172 z "},"Ǧ":{"ha":1032,"x_min":69,"x_max":988,"o":"m 661 444 l 988 444 l 988 396 l 904 396 l 897 389 l 897 0 l 849 0 l 794 103 l 788 103 q 710 38 750 64 q 623 -1 671 13 q 514 -14 575 -14 l 513 -14 q 336 22 417 -14 q 196 121 256 57 q 103 271 136 185 q 69 458 69 357 q 106 654 69 565 q 206 808 142 743 q 357 909 271 874 q 543 944 443 944 q 678 925 619 944 q 783 875 738 906 l 813 931 l 861 931 q 878 794 867 860 q 903 663 889 728 l 857 649 q 772 797 825 744 q 657 869 718 849 q 539 889 596 889 q 358 835 433 889 q 242 685 282 781 q 201 468 201 590 q 241 251 201 346 q 353 102 281 156 q 526 49 426 49 q 656 78 599 49 q 746 165 713 107 q 779 308 779 222 l 779 389 l 772 396 l 661 396 l 661 444 m 692 1208 l 733 1208 l 554 1014 l 511 1014 l 332 1208 l 374 1208 l 533 1124 l 692 1208 z "},"Ĝ":{"ha":1032,"x_min":69,"x_max":988,"o":"m 661 444 l 988 444 l 988 396 l 904 396 l 897 389 l 897 0 l 849 0 l 794 103 l 788 103 q 710 38 750 64 q 623 -1 671 13 q 514 -14 575 -14 l 513 -14 q 336 22 417 -14 q 196 121 256 57 q 103 271 136 185 q 69 458 69 357 q 106 654 69 565 q 206 808 142 743 q 357 909 271 874 q 543 944 443 944 q 678 925 619 944 q 783 875 738 906 l 813 931 l 861 931 q 878 794 867 860 q 903 663 889 728 l 857 649 q 772 797 825 744 q 657 869 718 849 q 539 889 596 889 q 358 835 433 889 q 242 685 282 781 q 201 468 201 590 q 241 251 201 346 q 353 102 281 156 q 526 49 426 49 q 656 78 599 49 q 746 165 713 107 q 779 308 779 222 l 779 389 l 772 396 l 661 396 l 661 444 m 692 1014 l 533 1099 l 374 1014 l 332 1014 l 511 1208 l 554 1208 l 733 1014 l 692 1014 z "},"Ģ":{"ha":1032,"x_min":69,"x_max":988,"o":"m 661 444 l 988 444 l 988 396 l 904 396 l 897 389 l 897 0 l 849 0 l 794 103 l 788 103 q 710 38 750 64 q 623 -1 671 13 q 514 -14 575 -14 l 513 -14 q 336 22 417 -14 q 196 121 256 57 q 103 271 136 185 q 69 458 69 357 q 106 654 69 565 q 206 808 142 743 q 357 909 271 874 q 543 944 443 944 q 678 925 619 944 q 783 875 738 906 l 813 931 l 861 931 q 878 794 867 860 q 903 663 889 728 l 857 649 q 772 797 825 744 q 657 869 718 849 q 539 889 596 889 q 358 835 433 889 q 242 685 282 781 q 201 468 201 590 q 241 251 201 346 q 353 102 281 156 q 526 49 426 49 q 656 78 599 49 q 746 165 713 107 q 779 308 779 222 l 779 389 l 772 396 l 661 396 l 661 444 m 524 -83 q 586 -109 563 -83 q 610 -186 610 -135 q 574 -308 610 -256 q 501 -396 538 -361 l 464 -364 q 515 -303 492 -337 q 539 -235 539 -269 q 528 -236 533 -236 q 519 -236 524 -236 q 466 -213 489 -236 q 443 -160 443 -190 q 465 -106 443 -129 q 524 -83 488 -83 z "},"Ġ":{"ha":1032,"x_min":69,"x_max":988,"o":"m 661 444 l 988 444 l 988 396 l 904 396 l 897 389 l 897 0 l 849 0 l 794 103 l 788 103 q 710 38 750 64 q 623 -1 671 13 q 514 -14 575 -14 l 513 -14 q 336 22 417 -14 q 196 121 256 57 q 103 271 136 185 q 69 458 69 357 q 106 654 69 565 q 206 808 142 743 q 357 909 271 874 q 543 944 443 944 q 678 925 619 944 q 783 875 738 906 l 813 931 l 861 931 q 878 794 867 860 q 903 663 889 728 l 857 649 q 772 797 825 744 q 657 869 718 849 q 539 889 596 889 q 358 835 433 889 q 242 685 282 781 q 201 468 201 590 q 241 251 201 346 q 353 102 281 156 q 526 49 426 49 q 656 78 599 49 q 746 165 713 107 q 779 308 779 222 l 779 389 l 772 396 l 661 396 l 661 444 m 533 1028 q 480 1051 503 1028 q 457 1104 457 1074 q 480 1158 457 1136 q 533 1181 503 1181 q 588 1158 565 1181 q 610 1104 610 1136 q 588 1051 610 1074 q 533 1028 565 1028 z "},"Ḡ":{"ha":1032,"x_min":69,"x_max":988,"o":"m 661 444 l 988 444 l 988 396 l 904 396 l 897 389 l 897 0 l 849 0 l 794 103 l 788 103 q 710 38 750 64 q 623 -1 671 13 q 514 -14 575 -14 l 513 -14 q 336 22 417 -14 q 196 121 256 57 q 103 271 136 185 q 69 458 69 357 q 106 654 69 565 q 206 808 142 743 q 357 909 271 874 q 543 944 443 944 q 678 925 619 944 q 783 875 738 906 l 813 931 l 861 931 q 878 794 867 860 q 903 663 889 728 l 857 649 q 772 797 825 744 q 657 869 718 849 q 539 889 596 889 q 358 835 433 889 q 242 685 282 781 q 201 468 201 590 q 241 251 201 346 q 353 102 281 156 q 526 49 426 49 q 656 78 599 49 q 746 165 713 107 q 779 308 779 222 l 779 389 l 772 396 l 661 396 l 661 444 m 304 1139 l 763 1139 l 763 1069 l 304 1069 l 304 1139 z "},"H":{"ha":1083,"x_min":69,"x_max":1014,"o":"m 653 0 l 653 49 l 764 49 l 771 56 l 771 875 l 764 882 l 653 882 l 653 931 l 1014 931 l 1014 882 l 903 882 l 896 875 l 896 56 l 903 49 l 1014 49 l 1014 0 l 653 0 m 69 0 l 69 49 l 181 49 l 188 56 l 188 875 l 181 882 l 69 882 l 69 931 l 431 931 l 431 882 l 319 882 l 313 875 l 313 56 l 319 49 l 431 49 l 431 0 l 69 0 m 285 458 l 285 507 l 799 507 l 799 458 l 285 458 z "},"Ħ":{"ha":1083,"x_min":69,"x_max":1014,"o":"m 653 0 l 653 49 l 764 49 l 771 56 l 771 875 l 764 882 l 653 882 l 653 931 l 1014 931 l 1014 882 l 903 882 l 896 875 l 896 56 l 903 49 l 1014 49 l 1014 0 l 653 0 m 69 0 l 69 49 l 181 49 l 188 56 l 188 875 l 181 882 l 69 882 l 69 931 l 431 931 l 431 882 l 319 882 l 313 875 l 313 56 l 319 49 l 431 49 l 431 0 l 69 0 m 285 458 l 285 507 l 799 507 l 799 458 l 285 458 m 69 725 l 1014 725 l 1014 676 l 69 676 l 69 725 z "},"Ḫ":{"ha":1083,"x_min":69,"x_max":1014,"o":"m 653 0 l 653 49 l 764 49 l 771 56 l 771 875 l 764 882 l 653 882 l 653 931 l 1014 931 l 1014 882 l 903 882 l 896 875 l 896 56 l 903 49 l 1014 49 l 1014 0 l 653 0 m 69 0 l 69 49 l 181 49 l 188 56 l 188 875 l 181 882 l 69 882 l 69 931 l 431 931 l 431 882 l 319 882 l 313 875 l 313 56 l 319 49 l 431 49 l 431 0 l 69 0 m 285 458 l 285 507 l 799 507 l 799 458 l 285 458 m 542 -319 q 406 -260 457 -319 q 354 -111 354 -200 l 396 -111 q 421 -174 400 -147 q 474 -215 442 -200 q 542 -229 506 -229 q 610 -215 578 -229 q 663 -174 642 -200 q 688 -111 685 -147 l 729 -111 q 678 -260 729 -200 q 542 -319 626 -319 z "},"Ĥ":{"ha":1083,"x_min":69,"x_max":1014,"o":"m 653 0 l 653 49 l 764 49 l 771 56 l 771 875 l 764 882 l 653 882 l 653 931 l 1014 931 l 1014 882 l 903 882 l 896 875 l 896 56 l 903 49 l 1014 49 l 1014 0 l 653 0 m 69 0 l 69 49 l 181 49 l 188 56 l 188 875 l 181 882 l 69 882 l 69 931 l 431 931 l 431 882 l 319 882 l 313 875 l 313 56 l 319 49 l 431 49 l 431 0 l 69 0 m 285 458 l 285 507 l 799 507 l 799 458 l 285 458 m 700 1014 l 542 1099 l 382 1014 l 340 1014 l 519 1208 l 563 1208 l 742 1014 l 700 1014 z "},"Ḥ":{"ha":1083,"x_min":69,"x_max":1014,"o":"m 653 0 l 653 49 l 764 49 l 771 56 l 771 875 l 764 882 l 653 882 l 653 931 l 1014 931 l 1014 882 l 903 882 l 896 875 l 896 56 l 903 49 l 1014 49 l 1014 0 l 653 0 m 69 0 l 69 49 l 181 49 l 188 56 l 188 875 l 181 882 l 69 882 l 69 931 l 431 931 l 431 882 l 319 882 l 313 875 l 313 56 l 319 49 l 431 49 l 431 0 l 69 0 m 285 458 l 285 507 l 799 507 l 799 458 l 285 458 m 542 -278 q 488 -255 511 -278 q 465 -201 465 -232 q 488 -147 465 -169 q 542 -125 511 -125 q 596 -147 574 -125 q 618 -201 618 -169 q 596 -255 618 -232 q 542 -278 574 -278 z "},"I":{"ha":556,"x_min":97,"x_max":458,"o":"m 458 882 l 347 882 l 340 875 l 340 56 l 347 49 l 458 49 l 458 0 l 97 0 l 97 49 l 208 49 l 215 56 l 215 875 l 208 882 l 97 882 l 97 931 l 458 931 l 458 882 z "},"Í":{"ha":556,"x_min":97,"x_max":478,"o":"m 458 882 l 347 882 l 340 875 l 340 56 l 347 49 l 458 49 l 458 0 l 97 0 l 97 49 l 208 49 l 215 56 l 215 875 l 208 882 l 97 882 l 97 931 l 458 931 l 458 882 m 478 1208 l 285 1014 l 243 1014 l 325 1208 l 478 1208 z "},"Ĭ":{"ha":556,"x_min":90,"x_max":465,"o":"m 458 882 l 347 882 l 340 875 l 340 56 l 347 49 l 458 49 l 458 0 l 97 0 l 97 49 l 208 49 l 215 56 l 215 875 l 208 882 l 97 882 l 97 931 l 458 931 l 458 882 m 424 1208 l 465 1208 q 442 1101 465 1149 q 376 1027 418 1054 q 278 1000 335 1000 q 180 1027 222 1000 q 114 1101 138 1054 q 90 1208 90 1149 l 132 1208 q 157 1146 136 1172 q 210 1105 178 1119 q 278 1090 242 1090 q 346 1105 314 1090 q 399 1146 378 1119 q 424 1208 421 1172 z "},"Ǐ":{"ha":556,"x_min":76,"x_max":478,"o":"m 458 882 l 347 882 l 340 875 l 340 56 l 347 49 l 458 49 l 458 0 l 97 0 l 97 49 l 208 49 l 215 56 l 215 875 l 208 882 l 97 882 l 97 931 l 458 931 l 458 882 m 436 1208 l 478 1208 l 299 1014 l 256 1014 l 76 1208 l 118 1208 l 278 1124 l 436 1208 z "},"Î":{"ha":556,"x_min":76,"x_max":478,"o":"m 458 882 l 347 882 l 340 875 l 340 56 l 347 49 l 458 49 l 458 0 l 97 0 l 97 49 l 208 49 l 215 56 l 215 875 l 208 882 l 97 882 l 97 931 l 458 931 l 458 882 m 436 1014 l 278 1099 l 118 1014 l 76 1014 l 256 1208 l 299 1208 l 478 1014 l 436 1014 z "},"Ȉ":{"ha":556,"x_min":-47,"x_max":458,"o":"m 458 882 l 347 882 l 340 875 l 340 56 l 347 49 l 458 49 l 458 0 l 97 0 l 97 49 l 208 49 l 215 56 l 215 875 l 208 882 l 97 882 l 97 931 l 458 931 l 458 882 m 382 1014 l 189 1208 l 342 1208 l 424 1014 l 382 1014 m 146 1014 l -47 1208 l 106 1208 l 188 1014 l 146 1014 z "},"Ï":{"ha":556,"x_min":49,"x_max":507,"o":"m 458 882 l 347 882 l 340 875 l 340 56 l 347 49 l 458 49 l 458 0 l 97 0 l 97 49 l 208 49 l 215 56 l 215 875 l 208 882 l 97 882 l 97 931 l 458 931 l 458 882 m 125 1028 q 72 1051 94 1028 q 49 1104 49 1074 q 72 1158 49 1136 q 125 1181 94 1181 q 179 1158 157 1181 q 201 1104 201 1136 q 179 1051 201 1074 q 125 1028 157 1028 m 431 1028 q 377 1051 400 1028 q 354 1104 354 1074 q 377 1158 354 1136 q 431 1181 400 1181 q 485 1158 463 1181 q 507 1104 507 1136 q 485 1051 507 1074 q 431 1028 463 1028 z "},"Ḯ":{"ha":556,"x_min":49,"x_max":507,"o":"m 458 882 l 347 882 l 340 875 l 340 56 l 347 49 l 458 49 l 458 0 l 97 0 l 97 49 l 208 49 l 215 56 l 215 875 l 208 882 l 97 882 l 97 931 l 458 931 l 458 882 m 125 1028 q 72 1051 94 1028 q 49 1104 49 1074 q 72 1158 49 1136 q 125 1181 94 1181 q 179 1158 157 1181 q 201 1104 201 1136 q 179 1051 201 1074 q 125 1028 157 1028 m 431 1028 q 377 1051 400 1028 q 354 1104 354 1074 q 377 1158 354 1136 q 431 1181 400 1181 q 485 1158 463 1181 q 507 1104 507 1136 q 485 1051 507 1074 q 431 1028 463 1028 m 478 1403 l 285 1208 l 243 1208 l 325 1403 l 478 1403 z "},"İ":{"ha":556,"x_min":97,"x_max":458,"o":"m 458 882 l 347 882 l 340 875 l 340 56 l 347 49 l 458 49 l 458 0 l 97 0 l 97 49 l 208 49 l 215 56 l 215 875 l 208 882 l 97 882 l 97 931 l 458 931 l 458 882 m 278 1028 q 224 1051 247 1028 q 201 1104 201 1074 q 224 1158 201 1136 q 278 1181 247 1181 q 332 1158 310 1181 q 354 1104 354 1136 q 332 1051 354 1074 q 278 1028 310 1028 z "},"Ị":{"ha":556,"x_min":97,"x_max":458,"o":"m 458 882 l 347 882 l 340 875 l 340 56 l 347 49 l 458 49 l 458 0 l 97 0 l 97 49 l 208 49 l 215 56 l 215 875 l 208 882 l 97 882 l 97 931 l 458 931 l 458 882 m 278 -278 q 224 -255 247 -278 q 201 -201 201 -232 q 224 -147 201 -169 q 278 -125 247 -125 q 332 -147 310 -125 q 354 -201 354 -169 q 332 -255 354 -232 q 278 -278 310 -278 z "},"Ì":{"ha":556,"x_min":92,"x_max":458,"o":"m 458 882 l 347 882 l 340 875 l 340 56 l 347 49 l 458 49 l 458 0 l 97 0 l 97 49 l 208 49 l 215 56 l 215 875 l 208 882 l 97 882 l 97 931 l 458 931 l 458 882 m 92 1208 l 244 1208 l 326 1014 l 285 1014 l 92 1208 z "},"Ỉ":{"ha":556,"x_min":97,"x_max":458,"o":"m 458 882 l 347 882 l 340 875 l 340 56 l 347 49 l 458 49 l 458 0 l 97 0 l 97 49 l 208 49 l 215 56 l 215 875 l 208 882 l 97 882 l 97 931 l 458 931 l 458 882 m 301 1014 l 260 1014 q 272 1057 260 1039 q 297 1093 285 1075 q 308 1136 308 1111 q 297 1169 308 1158 q 265 1179 285 1179 q 228 1169 246 1179 q 196 1144 211 1160 l 174 1167 q 223 1238 193 1214 q 300 1263 253 1263 q 348 1252 324 1263 q 390 1221 372 1242 q 407 1167 407 1200 q 394 1119 407 1138 q 364 1084 382 1100 q 328 1052 346 1068 q 301 1014 311 1036 z "},"Ȋ":{"ha":556,"x_min":90,"x_max":465,"o":"m 458 882 l 347 882 l 340 875 l 340 56 l 347 49 l 458 49 l 458 0 l 97 0 l 97 49 l 208 49 l 215 56 l 215 875 l 208 882 l 97 882 l 97 931 l 458 931 l 458 882 m 424 1000 q 399 1063 421 1036 q 346 1103 378 1089 q 278 1118 314 1118 q 210 1103 242 1118 q 157 1063 178 1089 q 132 1000 136 1036 l 90 1000 q 114 1107 90 1060 q 180 1181 138 1154 q 278 1208 222 1208 q 376 1181 335 1208 q 442 1107 418 1154 q 465 1000 465 1060 l 424 1000 z "},"Ī":{"ha":556,"x_min":49,"x_max":507,"o":"m 458 882 l 347 882 l 340 875 l 340 56 l 347 49 l 458 49 l 458 0 l 97 0 l 97 49 l 208 49 l 215 56 l 215 875 l 208 882 l 97 882 l 97 931 l 458 931 l 458 882 m 49 1139 l 507 1139 l 507 1069 l 49 1069 l 49 1139 z "},"Į":{"ha":556,"x_min":97,"x_max":458,"o":"m 458 882 l 347 882 l 340 875 l 340 56 l 347 49 l 458 49 l 458 0 l 97 0 l 97 49 l 208 49 l 215 56 l 215 875 l 208 882 l 97 882 l 97 931 l 458 931 l 458 882 m 333 28 l 354 0 q 270 -93 303 -42 q 238 -197 238 -144 q 256 -254 238 -231 q 308 -278 274 -278 q 355 -267 332 -278 q 400 -232 378 -256 l 438 -264 q 365 -327 403 -307 q 282 -347 328 -347 q 169 -308 213 -347 q 126 -206 126 -269 q 158 -109 126 -150 q 236 -35 189 -68 q 333 28 283 -1 z "},"Ĩ":{"ha":556,"x_min":35,"x_max":521,"o":"m 458 882 l 347 882 l 340 875 l 340 56 l 347 49 l 458 49 l 458 0 l 97 0 l 97 49 l 208 49 l 215 56 l 215 875 l 208 882 l 97 882 l 97 931 l 458 931 l 458 882 m 482 1181 l 521 1160 q 465 1049 506 1079 q 382 1019 424 1019 q 297 1041 338 1019 q 219 1083 256 1063 q 150 1104 183 1104 q 108 1088 128 1104 q 74 1026 89 1072 l 35 1047 q 90 1156 50 1124 q 172 1188 129 1188 q 256 1167 215 1188 q 335 1124 297 1146 q 406 1103 374 1103 q 447 1119 428 1103 q 482 1181 467 1135 z "},"J":{"ha":589,"x_min":14,"x_max":540,"o":"m 179 882 l 179 931 l 540 931 l 540 882 l 429 882 l 422 875 l 422 208 q 403 100 422 143 q 353 32 385 57 q 285 -3 322 7 q 208 -14 247 -14 q 108 9 151 -14 q 39 70 64 32 q 14 153 14 108 q 40 219 14 194 q 97 243 67 243 q 151 221 129 243 q 174 167 174 199 q 156 118 174 139 q 110 92 138 97 q 53 104 82 86 l 78 126 q 118 67 94 92 q 190 42 142 42 q 263 73 228 42 q 297 181 297 104 l 297 875 l 290 882 l 179 882 z "},"Ĵ":{"ha":589,"x_min":14,"x_max":561,"o":"m 179 882 l 179 931 l 540 931 l 540 882 l 429 882 l 422 875 l 422 208 q 403 100 422 143 q 353 32 385 57 q 285 -3 322 7 q 208 -14 247 -14 q 108 9 151 -14 q 39 70 64 32 q 14 153 14 108 q 40 219 14 194 q 97 243 67 243 q 151 221 129 243 q 174 167 174 199 q 156 118 174 139 q 110 92 138 97 q 53 104 82 86 l 78 126 q 118 67 94 92 q 190 42 142 42 q 263 73 228 42 q 297 181 297 104 l 297 875 l 290 882 l 179 882 m 519 1014 l 361 1099 l 201 1014 l 160 1014 l 339 1208 l 382 1208 l 561 1014 l 519 1014 z "},"K":{"ha":979,"x_min":69,"x_max":979,"o":"m 222 372 l 753 875 l 746 882 l 599 882 l 599 931 l 924 931 l 924 882 l 847 882 l 306 372 l 222 372 m 69 0 l 69 49 l 181 49 l 188 56 l 188 875 l 181 882 l 69 882 l 69 931 l 431 931 l 431 882 l 319 882 l 313 875 l 313 56 l 319 49 l 431 49 l 431 0 l 69 0 m 599 0 l 599 49 l 710 49 l 717 56 l 397 489 l 489 575 l 875 49 l 979 49 l 979 0 l 599 0 z "},"Ķ":{"ha":979,"x_min":69,"x_max":979,"o":"m 222 372 l 753 875 l 746 882 l 599 882 l 599 931 l 924 931 l 924 882 l 847 882 l 306 372 l 222 372 m 69 0 l 69 49 l 181 49 l 188 56 l 188 875 l 181 882 l 69 882 l 69 931 l 431 931 l 431 882 l 319 882 l 313 875 l 313 56 l 319 49 l 431 49 l 431 0 l 69 0 m 599 0 l 599 49 l 710 49 l 717 56 l 397 489 l 489 575 l 875 49 l 979 49 l 979 0 l 599 0 m 494 -83 q 557 -109 533 -83 q 581 -186 581 -135 q 544 -308 581 -256 q 472 -396 508 -361 l 435 -364 q 486 -303 463 -337 q 510 -235 510 -269 q 499 -236 504 -236 q 490 -236 494 -236 q 437 -213 460 -236 q 414 -160 414 -190 q 436 -106 414 -129 q 494 -83 458 -83 z "},"L":{"ha":831,"x_min":69,"x_max":810,"o":"m 761 292 l 810 292 l 744 0 l 69 0 l 69 49 l 181 49 l 188 56 l 188 875 l 181 882 l 69 882 l 69 931 l 431 931 l 431 882 l 319 882 l 313 875 l 313 56 l 319 49 l 481 49 q 667 115 601 49 q 761 292 732 182 z "},"Ǉ":{"ha":1419,"x_min":69,"x_max":1371,"o":"m 761 292 l 810 292 l 744 0 l 69 0 l 69 49 l 181 49 l 188 56 l 188 875 l 181 882 l 69 882 l 69 931 l 431 931 l 431 882 l 319 882 l 313 875 l 313 56 l 319 49 l 481 49 q 667 115 601 49 q 761 292 732 182 m 1010 882 l 1010 931 l 1371 931 l 1371 882 l 1260 882 l 1253 875 l 1253 208 q 1234 100 1253 143 q 1184 32 1215 57 q 1115 -3 1153 7 q 1039 -14 1078 -14 q 938 9 982 -14 q 869 70 894 32 q 844 153 844 108 q 871 219 844 194 q 928 243 897 243 q 982 221 960 243 q 1004 167 1004 199 q 986 118 1004 139 q 940 92 968 97 q 883 104 913 86 l 908 126 q 949 67 925 92 q 1021 42 972 42 q 1093 73 1058 42 q 1128 181 1128 104 l 1128 875 l 1121 882 l 1010 882 z "},"Ĺ":{"ha":831,"x_min":69,"x_max":810,"o":"m 761 292 l 810 292 l 744 0 l 69 0 l 69 49 l 181 49 l 188 56 l 188 875 l 181 882 l 69 882 l 69 931 l 431 931 l 431 882 l 319 882 l 313 875 l 313 56 l 319 49 l 481 49 q 667 115 601 49 q 761 292 732 182 m 450 1208 l 257 1014 l 215 1014 l 297 1208 l 450 1208 z "},"Ľ":{"ha":831,"x_min":69,"x_max":810,"o":"m 761 292 l 810 292 l 744 0 l 69 0 l 69 49 l 181 49 l 188 56 l 188 875 l 181 882 l 69 882 l 69 931 l 431 931 l 431 882 l 319 882 l 313 875 l 313 56 l 319 49 l 481 49 q 667 115 601 49 q 761 292 732 182 m 653 972 q 684 964 669 972 q 707 939 699 956 q 711 899 715 922 l 669 678 l 636 678 l 594 899 q 599 939 590 922 q 622 964 607 956 q 653 972 638 972 z "},"Ļ":{"ha":831,"x_min":69,"x_max":810,"o":"m 761 292 l 810 292 l 744 0 l 69 0 l 69 49 l 181 49 l 188 56 l 188 875 l 181 882 l 69 882 l 69 931 l 431 931 l 431 882 l 319 882 l 313 875 l 313 56 l 319 49 l 481 49 q 667 115 601 49 q 761 292 732 182 m 417 -83 q 479 -109 456 -83 q 503 -186 503 -135 q 467 -308 503 -256 q 394 -396 431 -361 l 357 -364 q 408 -303 385 -337 q 432 -235 432 -269 q 422 -236 426 -236 q 413 -236 417 -236 q 359 -213 382 -236 q 336 -160 336 -190 q 358 -106 336 -129 q 417 -83 381 -83 z "},"Ŀ":{"ha":831,"x_min":69,"x_max":810,"o":"m 761 292 l 810 292 l 744 0 l 69 0 l 69 49 l 181 49 l 188 56 l 188 875 l 181 882 l 69 882 l 69 931 l 431 931 l 431 882 l 319 882 l 313 875 l 313 56 l 319 49 l 481 49 q 667 115 601 49 q 761 292 732 182 m 549 417 q 495 440 518 417 q 472 493 472 463 q 495 547 472 525 q 549 569 518 569 q 603 547 581 569 q 625 493 625 525 q 603 440 625 463 q 549 417 581 417 z "},"Ḷ":{"ha":831,"x_min":69,"x_max":810,"o":"m 761 292 l 810 292 l 744 0 l 69 0 l 69 49 l 181 49 l 188 56 l 188 875 l 181 882 l 69 882 l 69 931 l 431 931 l 431 882 l 319 882 l 313 875 l 313 56 l 319 49 l 481 49 q 667 115 601 49 q 761 292 732 182 m 413 -278 q 359 -255 382 -278 q 336 -201 336 -232 q 359 -147 336 -169 q 413 -125 382 -125 q 467 -147 444 -125 q 489 -201 489 -169 q 467 -255 489 -232 q 413 -278 444 -278 z "},"ǈ":{"ha":1261,"x_min":69,"x_max":1122,"o":"m 761 292 l 810 292 l 744 0 l 69 0 l 69 49 l 181 49 l 188 56 l 188 875 l 181 882 l 69 882 l 69 931 l 431 931 l 431 882 l 319 882 l 313 875 l 313 56 l 319 49 l 481 49 q 667 115 601 49 q 761 292 732 182 m 913 -361 q 828 -339 858 -361 q 787 -288 799 -317 q 775 -240 775 -260 q 795 -185 775 -207 q 844 -164 815 -164 q 894 -184 874 -164 q 914 -233 914 -204 q 894 -278 914 -261 q 847 -297 874 -296 q 871 -313 857 -307 q 906 -319 885 -319 q 947 -310 929 -319 q 975 -282 964 -301 q 992 -231 986 -262 q 997 -157 997 -200 l 997 583 l 990 590 l 886 590 l 886 639 q 958 640 922 639 q 1029 642 993 640 q 1101 646 1065 643 l 1108 639 l 1108 -89 q 1088 -224 1108 -161 q 1025 -324 1068 -286 q 913 -361 982 -361 m 1046 792 q 992 815 1015 792 q 969 868 969 838 q 992 922 969 900 q 1046 944 1015 944 q 1100 922 1078 944 q 1122 868 1122 900 q 1100 815 1122 838 q 1046 792 1078 792 z "},"Ḻ":{"ha":831,"x_min":69,"x_max":810,"o":"m 761 292 l 810 292 l 744 0 l 69 0 l 69 49 l 181 49 l 188 56 l 188 875 l 181 882 l 69 882 l 69 931 l 431 931 l 431 882 l 319 882 l 313 875 l 313 56 l 319 49 l 481 49 q 667 115 601 49 q 761 292 732 182 m 211 -222 l 211 -153 l 614 -153 l 614 -222 l 211 -222 z "},"Ł":{"ha":858,"x_min":56,"x_max":838,"o":"m 789 292 l 838 292 l 772 0 l 97 0 l 97 49 l 208 49 l 215 56 l 215 875 l 208 882 l 97 882 l 97 931 l 458 931 l 458 882 l 347 882 l 340 875 l 340 56 l 347 49 l 508 49 q 694 115 629 49 q 789 292 760 182 m 56 272 l 56 331 l 292 463 l 292 449 l 632 639 l 632 581 l 292 390 l 292 404 l 56 272 z "},"M":{"ha":1264,"x_min":69,"x_max":1194,"o":"m 556 0 l 257 768 l 250 768 l 188 875 l 181 882 l 69 882 l 69 931 l 333 931 l 638 146 l 644 146 l 951 931 l 951 733 l 944 733 l 660 0 l 556 0 m 69 0 l 69 49 l 181 49 l 188 56 l 188 875 l 250 768 l 250 56 l 257 49 l 368 49 l 368 0 l 69 0 m 833 0 l 833 49 l 944 49 l 951 56 l 951 931 l 1194 931 l 1194 882 l 1083 882 l 1076 875 l 1076 56 l 1083 49 l 1194 49 l 1194 0 l 833 0 z "},"Ṃ":{"ha":1264,"x_min":69,"x_max":1194,"o":"m 556 0 l 257 768 l 250 768 l 188 875 l 181 882 l 69 882 l 69 931 l 333 931 l 638 146 l 644 146 l 951 931 l 951 733 l 944 733 l 660 0 l 556 0 m 69 0 l 69 49 l 181 49 l 188 56 l 188 875 l 250 768 l 250 56 l 257 49 l 368 49 l 368 0 l 69 0 m 833 0 l 833 49 l 944 49 l 951 56 l 951 931 l 1194 931 l 1194 882 l 1083 882 l 1076 875 l 1076 56 l 1083 49 l 1194 49 l 1194 0 l 833 0 m 632 -278 q 578 -255 601 -278 q 556 -201 556 -232 q 578 -147 556 -169 q 632 -125 601 -125 q 686 -147 664 -125 q 708 -201 708 -169 q 686 -255 708 -232 q 632 -278 664 -278 z "},"N":{"ha":1049,"x_min":69,"x_max":1000,"o":"m 792 0 l 257 760 l 250 760 l 188 875 l 181 882 l 69 882 l 69 931 l 292 931 l 826 171 l 833 171 l 833 0 l 792 0 m 69 0 l 69 49 l 181 49 l 188 56 l 188 875 l 250 760 l 250 56 l 257 49 l 368 49 l 368 0 l 69 0 m 1000 931 l 1000 882 l 903 882 l 896 875 l 896 0 l 833 0 l 833 875 l 826 882 l 715 882 l 715 931 l 1000 931 z "},"Ǌ":{"ha":1638,"x_min":69,"x_max":1589,"o":"m 792 0 l 257 760 l 250 760 l 188 875 l 181 882 l 69 882 l 69 931 l 292 931 l 826 171 l 833 171 l 833 0 l 792 0 m 69 0 l 69 49 l 181 49 l 188 56 l 188 875 l 250 760 l 250 56 l 257 49 l 368 49 l 368 0 l 69 0 m 1000 931 l 1000 882 l 903 882 l 896 875 l 896 0 l 833 0 l 833 875 l 826 882 l 715 882 l 715 931 l 1000 931 m 1228 882 l 1228 931 l 1589 931 l 1589 882 l 1478 882 l 1471 875 l 1471 208 q 1452 100 1471 143 q 1402 32 1433 57 q 1333 -3 1371 7 q 1257 -14 1296 -14 q 1156 9 1200 -14 q 1088 70 1113 32 q 1063 153 1063 108 q 1089 219 1063 194 q 1146 243 1115 243 q 1200 221 1178 243 q 1222 167 1222 199 q 1204 118 1222 139 q 1158 92 1186 97 q 1101 104 1131 86 l 1126 126 q 1167 67 1143 92 q 1239 42 1190 42 q 1311 73 1276 42 q 1346 181 1346 104 l 1346 875 l 1339 882 l 1228 882 z "},"Ń":{"ha":1049,"x_min":69,"x_max":1000,"o":"m 792 0 l 257 760 l 250 760 l 188 875 l 181 882 l 69 882 l 69 931 l 292 931 l 826 171 l 833 171 l 833 0 l 792 0 m 69 0 l 69 49 l 181 49 l 188 56 l 188 875 l 250 760 l 250 56 l 257 49 l 368 49 l 368 0 l 69 0 m 1000 931 l 1000 882 l 903 882 l 896 875 l 896 0 l 833 0 l 833 875 l 826 882 l 715 882 l 715 931 l 1000 931 m 732 1208 l 539 1014 l 497 1014 l 579 1208 l 732 1208 z "},"Ň":{"ha":1049,"x_min":69,"x_max":1000,"o":"m 792 0 l 257 760 l 250 760 l 188 875 l 181 882 l 69 882 l 69 931 l 292 931 l 826 171 l 833 171 l 833 0 l 792 0 m 69 0 l 69 49 l 181 49 l 188 56 l 188 875 l 250 760 l 250 56 l 257 49 l 368 49 l 368 0 l 69 0 m 1000 931 l 1000 882 l 903 882 l 896 875 l 896 0 l 833 0 l 833 875 l 826 882 l 715 882 l 715 931 l 1000 931 m 690 1208 l 732 1208 l 553 1014 l 510 1014 l 331 1208 l 372 1208 l 532 1124 l 690 1208 z "},"Ņ":{"ha":1049,"x_min":69,"x_max":1000,"o":"m 792 0 l 257 760 l 250 760 l 188 875 l 181 882 l 69 882 l 69 931 l 292 931 l 826 171 l 833 171 l 833 0 l 792 0 m 69 0 l 69 49 l 181 49 l 188 56 l 188 875 l 250 760 l 250 56 l 257 49 l 368 49 l 368 0 l 69 0 m 1000 931 l 1000 882 l 903 882 l 896 875 l 896 0 l 833 0 l 833 875 l 826 882 l 715 882 l 715 931 l 1000 931 m 536 -83 q 599 -109 575 -83 q 622 -186 622 -135 q 586 -308 622 -256 q 514 -396 550 -361 l 476 -364 q 528 -303 504 -337 q 551 -235 551 -269 q 541 -236 546 -236 q 532 -236 536 -236 q 478 -213 501 -236 q 456 -160 456 -190 q 478 -106 456 -129 q 536 -83 500 -83 z "},"Ṅ":{"ha":1049,"x_min":69,"x_max":1000,"o":"m 792 0 l 257 760 l 250 760 l 188 875 l 181 882 l 69 882 l 69 931 l 292 931 l 826 171 l 833 171 l 833 0 l 792 0 m 69 0 l 69 49 l 181 49 l 188 56 l 188 875 l 250 760 l 250 56 l 257 49 l 368 49 l 368 0 l 69 0 m 1000 931 l 1000 882 l 903 882 l 896 875 l 896 0 l 833 0 l 833 875 l 826 882 l 715 882 l 715 931 l 1000 931 m 532 1028 q 478 1051 501 1028 q 456 1104 456 1074 q 478 1158 456 1136 q 532 1181 501 1181 q 586 1158 564 1181 q 608 1104 608 1136 q 586 1051 608 1074 q 532 1028 564 1028 z "},"Ṇ":{"ha":1049,"x_min":69,"x_max":1000,"o":"m 792 0 l 257 760 l 250 760 l 188 875 l 181 882 l 69 882 l 69 931 l 292 931 l 826 171 l 833 171 l 833 0 l 792 0 m 69 0 l 69 49 l 181 49 l 188 56 l 188 875 l 250 760 l 250 56 l 257 49 l 368 49 l 368 0 l 69 0 m 1000 931 l 1000 882 l 903 882 l 896 875 l 896 0 l 833 0 l 833 875 l 826 882 l 715 882 l 715 931 l 1000 931 m 532 -278 q 478 -255 501 -278 q 456 -201 456 -232 q 478 -147 456 -169 q 532 -125 501 -125 q 586 -147 564 -125 q 608 -201 608 -169 q 586 -255 608 -232 q 532 -278 564 -278 z "},"Ŋ":{"ha":1049,"x_min":69,"x_max":1000,"o":"m 69 0 l 69 49 l 181 49 l 188 56 l 188 875 l 181 882 l 69 882 l 69 931 l 292 931 l 826 171 l 833 171 l 833 875 l 826 882 l 715 882 l 715 931 l 1000 931 l 1000 882 l 903 882 l 896 875 l 896 -139 q 877 -247 896 -204 q 827 -315 858 -290 q 758 -351 796 -340 q 682 -361 721 -361 q 581 -338 625 -361 q 513 -277 538 -315 q 488 -194 488 -239 q 514 -128 488 -153 q 571 -104 540 -104 q 625 -126 603 -104 q 647 -181 647 -149 q 625 -234 647 -211 q 571 -257 603 -257 q 608 -292 586 -279 q 664 -306 629 -306 q 736 -274 701 -306 q 771 -167 771 -243 l 771 29 l 257 760 l 250 760 l 250 56 l 257 49 l 368 49 l 368 0 l 69 0 z "},"ǋ":{"ha":1479,"x_min":69,"x_max":1340,"o":"m 792 0 l 257 760 l 250 760 l 188 875 l 181 882 l 69 882 l 69 931 l 292 931 l 826 171 l 833 171 l 833 0 l 792 0 m 69 0 l 69 49 l 181 49 l 188 56 l 188 875 l 250 760 l 250 56 l 257 49 l 368 49 l 368 0 l 69 0 m 1000 931 l 1000 882 l 903 882 l 896 875 l 896 0 l 833 0 l 833 875 l 826 882 l 715 882 l 715 931 l 1000 931 m 1131 -361 q 1047 -339 1076 -361 q 1005 -288 1017 -317 q 993 -240 993 -260 q 1013 -185 993 -207 q 1063 -164 1033 -164 q 1112 -184 1092 -164 q 1132 -233 1132 -204 q 1112 -278 1132 -261 q 1065 -297 1092 -296 q 1089 -313 1075 -307 q 1124 -319 1103 -319 q 1165 -310 1147 -319 q 1193 -282 1182 -301 q 1210 -231 1204 -262 q 1215 -157 1215 -200 l 1215 583 l 1208 590 l 1104 590 l 1104 639 q 1176 640 1140 639 q 1247 642 1211 640 q 1319 646 1283 643 l 1326 639 l 1326 -89 q 1306 -224 1326 -161 q 1243 -324 1286 -286 q 1131 -361 1200 -361 m 1264 792 q 1210 815 1233 792 q 1188 868 1188 838 q 1210 922 1188 900 q 1264 944 1233 944 q 1318 922 1296 944 q 1340 868 1340 900 q 1318 815 1340 838 q 1264 792 1296 792 z "},"Ṉ":{"ha":1049,"x_min":69,"x_max":1000,"o":"m 792 0 l 257 760 l 250 760 l 188 875 l 181 882 l 69 882 l 69 931 l 292 931 l 826 171 l 833 171 l 833 0 l 792 0 m 69 0 l 69 49 l 181 49 l 188 56 l 188 875 l 250 760 l 250 56 l 257 49 l 368 49 l 368 0 l 69 0 m 1000 931 l 1000 882 l 903 882 l 896 875 l 896 0 l 833 0 l 833 875 l 826 882 l 715 882 l 715 931 l 1000 931 m 331 -222 l 331 -153 l 733 -153 l 733 -222 l 331 -222 z "},"Ñ":{"ha":1049,"x_min":69,"x_max":1000,"o":"m 792 0 l 257 760 l 250 760 l 188 875 l 181 882 l 69 882 l 69 931 l 292 931 l 826 171 l 833 171 l 833 0 l 792 0 m 69 0 l 69 49 l 181 49 l 188 56 l 188 875 l 250 760 l 250 56 l 257 49 l 368 49 l 368 0 l 69 0 m 1000 931 l 1000 882 l 903 882 l 896 875 l 896 0 l 833 0 l 833 875 l 826 882 l 715 882 l 715 931 l 1000 931 m 736 1181 l 775 1160 q 719 1049 760 1079 q 636 1019 678 1019 q 551 1041 592 1019 q 474 1083 510 1063 q 404 1104 438 1104 q 363 1088 382 1104 q 328 1026 343 1072 l 289 1047 q 344 1156 304 1124 q 426 1188 383 1188 q 510 1167 469 1188 q 590 1124 551 1146 q 660 1103 628 1103 q 701 1119 682 1103 q 736 1181 721 1135 z "},"O":{"ha":1028,"x_min":69,"x_max":958,"o":"m 514 944 q 742 883 642 944 q 901 714 843 822 q 958 465 958 606 q 924 275 958 363 q 827 123 889 188 q 685 22 765 58 q 514 -14 604 -14 q 285 47 386 -14 q 127 217 185 108 q 69 465 69 325 q 104 656 69 568 q 201 808 139 743 q 343 908 263 872 q 514 944 424 944 m 528 42 q 690 95 624 42 q 792 244 757 149 q 826 465 826 339 q 790 682 826 586 q 680 833 753 778 q 500 889 607 889 q 338 835 406 889 q 236 687 271 782 q 201 465 201 592 q 238 249 201 344 q 348 97 275 153 q 528 42 421 42 z "},"Ó":{"ha":1028,"x_min":69,"x_max":958,"o":"m 514 944 q 742 883 642 944 q 901 714 843 822 q 958 465 958 606 q 924 275 958 363 q 827 123 889 188 q 685 22 765 58 q 514 -14 604 -14 q 285 47 386 -14 q 127 217 185 108 q 69 465 69 325 q 104 656 69 568 q 201 808 139 743 q 343 908 263 872 q 514 944 424 944 m 528 42 q 690 95 624 42 q 792 244 757 149 q 826 465 826 339 q 790 682 826 586 q 680 833 753 778 q 500 889 607 889 q 338 835 406 889 q 236 687 271 782 q 201 465 201 592 q 238 249 201 344 q 348 97 275 153 q 528 42 421 42 m 714 1208 l 521 1014 l 479 1014 l 561 1208 l 714 1208 z "},"Ŏ":{"ha":1028,"x_min":69,"x_max":958,"o":"m 514 944 q 742 883 642 944 q 901 714 843 822 q 958 465 958 606 q 924 275 958 363 q 827 123 889 188 q 685 22 765 58 q 514 -14 604 -14 q 285 47 386 -14 q 127 217 185 108 q 69 465 69 325 q 104 656 69 568 q 201 808 139 743 q 343 908 263 872 q 514 944 424 944 m 528 42 q 690 95 624 42 q 792 244 757 149 q 826 465 826 339 q 790 682 826 586 q 680 833 753 778 q 500 889 607 889 q 338 835 406 889 q 236 687 271 782 q 201 465 201 592 q 238 249 201 344 q 348 97 275 153 q 528 42 421 42 m 660 1208 l 701 1208 q 678 1101 701 1149 q 613 1027 654 1054 q 514 1000 571 1000 q 416 1027 458 1000 q 350 1101 374 1054 q 326 1208 326 1149 l 368 1208 q 393 1146 372 1172 q 446 1105 414 1119 q 514 1090 478 1090 q 582 1105 550 1090 q 635 1146 614 1119 q 660 1208 657 1172 z "},"Ǒ":{"ha":1028,"x_min":69,"x_max":958,"o":"m 514 944 q 742 883 642 944 q 901 714 843 822 q 958 465 958 606 q 924 275 958 363 q 827 123 889 188 q 685 22 765 58 q 514 -14 604 -14 q 285 47 386 -14 q 127 217 185 108 q 69 465 69 325 q 104 656 69 568 q 201 808 139 743 q 343 908 263 872 q 514 944 424 944 m 528 42 q 690 95 624 42 q 792 244 757 149 q 826 465 826 339 q 790 682 826 586 q 680 833 753 778 q 500 889 607 889 q 338 835 406 889 q 236 687 271 782 q 201 465 201 592 q 238 249 201 344 q 348 97 275 153 q 528 42 421 42 m 672 1208 l 714 1208 l 535 1014 l 492 1014 l 313 1208 l 354 1208 l 514 1124 l 672 1208 z "},"Ô":{"ha":1028,"x_min":69,"x_max":958,"o":"m 514 944 q 742 883 642 944 q 901 714 843 822 q 958 465 958 606 q 924 275 958 363 q 827 123 889 188 q 685 22 765 58 q 514 -14 604 -14 q 285 47 386 -14 q 127 217 185 108 q 69 465 69 325 q 104 656 69 568 q 201 808 139 743 q 343 908 263 872 q 514 944 424 944 m 528 42 q 690 95 624 42 q 792 244 757 149 q 826 465 826 339 q 790 682 826 586 q 680 833 753 778 q 500 889 607 889 q 338 835 406 889 q 236 687 271 782 q 201 465 201 592 q 238 249 201 344 q 348 97 275 153 q 528 42 421 42 m 672 1014 l 514 1099 l 354 1014 l 313 1014 l 492 1208 l 535 1208 l 714 1014 l 672 1014 z "},"Ố":{"ha":1028,"x_min":69,"x_max":958,"o":"m 514 944 q 742 883 642 944 q 901 714 843 822 q 958 465 958 606 q 924 275 958 363 q 827 123 889 188 q 685 22 765 58 q 514 -14 604 -14 q 285 47 386 -14 q 127 217 185 108 q 69 465 69 325 q 104 656 69 568 q 201 808 139 743 q 343 908 263 872 q 514 944 424 944 m 528 42 q 690 95 624 42 q 792 244 757 149 q 826 465 826 339 q 790 682 826 586 q 680 833 753 778 q 500 889 607 889 q 338 835 406 889 q 236 687 271 782 q 201 465 201 592 q 238 249 201 344 q 348 97 275 153 q 528 42 421 42 m 313 1014 l 492 1208 l 535 1208 l 714 1014 l 672 1014 l 458 1128 l 569 1128 l 354 1014 l 313 1014 m 632 1153 l 714 1347 l 867 1347 l 674 1153 l 632 1153 z "},"Ộ":{"ha":1028,"x_min":69,"x_max":958,"o":"m 514 944 q 742 883 642 944 q 901 714 843 822 q 958 465 958 606 q 924 275 958 363 q 827 123 889 188 q 685 22 765 58 q 514 -14 604 -14 q 285 47 386 -14 q 127 217 185 108 q 69 465 69 325 q 104 656 69 568 q 201 808 139 743 q 343 908 263 872 q 514 944 424 944 m 528 42 q 690 95 624 42 q 792 244 757 149 q 826 465 826 339 q 790 682 826 586 q 680 833 753 778 q 500 889 607 889 q 338 835 406 889 q 236 687 271 782 q 201 465 201 592 q 238 249 201 344 q 348 97 275 153 q 528 42 421 42 m 514 -278 q 460 -255 483 -278 q 438 -201 438 -232 q 460 -147 438 -169 q 514 -125 483 -125 q 568 -147 546 -125 q 590 -201 590 -169 q 568 -255 590 -232 q 514 -278 546 -278 m 672 1014 l 514 1099 l 354 1014 l 313 1014 l 492 1208 l 535 1208 l 714 1014 l 672 1014 z "},"Ồ":{"ha":1028,"x_min":69,"x_max":958,"o":"m 514 944 q 742 883 642 944 q 901 714 843 822 q 958 465 958 606 q 924 275 958 363 q 827 123 889 188 q 685 22 765 58 q 514 -14 604 -14 q 285 47 386 -14 q 127 217 185 108 q 69 465 69 325 q 104 656 69 568 q 201 808 139 743 q 343 908 263 872 q 514 944 424 944 m 528 42 q 690 95 624 42 q 792 244 757 149 q 826 465 826 339 q 790 682 826 586 q 680 833 753 778 q 500 889 607 889 q 338 835 406 889 q 236 687 271 782 q 201 465 201 592 q 238 249 201 344 q 348 97 275 153 q 528 42 421 42 m 313 1014 l 492 1208 l 535 1208 l 714 1014 l 672 1014 l 458 1128 l 569 1128 l 354 1014 l 313 1014 m 728 1153 l 535 1347 l 688 1347 l 769 1153 l 728 1153 z "},"Ổ":{"ha":1028,"x_min":69,"x_max":958,"o":"m 514 944 q 742 883 642 944 q 901 714 843 822 q 958 465 958 606 q 924 275 958 363 q 827 123 889 188 q 685 22 765 58 q 514 -14 604 -14 q 285 47 386 -14 q 127 217 185 108 q 69 465 69 325 q 104 656 69 568 q 201 808 139 743 q 343 908 263 872 q 514 944 424 944 m 528 42 q 690 95 624 42 q 792 244 757 149 q 826 465 826 339 q 790 682 826 586 q 680 833 753 778 q 500 889 607 889 q 338 835 406 889 q 236 687 271 782 q 201 465 201 592 q 238 249 201 344 q 348 97 275 153 q 528 42 421 42 m 313 1014 l 492 1208 l 535 1208 l 714 1014 l 672 1014 l 458 1128 l 569 1128 l 354 1014 l 313 1014 m 649 1153 q 661 1196 649 1178 q 685 1232 674 1214 q 697 1275 697 1250 q 685 1308 697 1297 q 654 1318 674 1318 q 617 1308 635 1318 q 585 1283 600 1299 l 563 1306 q 612 1377 582 1353 q 689 1401 642 1401 q 737 1391 713 1401 q 778 1360 761 1381 q 796 1306 796 1339 q 783 1258 796 1276 q 753 1223 771 1239 q 717 1191 735 1207 q 690 1153 700 1175 l 649 1153 z "},"Ỗ":{"ha":1028,"x_min":69,"x_max":958,"o":"m 514 944 q 742 883 642 944 q 901 714 843 822 q 958 465 958 606 q 924 275 958 363 q 827 123 889 188 q 685 22 765 58 q 514 -14 604 -14 q 285 47 386 -14 q 127 217 185 108 q 69 465 69 325 q 104 656 69 568 q 201 808 139 743 q 343 908 263 872 q 514 944 424 944 m 528 42 q 690 95 624 42 q 792 244 757 149 q 826 465 826 339 q 790 682 826 586 q 680 833 753 778 q 500 889 607 889 q 338 835 406 889 q 236 687 271 782 q 201 465 201 592 q 238 249 201 344 q 348 97 275 153 q 528 42 421 42 m 618 1242 q 533 1263 574 1242 q 456 1306 492 1285 q 386 1326 419 1326 q 344 1310 364 1326 q 310 1249 325 1294 l 271 1269 q 326 1378 286 1346 q 408 1410 365 1410 q 492 1389 451 1410 q 572 1347 533 1368 q 642 1325 610 1325 q 683 1341 664 1325 q 718 1403 703 1357 l 757 1382 q 701 1272 742 1301 q 618 1242 660 1242 m 313 1014 l 492 1208 l 535 1208 l 714 1014 l 672 1014 l 458 1128 l 569 1128 l 354 1014 l 313 1014 z "},"Ȍ":{"ha":1028,"x_min":69,"x_max":958,"o":"m 514 944 q 742 883 642 944 q 901 714 843 822 q 958 465 958 606 q 924 275 958 363 q 827 123 889 188 q 685 22 765 58 q 514 -14 604 -14 q 285 47 386 -14 q 127 217 185 108 q 69 465 69 325 q 104 656 69 568 q 201 808 139 743 q 343 908 263 872 q 514 944 424 944 m 528 42 q 690 95 624 42 q 792 244 757 149 q 826 465 826 339 q 790 682 826 586 q 680 833 753 778 q 500 889 607 889 q 338 835 406 889 q 236 687 271 782 q 201 465 201 592 q 238 249 201 344 q 348 97 275 153 q 528 42 421 42 m 618 1014 l 425 1208 l 578 1208 l 660 1014 l 618 1014 m 382 1014 l 189 1208 l 342 1208 l 424 1014 l 382 1014 z "},"Ö":{"ha":1028,"x_min":69,"x_max":958,"o":"m 514 944 q 742 883 642 944 q 901 714 843 822 q 958 465 958 606 q 924 275 958 363 q 827 123 889 188 q 685 22 765 58 q 514 -14 604 -14 q 285 47 386 -14 q 127 217 185 108 q 69 465 69 325 q 104 656 69 568 q 201 808 139 743 q 343 908 263 872 q 514 944 424 944 m 528 42 q 690 95 624 42 q 792 244 757 149 q 826 465 826 339 q 790 682 826 586 q 680 833 753 778 q 500 889 607 889 q 338 835 406 889 q 236 687 271 782 q 201 465 201 592 q 238 249 201 344 q 348 97 275 153 q 528 42 421 42 m 361 1028 q 308 1051 331 1028 q 285 1104 285 1074 q 308 1158 285 1136 q 361 1181 331 1181 q 415 1158 393 1181 q 438 1104 438 1136 q 415 1051 438 1074 q 361 1028 393 1028 m 667 1028 q 613 1051 636 1028 q 590 1104 590 1074 q 613 1158 590 1136 q 667 1181 636 1181 q 721 1158 699 1181 q 743 1104 743 1136 q 721 1051 743 1074 q 667 1028 699 1028 z "},"Ȫ":{"ha":1028,"x_min":69,"x_max":958,"o":"m 514 944 q 742 883 642 944 q 901 714 843 822 q 958 465 958 606 q 924 275 958 363 q 827 123 889 188 q 685 22 765 58 q 514 -14 604 -14 q 285 47 386 -14 q 127 217 185 108 q 69 465 69 325 q 104 656 69 568 q 201 808 139 743 q 343 908 263 872 q 514 944 424 944 m 528 42 q 690 95 624 42 q 792 244 757 149 q 826 465 826 339 q 790 682 826 586 q 680 833 753 778 q 500 889 607 889 q 338 835 406 889 q 236 687 271 782 q 201 465 201 592 q 238 249 201 344 q 348 97 275 153 q 528 42 421 42 m 361 1028 q 308 1051 331 1028 q 285 1104 285 1074 q 308 1158 285 1136 q 361 1181 331 1181 q 415 1158 393 1181 q 438 1104 438 1136 q 415 1051 438 1074 q 361 1028 393 1028 m 667 1028 q 613 1051 636 1028 q 590 1104 590 1074 q 613 1158 590 1136 q 667 1181 636 1181 q 721 1158 699 1181 q 743 1104 743 1136 q 721 1051 743 1074 q 667 1028 699 1028 m 285 1333 l 743 1333 l 743 1264 l 285 1264 l 285 1333 z "},"Ȱ":{"ha":1028,"x_min":69,"x_max":958,"o":"m 514 944 q 742 883 642 944 q 901 714 843 822 q 958 465 958 606 q 924 275 958 363 q 827 123 889 188 q 685 22 765 58 q 514 -14 604 -14 q 285 47 386 -14 q 127 217 185 108 q 69 465 69 325 q 104 656 69 568 q 201 808 139 743 q 343 908 263 872 q 514 944 424 944 m 528 42 q 690 95 624 42 q 792 244 757 149 q 826 465 826 339 q 790 682 826 586 q 680 833 753 778 q 500 889 607 889 q 338 835 406 889 q 236 687 271 782 q 201 465 201 592 q 238 249 201 344 q 348 97 275 153 q 528 42 421 42 m 514 1028 q 460 1051 483 1028 q 438 1104 438 1074 q 460 1158 438 1136 q 514 1181 483 1181 q 568 1158 546 1181 q 590 1104 590 1136 q 568 1051 590 1074 q 514 1028 546 1028 m 285 1361 l 743 1361 l 743 1292 l 285 1292 l 285 1361 z "},"Ọ":{"ha":1028,"x_min":69,"x_max":958,"o":"m 514 944 q 742 883 642 944 q 901 714 843 822 q 958 465 958 606 q 924 275 958 363 q 827 123 889 188 q 685 22 765 58 q 514 -14 604 -14 q 285 47 386 -14 q 127 217 185 108 q 69 465 69 325 q 104 656 69 568 q 201 808 139 743 q 343 908 263 872 q 514 944 424 944 m 528 42 q 690 95 624 42 q 792 244 757 149 q 826 465 826 339 q 790 682 826 586 q 680 833 753 778 q 500 889 607 889 q 338 835 406 889 q 236 687 271 782 q 201 465 201 592 q 238 249 201 344 q 348 97 275 153 q 528 42 421 42 m 514 -278 q 460 -255 483 -278 q 438 -201 438 -232 q 460 -147 438 -169 q 514 -125 483 -125 q 568 -147 546 -125 q 590 -201 590 -169 q 568 -255 590 -232 q 514 -278 546 -278 z "},"Ò":{"ha":1028,"x_min":69,"x_max":958,"o":"m 514 944 q 742 883 642 944 q 901 714 843 822 q 958 465 958 606 q 924 275 958 363 q 827 123 889 188 q 685 22 765 58 q 514 -14 604 -14 q 285 47 386 -14 q 127 217 185 108 q 69 465 69 325 q 104 656 69 568 q 201 808 139 743 q 343 908 263 872 q 514 944 424 944 m 528 42 q 690 95 624 42 q 792 244 757 149 q 826 465 826 339 q 790 682 826 586 q 680 833 753 778 q 500 889 607 889 q 338 835 406 889 q 236 687 271 782 q 201 465 201 592 q 238 249 201 344 q 348 97 275 153 q 528 42 421 42 m 328 1208 l 481 1208 l 563 1014 l 521 1014 l 328 1208 z "},"Ỏ":{"ha":1028,"x_min":69,"x_max":958,"o":"m 514 944 q 742 883 642 944 q 901 714 843 822 q 958 465 958 606 q 924 275 958 363 q 827 123 889 188 q 685 22 765 58 q 514 -14 604 -14 q 285 47 386 -14 q 127 217 185 108 q 69 465 69 325 q 104 656 69 568 q 201 808 139 743 q 343 908 263 872 q 514 944 424 944 m 528 42 q 690 95 624 42 q 792 244 757 149 q 826 465 826 339 q 790 682 826 586 q 680 833 753 778 q 500 889 607 889 q 338 835 406 889 q 236 687 271 782 q 201 465 201 592 q 238 249 201 344 q 348 97 275 153 q 528 42 421 42 m 538 1014 l 496 1014 q 508 1057 496 1039 q 533 1093 521 1075 q 544 1136 544 1111 q 533 1169 544 1158 q 501 1179 521 1179 q 465 1169 482 1179 q 432 1144 447 1160 l 410 1167 q 459 1238 429 1214 q 536 1263 489 1263 q 584 1252 560 1263 q 626 1221 608 1242 q 643 1167 643 1200 q 631 1119 643 1138 q 600 1084 618 1100 q 565 1052 582 1068 q 538 1014 547 1036 z "},"Ơ":{"ha":1028,"x_min":69,"x_max":960,"o":"m 69 465 q 104 656 69 568 q 201 808 139 743 q 343 908 263 872 q 514 944 424 944 q 660 921 592 944 q 785 854 729 897 l 731 863 q 806 864 769 860 q 869 892 843 868 q 900 971 896 917 l 903 922 q 885 918 894 919 q 868 917 875 917 q 808 940 832 917 q 785 1000 785 964 q 808 1060 785 1036 q 868 1083 832 1083 q 931 1061 904 1083 q 958 986 957 1039 q 935 893 960 931 q 869 836 910 856 q 783 813 828 817 l 814 829 q 919 672 881 765 q 958 465 958 579 q 924 275 958 363 q 827 123 889 188 q 685 22 765 58 q 514 -14 604 -14 q 285 47 386 -14 q 127 217 185 108 q 69 465 69 325 m 201 465 q 238 249 201 344 q 348 97 275 153 q 528 42 421 42 q 690 95 624 42 q 792 244 757 149 q 826 465 826 339 q 790 682 826 586 q 680 833 753 778 q 500 889 607 889 q 338 835 406 889 q 236 687 271 782 q 201 465 201 592 z "},"Ớ":{"ha":1028,"x_min":69,"x_max":960,"o":"m 69 465 q 104 656 69 568 q 201 808 139 743 q 343 908 263 872 q 514 944 424 944 q 660 921 592 944 q 785 854 729 897 l 731 863 q 806 864 769 860 q 869 892 843 868 q 900 971 896 917 l 903 922 q 885 918 894 919 q 868 917 875 917 q 808 940 832 917 q 785 1000 785 964 q 808 1060 785 1036 q 868 1083 832 1083 q 931 1061 904 1083 q 958 986 957 1039 q 935 893 960 931 q 869 836 910 856 q 783 813 828 817 l 814 829 q 919 672 881 765 q 958 465 958 579 q 924 275 958 363 q 827 123 889 188 q 685 22 765 58 q 514 -14 604 -14 q 285 47 386 -14 q 127 217 185 108 q 69 465 69 325 m 201 465 q 238 249 201 344 q 348 97 275 153 q 528 42 421 42 q 690 95 624 42 q 792 244 757 149 q 826 465 826 339 q 790 682 826 586 q 680 833 753 778 q 500 889 607 889 q 338 835 406 889 q 236 687 271 782 q 201 465 201 592 m 714 1208 l 521 1014 l 479 1014 l 561 1208 l 714 1208 z "},"Ợ":{"ha":1028,"x_min":69,"x_max":960,"o":"m 69 465 q 104 656 69 568 q 201 808 139 743 q 343 908 263 872 q 514 944 424 944 q 660 921 592 944 q 785 854 729 897 l 731 863 q 806 864 769 860 q 869 892 843 868 q 900 971 896 917 l 903 922 q 885 918 894 919 q 868 917 875 917 q 808 940 832 917 q 785 1000 785 964 q 808 1060 785 1036 q 868 1083 832 1083 q 931 1061 904 1083 q 958 986 957 1039 q 935 893 960 931 q 869 836 910 856 q 783 813 828 817 l 814 829 q 919 672 881 765 q 958 465 958 579 q 924 275 958 363 q 827 123 889 188 q 685 22 765 58 q 514 -14 604 -14 q 285 47 386 -14 q 127 217 185 108 q 69 465 69 325 m 201 465 q 238 249 201 344 q 348 97 275 153 q 528 42 421 42 q 690 95 624 42 q 792 244 757 149 q 826 465 826 339 q 790 682 826 586 q 680 833 753 778 q 500 889 607 889 q 338 835 406 889 q 236 687 271 782 q 201 465 201 592 m 514 -278 q 460 -255 483 -278 q 438 -201 438 -232 q 460 -147 438 -169 q 514 -125 483 -125 q 568 -147 546 -125 q 590 -201 590 -169 q 568 -255 590 -232 q 514 -278 546 -278 z "},"Ờ":{"ha":1028,"x_min":69,"x_max":960,"o":"m 69 465 q 104 656 69 568 q 201 808 139 743 q 343 908 263 872 q 514 944 424 944 q 660 921 592 944 q 785 854 729 897 l 731 863 q 806 864 769 860 q 869 892 843 868 q 900 971 896 917 l 903 922 q 885 918 894 919 q 868 917 875 917 q 808 940 832 917 q 785 1000 785 964 q 808 1060 785 1036 q 868 1083 832 1083 q 931 1061 904 1083 q 958 986 957 1039 q 935 893 960 931 q 869 836 910 856 q 783 813 828 817 l 814 829 q 919 672 881 765 q 958 465 958 579 q 924 275 958 363 q 827 123 889 188 q 685 22 765 58 q 514 -14 604 -14 q 285 47 386 -14 q 127 217 185 108 q 69 465 69 325 m 201 465 q 238 249 201 344 q 348 97 275 153 q 528 42 421 42 q 690 95 624 42 q 792 244 757 149 q 826 465 826 339 q 790 682 826 586 q 680 833 753 778 q 500 889 607 889 q 338 835 406 889 q 236 687 271 782 q 201 465 201 592 m 328 1208 l 481 1208 l 563 1014 l 521 1014 l 328 1208 z "},"Ở":{"ha":1028,"x_min":69,"x_max":960,"o":"m 69 465 q 104 656 69 568 q 201 808 139 743 q 343 908 263 872 q 514 944 424 944 q 660 921 592 944 q 785 854 729 897 l 731 863 q 806 864 769 860 q 869 892 843 868 q 900 971 896 917 l 903 922 q 885 918 894 919 q 868 917 875 917 q 808 940 832 917 q 785 1000 785 964 q 808 1060 785 1036 q 868 1083 832 1083 q 931 1061 904 1083 q 958 986 957 1039 q 935 893 960 931 q 869 836 910 856 q 783 813 828 817 l 814 829 q 919 672 881 765 q 958 465 958 579 q 924 275 958 363 q 827 123 889 188 q 685 22 765 58 q 514 -14 604 -14 q 285 47 386 -14 q 127 217 185 108 q 69 465 69 325 m 201 465 q 238 249 201 344 q 348 97 275 153 q 528 42 421 42 q 690 95 624 42 q 792 244 757 149 q 826 465 826 339 q 790 682 826 586 q 680 833 753 778 q 500 889 607 889 q 338 835 406 889 q 236 687 271 782 q 201 465 201 592 m 538 1014 l 496 1014 q 508 1057 496 1039 q 533 1093 521 1075 q 544 1136 544 1111 q 533 1169 544 1158 q 501 1179 521 1179 q 465 1169 482 1179 q 432 1144 447 1160 l 410 1167 q 459 1238 429 1214 q 536 1263 489 1263 q 584 1252 560 1263 q 626 1221 608 1242 q 643 1167 643 1200 q 631 1119 643 1138 q 600 1084 618 1100 q 565 1052 582 1068 q 538 1014 547 1036 z "},"Ỡ":{"ha":1028,"x_min":69,"x_max":960,"o":"m 69 465 q 104 656 69 568 q 201 808 139 743 q 343 908 263 872 q 514 944 424 944 q 660 921 592 944 q 785 854 729 897 l 731 863 q 806 864 769 860 q 869 892 843 868 q 900 971 896 917 l 903 922 q 885 918 894 919 q 868 917 875 917 q 808 940 832 917 q 785 1000 785 964 q 808 1060 785 1036 q 868 1083 832 1083 q 931 1061 904 1083 q 958 986 957 1039 q 935 893 960 931 q 869 836 910 856 q 783 813 828 817 l 814 829 q 919 672 881 765 q 958 465 958 579 q 924 275 958 363 q 827 123 889 188 q 685 22 765 58 q 514 -14 604 -14 q 285 47 386 -14 q 127 217 185 108 q 69 465 69 325 m 201 465 q 238 249 201 344 q 348 97 275 153 q 528 42 421 42 q 690 95 624 42 q 792 244 757 149 q 826 465 826 339 q 790 682 826 586 q 680 833 753 778 q 500 889 607 889 q 338 835 406 889 q 236 687 271 782 q 201 465 201 592 m 718 1181 l 757 1160 q 701 1049 742 1079 q 618 1019 660 1019 q 533 1041 574 1019 q 456 1083 492 1063 q 386 1104 419 1104 q 344 1088 364 1104 q 310 1026 325 1072 l 271 1047 q 326 1156 286 1124 q 408 1188 365 1188 q 492 1167 451 1188 q 572 1124 533 1146 q 642 1103 610 1103 q 683 1119 664 1103 q 718 1181 703 1135 z "},"Ő":{"ha":1028,"x_min":69,"x_max":958,"o":"m 514 944 q 742 883 642 944 q 901 714 843 822 q 958 465 958 606 q 924 275 958 363 q 827 123 889 188 q 685 22 765 58 q 514 -14 604 -14 q 285 47 386 -14 q 127 217 185 108 q 69 465 69 325 q 104 656 69 568 q 201 808 139 743 q 343 908 263 872 q 514 944 424 944 m 528 42 q 690 95 624 42 q 792 244 757 149 q 826 465 826 339 q 790 682 826 586 q 680 833 753 778 q 500 889 607 889 q 338 835 406 889 q 236 687 271 782 q 201 465 201 592 q 238 249 201 344 q 348 97 275 153 q 528 42 421 42 m 589 1208 l 396 1014 l 354 1014 l 436 1208 l 589 1208 m 797 1208 l 604 1014 l 563 1014 l 644 1208 l 797 1208 z "},"Ȏ":{"ha":1028,"x_min":69,"x_max":958,"o":"m 514 944 q 742 883 642 944 q 901 714 843 822 q 958 465 958 606 q 924 275 958 363 q 827 123 889 188 q 685 22 765 58 q 514 -14 604 -14 q 285 47 386 -14 q 127 217 185 108 q 69 465 69 325 q 104 656 69 568 q 201 808 139 743 q 343 908 263 872 q 514 944 424 944 m 528 42 q 690 95 624 42 q 792 244 757 149 q 826 465 826 339 q 790 682 826 586 q 680 833 753 778 q 500 889 607 889 q 338 835 406 889 q 236 687 271 782 q 201 465 201 592 q 238 249 201 344 q 348 97 275 153 q 528 42 421 42 m 660 1000 q 635 1063 657 1036 q 582 1103 614 1089 q 514 1118 550 1118 q 446 1103 478 1118 q 393 1063 414 1089 q 368 1000 372 1036 l 326 1000 q 350 1107 326 1060 q 416 1181 374 1154 q 514 1208 458 1208 q 613 1181 571 1208 q 678 1107 654 1154 q 701 1000 701 1060 l 660 1000 z "},"Ō":{"ha":1028,"x_min":69,"x_max":958,"o":"m 514 944 q 742 883 642 944 q 901 714 843 822 q 958 465 958 606 q 924 275 958 363 q 827 123 889 188 q 685 22 765 58 q 514 -14 604 -14 q 285 47 386 -14 q 127 217 185 108 q 69 465 69 325 q 104 656 69 568 q 201 808 139 743 q 343 908 263 872 q 514 944 424 944 m 528 42 q 690 95 624 42 q 792 244 757 149 q 826 465 826 339 q 790 682 826 586 q 680 833 753 778 q 500 889 607 889 q 338 835 406 889 q 236 687 271 782 q 201 465 201 592 q 238 249 201 344 q 348 97 275 153 q 528 42 421 42 m 285 1139 l 743 1139 l 743 1069 l 285 1069 l 285 1139 z "},"Ṓ":{"ha":1028,"x_min":69,"x_max":958,"o":"m 514 944 q 742 883 642 944 q 901 714 843 822 q 958 465 958 606 q 924 275 958 363 q 827 123 889 188 q 685 22 765 58 q 514 -14 604 -14 q 285 47 386 -14 q 127 217 185 108 q 69 465 69 325 q 104 656 69 568 q 201 808 139 743 q 343 908 263 872 q 514 944 424 944 m 528 42 q 690 95 624 42 q 792 244 757 149 q 826 465 826 339 q 790 682 826 586 q 680 833 753 778 q 500 889 607 889 q 338 835 406 889 q 236 687 271 782 q 201 465 201 592 q 238 249 201 344 q 348 97 275 153 q 528 42 421 42 m 285 1139 l 743 1139 l 743 1069 l 285 1069 l 285 1139 m 714 1403 l 521 1208 l 479 1208 l 561 1403 l 714 1403 z "},"Ṑ":{"ha":1028,"x_min":69,"x_max":958,"o":"m 514 944 q 742 883 642 944 q 901 714 843 822 q 958 465 958 606 q 924 275 958 363 q 827 123 889 188 q 685 22 765 58 q 514 -14 604 -14 q 285 47 386 -14 q 127 217 185 108 q 69 465 69 325 q 104 656 69 568 q 201 808 139 743 q 343 908 263 872 q 514 944 424 944 m 528 42 q 690 95 624 42 q 792 244 757 149 q 826 465 826 339 q 790 682 826 586 q 680 833 753 778 q 500 889 607 889 q 338 835 406 889 q 236 687 271 782 q 201 465 201 592 q 238 249 201 344 q 348 97 275 153 q 528 42 421 42 m 285 1139 l 743 1139 l 743 1069 l 285 1069 l 285 1139 m 328 1403 l 481 1403 l 563 1208 l 521 1208 l 328 1403 z "},"Ǫ":{"ha":1028,"x_min":69,"x_max":958,"o":"m 514 944 q 742 883 642 944 q 901 714 843 822 q 958 465 958 606 q 924 275 958 363 q 827 123 889 188 q 685 22 765 58 q 514 -14 604 -14 q 285 47 386 -14 q 127 217 185 108 q 69 465 69 325 q 104 656 69 568 q 201 808 139 743 q 343 908 263 872 q 514 944 424 944 m 528 42 q 690 95 624 42 q 792 244 757 149 q 826 465 826 339 q 790 682 826 586 q 680 833 753 778 q 500 889 607 889 q 338 835 406 889 q 236 687 271 782 q 201 465 201 592 q 238 249 201 344 q 348 97 275 153 q 528 42 421 42 m 571 28 l 592 0 q 508 -93 540 -42 q 475 -197 475 -144 q 493 -254 475 -231 q 546 -278 511 -278 q 592 -267 569 -278 q 638 -232 615 -256 l 675 -264 q 603 -327 640 -307 q 519 -347 565 -347 q 407 -308 450 -347 q 364 -206 364 -269 q 395 -109 364 -150 q 474 -35 426 -68 q 571 28 521 -1 z "},"Ø":{"ha":1028,"x_min":69,"x_max":958,"o":"m 310 -139 l 354 14 q 205 110 269 46 q 105 266 140 175 q 69 465 69 357 q 104 656 69 568 q 201 808 139 743 q 343 908 263 872 q 514 944 424 944 q 571 942 543 944 q 625 932 599 939 l 665 1069 l 718 1069 l 674 917 q 824 820 760 885 q 923 665 888 756 q 958 465 958 575 q 924 275 958 363 q 827 123 889 188 q 685 22 765 58 q 514 -14 604 -14 q 458 -10 485 -14 q 403 -1 431 -7 l 363 -139 l 310 -139 m 374 81 l 607 871 q 500 889 561 889 q 338 835 406 889 q 236 687 271 782 q 201 465 201 592 q 245 232 201 335 q 374 81 289 129 m 528 42 q 690 95 624 42 q 792 244 757 149 q 826 465 826 339 q 783 699 826 597 q 654 850 739 801 l 421 60 q 528 42 467 42 z "},"Ǿ":{"ha":1028,"x_min":69,"x_max":958,"o":"m 310 -139 l 354 14 q 205 110 269 46 q 105 266 140 175 q 69 465 69 357 q 104 656 69 568 q 201 808 139 743 q 343 908 263 872 q 514 944 424 944 q 571 942 543 944 q 625 932 599 939 l 665 1069 l 718 1069 l 674 917 q 824 820 760 885 q 923 665 888 756 q 958 465 958 575 q 924 275 958 363 q 827 123 889 188 q 685 22 765 58 q 514 -14 604 -14 q 458 -10 485 -14 q 403 -1 431 -7 l 363 -139 l 310 -139 m 374 81 l 607 871 q 500 889 561 889 q 338 835 406 889 q 236 687 271 782 q 201 465 201 592 q 245 232 201 335 q 374 81 289 129 m 528 42 q 690 95 624 42 q 792 244 757 149 q 826 465 826 339 q 783 699 826 597 q 654 850 739 801 l 421 60 q 528 42 467 42 m 714 1208 l 521 1014 l 479 1014 l 561 1208 l 714 1208 z "},"Õ":{"ha":1028,"x_min":69,"x_max":958,"o":"m 514 944 q 742 883 642 944 q 901 714 843 822 q 958 465 958 606 q 924 275 958 363 q 827 123 889 188 q 685 22 765 58 q 514 -14 604 -14 q 285 47 386 -14 q 127 217 185 108 q 69 465 69 325 q 104 656 69 568 q 201 808 139 743 q 343 908 263 872 q 514 944 424 944 m 528 42 q 690 95 624 42 q 792 244 757 149 q 826 465 826 339 q 790 682 826 586 q 680 833 753 778 q 500 889 607 889 q 338 835 406 889 q 236 687 271 782 q 201 465 201 592 q 238 249 201 344 q 348 97 275 153 q 528 42 421 42 m 718 1181 l 757 1160 q 701 1049 742 1079 q 618 1019 660 1019 q 533 1041 574 1019 q 456 1083 492 1063 q 386 1104 419 1104 q 344 1088 364 1104 q 310 1026 325 1072 l 271 1047 q 326 1156 286 1124 q 408 1188 365 1188 q 492 1167 451 1188 q 572 1124 533 1146 q 642 1103 610 1103 q 683 1119 664 1103 q 718 1181 703 1135 z "},"Ṍ":{"ha":1028,"x_min":69,"x_max":958,"o":"m 514 944 q 742 883 642 944 q 901 714 843 822 q 958 465 958 606 q 924 275 958 363 q 827 123 889 188 q 685 22 765 58 q 514 -14 604 -14 q 285 47 386 -14 q 127 217 185 108 q 69 465 69 325 q 104 656 69 568 q 201 808 139 743 q 343 908 263 872 q 514 944 424 944 m 528 42 q 690 95 624 42 q 792 244 757 149 q 826 465 826 339 q 790 682 826 586 q 680 833 753 778 q 500 889 607 889 q 338 835 406 889 q 236 687 271 782 q 201 465 201 592 q 238 249 201 344 q 348 97 275 153 q 528 42 421 42 m 718 1181 l 757 1160 q 701 1049 742 1079 q 618 1019 660 1019 q 533 1041 574 1019 q 456 1083 492 1063 q 386 1104 419 1104 q 344 1088 364 1104 q 310 1026 325 1072 l 271 1047 q 326 1156 286 1124 q 408 1188 365 1188 q 492 1167 451 1188 q 572 1124 533 1146 q 642 1103 610 1103 q 683 1119 664 1103 q 718 1181 703 1135 m 714 1403 l 521 1208 l 479 1208 l 561 1403 l 714 1403 z "},"Ṏ":{"ha":1028,"x_min":69,"x_max":958,"o":"m 514 944 q 742 883 642 944 q 901 714 843 822 q 958 465 958 606 q 924 275 958 363 q 827 123 889 188 q 685 22 765 58 q 514 -14 604 -14 q 285 47 386 -14 q 127 217 185 108 q 69 465 69 325 q 104 656 69 568 q 201 808 139 743 q 343 908 263 872 q 514 944 424 944 m 528 42 q 690 95 624 42 q 792 244 757 149 q 826 465 826 339 q 790 682 826 586 q 680 833 753 778 q 500 889 607 889 q 338 835 406 889 q 236 687 271 782 q 201 465 201 592 q 238 249 201 344 q 348 97 275 153 q 528 42 421 42 m 718 1181 l 757 1160 q 701 1049 742 1079 q 618 1019 660 1019 q 533 1041 574 1019 q 456 1083 492 1063 q 386 1104 419 1104 q 344 1088 364 1104 q 310 1026 325 1072 l 271 1047 q 326 1156 286 1124 q 408 1188 365 1188 q 492 1167 451 1188 q 572 1124 533 1146 q 642 1103 610 1103 q 683 1119 664 1103 q 718 1181 703 1135 m 361 1222 q 308 1245 331 1222 q 285 1299 285 1268 q 308 1353 285 1331 q 361 1375 331 1375 q 415 1353 393 1375 q 438 1299 438 1331 q 415 1245 438 1268 q 361 1222 393 1222 m 667 1222 q 613 1245 636 1222 q 590 1299 590 1268 q 613 1353 590 1331 q 667 1375 636 1375 q 721 1353 699 1375 q 743 1299 743 1331 q 721 1245 743 1268 q 667 1222 699 1222 z "},"Ȭ":{"ha":1028,"x_min":69,"x_max":958,"o":"m 514 944 q 742 883 642 944 q 901 714 843 822 q 958 465 958 606 q 924 275 958 363 q 827 123 889 188 q 685 22 765 58 q 514 -14 604 -14 q 285 47 386 -14 q 127 217 185 108 q 69 465 69 325 q 104 656 69 568 q 201 808 139 743 q 343 908 263 872 q 514 944 424 944 m 528 42 q 690 95 624 42 q 792 244 757 149 q 826 465 826 339 q 790 682 826 586 q 680 833 753 778 q 500 889 607 889 q 338 835 406 889 q 236 687 271 782 q 201 465 201 592 q 238 249 201 344 q 348 97 275 153 q 528 42 421 42 m 718 1181 l 757 1160 q 701 1049 742 1079 q 618 1019 660 1019 q 533 1041 574 1019 q 456 1083 492 1063 q 386 1104 419 1104 q 344 1088 364 1104 q 310 1026 325 1072 l 271 1047 q 326 1156 286 1124 q 408 1188 365 1188 q 492 1167 451 1188 q 572 1124 533 1146 q 642 1103 610 1103 q 683 1119 664 1103 q 718 1181 703 1135 m 285 1333 l 743 1333 l 743 1264 l 285 1264 l 285 1333 z "},"Œ":{"ha":1440,"x_min":69,"x_max":1385,"o":"m 1336 264 l 1385 264 l 1325 0 l 796 0 q 660 -7 728 0 q 519 -14 593 -14 q 288 47 389 -14 q 128 215 186 108 q 69 460 69 322 q 103 653 69 565 q 199 807 138 742 q 344 908 261 872 q 522 944 426 944 q 615 941 569 944 q 706 934 661 938 q 796 931 751 931 l 1311 931 l 1361 708 l 1315 694 q 1264 808 1296 768 q 1180 865 1232 849 q 1047 882 1128 882 l 872 882 l 865 875 l 865 507 l 1008 507 q 1098 538 1068 507 q 1133 660 1128 568 l 1182 660 l 1182 306 l 1133 306 q 1098 428 1128 397 q 1008 458 1068 458 l 865 458 l 865 56 l 872 49 l 1061 49 q 1244 101 1182 49 q 1336 264 1307 154 m 740 249 l 740 681 q 726 776 740 736 q 685 840 713 815 q 619 877 658 865 q 529 889 581 889 q 342 836 414 889 q 235 690 269 783 q 201 476 201 597 q 239 248 201 346 q 349 96 276 150 q 531 42 422 42 q 642 63 594 42 q 715 129 689 83 q 740 249 740 175 z "},"P":{"ha":847,"x_min":69,"x_max":826,"o":"m 69 0 l 69 49 l 181 49 l 188 56 l 188 875 l 181 882 l 69 882 l 69 931 l 479 931 q 600 919 539 931 q 713 878 661 907 q 795 801 764 850 q 826 678 826 751 q 793 553 826 606 q 707 468 760 501 q 594 419 654 435 q 479 403 533 403 l 250 403 l 313 415 l 313 56 l 319 49 l 486 49 l 486 0 l 69 0 m 313 438 l 250 451 l 451 451 q 574 469 519 451 q 662 533 629 486 q 694 667 694 579 q 661 790 694 743 q 572 860 628 838 q 451 882 517 882 l 319 882 l 313 875 l 313 438 z "},"Þ":{"ha":861,"x_min":69,"x_max":840,"o":"m 69 0 l 69 49 l 181 49 l 188 56 l 188 875 l 181 882 l 69 882 l 69 931 l 431 931 l 431 882 l 319 882 l 313 875 l 313 749 l 250 764 l 451 764 q 585 751 517 764 q 710 708 653 739 q 804 622 768 676 q 840 483 840 568 q 803 344 840 401 q 706 250 765 286 q 578 197 646 214 q 451 181 511 181 l 250 181 l 313 193 l 313 56 l 319 49 l 431 49 l 431 0 l 69 0 m 313 214 l 250 229 l 424 229 q 563 247 499 229 q 668 318 628 265 q 708 472 708 371 q 667 615 708 563 q 561 692 626 668 q 424 715 496 715 l 250 715 l 313 733 l 313 214 z "},"Q":{"ha":1028,"x_min":69,"x_max":958,"o":"m 851 -119 l 889 -151 q 835 -203 865 -183 q 760 -222 806 -222 q 657 -193 700 -222 q 581 -118 614 -164 q 524 -21 549 -72 q 476 76 499 31 q 428 151 453 122 q 374 181 404 181 q 329 165 350 181 q 296 133 308 149 l 258 165 q 312 217 282 197 q 388 236 342 236 q 490 207 447 236 q 566 132 533 178 q 624 35 599 86 q 672 -62 649 -17 q 719 -137 694 -108 q 774 -167 743 -167 q 818 -151 797 -167 q 851 -119 839 -135 m 514 944 q 742 883 642 944 q 901 714 843 822 q 958 465 958 606 q 924 275 958 363 q 827 123 889 188 q 685 22 765 58 q 514 -14 604 -14 q 285 47 386 -14 q 127 217 185 108 q 69 465 69 325 q 104 656 69 568 q 201 808 139 743 q 343 908 263 872 q 514 944 424 944 m 528 42 q 690 95 624 42 q 792 244 757 149 q 826 465 826 339 q 790 682 826 586 q 680 833 753 778 q 500 889 607 889 q 338 835 406 889 q 236 687 271 782 q 201 465 201 592 q 238 249 201 344 q 348 97 275 153 q 528 42 421 42 z "},"R":{"ha":979,"x_min":69,"x_max":979,"o":"m 599 0 l 599 49 l 710 49 l 717 56 l 428 449 l 579 449 l 875 49 l 979 49 l 979 0 l 599 0 m 479 931 q 600 919 539 931 q 713 880 661 907 q 795 807 764 853 q 826 692 826 761 q 793 576 826 625 q 707 494 760 526 q 594 447 654 463 q 479 431 533 431 l 250 431 l 313 493 l 313 56 l 319 49 l 431 49 l 431 0 l 69 0 l 69 49 l 181 49 l 188 56 l 188 875 l 181 882 l 69 882 l 69 931 l 479 931 m 313 417 l 250 479 l 451 479 q 574 496 519 479 q 662 556 629 513 q 694 681 694 600 q 661 794 694 750 q 572 860 628 839 q 451 882 517 882 l 319 882 l 313 875 l 313 417 z "},"Ŕ":{"ha":979,"x_min":69,"x_max":979,"o":"m 599 0 l 599 49 l 710 49 l 717 56 l 428 449 l 579 449 l 875 49 l 979 49 l 979 0 l 599 0 m 479 931 q 600 919 539 931 q 713 880 661 907 q 795 807 764 853 q 826 692 826 761 q 793 576 826 625 q 707 494 760 526 q 594 447 654 463 q 479 431 533 431 l 250 431 l 313 493 l 313 56 l 319 49 l 431 49 l 431 0 l 69 0 l 69 49 l 181 49 l 188 56 l 188 875 l 181 882 l 69 882 l 69 931 l 479 931 m 313 417 l 250 479 l 451 479 q 574 496 519 479 q 662 556 629 513 q 694 681 694 600 q 661 794 694 750 q 572 860 628 839 q 451 882 517 882 l 319 882 l 313 875 l 313 417 m 690 1208 l 497 1014 l 456 1014 l 538 1208 l 690 1208 z "},"Ř":{"ha":979,"x_min":69,"x_max":979,"o":"m 599 0 l 599 49 l 710 49 l 717 56 l 428 449 l 579 449 l 875 49 l 979 49 l 979 0 l 599 0 m 479 931 q 600 919 539 931 q 713 880 661 907 q 795 807 764 853 q 826 692 826 761 q 793 576 826 625 q 707 494 760 526 q 594 447 654 463 q 479 431 533 431 l 250 431 l 313 493 l 313 56 l 319 49 l 431 49 l 431 0 l 69 0 l 69 49 l 181 49 l 188 56 l 188 875 l 181 882 l 69 882 l 69 931 l 479 931 m 313 417 l 250 479 l 451 479 q 574 496 519 479 q 662 556 629 513 q 694 681 694 600 q 661 794 694 750 q 572 860 628 839 q 451 882 517 882 l 319 882 l 313 875 l 313 417 m 649 1208 l 690 1208 l 511 1014 l 468 1014 l 289 1208 l 331 1208 l 490 1124 l 649 1208 z "},"Ŗ":{"ha":979,"x_min":69,"x_max":979,"o":"m 599 0 l 599 49 l 710 49 l 717 56 l 428 449 l 579 449 l 875 49 l 979 49 l 979 0 l 599 0 m 479 931 q 600 919 539 931 q 713 880 661 907 q 795 807 764 853 q 826 692 826 761 q 793 576 826 625 q 707 494 760 526 q 594 447 654 463 q 479 431 533 431 l 250 431 l 313 493 l 313 56 l 319 49 l 431 49 l 431 0 l 69 0 l 69 49 l 181 49 l 188 56 l 188 875 l 181 882 l 69 882 l 69 931 l 479 931 m 313 417 l 250 479 l 451 479 q 574 496 519 479 q 662 556 629 513 q 694 681 694 600 q 661 794 694 750 q 572 860 628 839 q 451 882 517 882 l 319 882 l 313 875 l 313 417 m 494 -83 q 557 -109 533 -83 q 581 -186 581 -135 q 544 -308 581 -256 q 472 -396 508 -361 l 435 -364 q 486 -303 463 -337 q 510 -235 510 -269 q 499 -236 504 -236 q 490 -236 494 -236 q 437 -213 460 -236 q 414 -160 414 -190 q 436 -106 414 -129 q 494 -83 458 -83 z "},"Ȑ":{"ha":979,"x_min":69,"x_max":979,"o":"m 599 0 l 599 49 l 710 49 l 717 56 l 428 449 l 579 449 l 875 49 l 979 49 l 979 0 l 599 0 m 479 931 q 600 919 539 931 q 713 880 661 907 q 795 807 764 853 q 826 692 826 761 q 793 576 826 625 q 707 494 760 526 q 594 447 654 463 q 479 431 533 431 l 250 431 l 313 493 l 313 56 l 319 49 l 431 49 l 431 0 l 69 0 l 69 49 l 181 49 l 188 56 l 188 875 l 181 882 l 69 882 l 69 931 l 479 931 m 313 417 l 250 479 l 451 479 q 574 496 519 479 q 662 556 629 513 q 694 681 694 600 q 661 794 694 750 q 572 860 628 839 q 451 882 517 882 l 319 882 l 313 875 l 313 417 m 594 1014 l 401 1208 l 554 1208 l 636 1014 l 594 1014 m 358 1014 l 165 1208 l 318 1208 l 400 1014 l 358 1014 z "},"Ṛ":{"ha":979,"x_min":69,"x_max":979,"o":"m 599 0 l 599 49 l 710 49 l 717 56 l 428 449 l 579 449 l 875 49 l 979 49 l 979 0 l 599 0 m 479 931 q 600 919 539 931 q 713 880 661 907 q 795 807 764 853 q 826 692 826 761 q 793 576 826 625 q 707 494 760 526 q 594 447 654 463 q 479 431 533 431 l 250 431 l 313 493 l 313 56 l 319 49 l 431 49 l 431 0 l 69 0 l 69 49 l 181 49 l 188 56 l 188 875 l 181 882 l 69 882 l 69 931 l 479 931 m 313 417 l 250 479 l 451 479 q 574 496 519 479 q 662 556 629 513 q 694 681 694 600 q 661 794 694 750 q 572 860 628 839 q 451 882 517 882 l 319 882 l 313 875 l 313 417 m 490 -278 q 437 -255 460 -278 q 414 -201 414 -232 q 437 -147 414 -169 q 490 -125 460 -125 q 544 -147 522 -125 q 567 -201 567 -169 q 544 -255 567 -232 q 490 -278 522 -278 z "},"Ȓ":{"ha":979,"x_min":69,"x_max":979,"o":"m 599 0 l 599 49 l 710 49 l 717 56 l 428 449 l 579 449 l 875 49 l 979 49 l 979 0 l 599 0 m 479 931 q 600 919 539 931 q 713 880 661 907 q 795 807 764 853 q 826 692 826 761 q 793 576 826 625 q 707 494 760 526 q 594 447 654 463 q 479 431 533 431 l 250 431 l 313 493 l 313 56 l 319 49 l 431 49 l 431 0 l 69 0 l 69 49 l 181 49 l 188 56 l 188 875 l 181 882 l 69 882 l 69 931 l 479 931 m 313 417 l 250 479 l 451 479 q 574 496 519 479 q 662 556 629 513 q 694 681 694 600 q 661 794 694 750 q 572 860 628 839 q 451 882 517 882 l 319 882 l 313 875 l 313 417 m 636 1000 q 612 1063 633 1036 q 558 1103 590 1089 q 490 1118 526 1118 q 422 1103 454 1118 q 369 1063 390 1089 q 344 1000 349 1036 l 303 1000 q 326 1107 303 1060 q 392 1181 350 1154 q 490 1208 435 1208 q 589 1181 547 1208 q 654 1107 631 1154 q 678 1000 678 1060 l 636 1000 z "},"Ṟ":{"ha":979,"x_min":69,"x_max":979,"o":"m 599 0 l 599 49 l 710 49 l 717 56 l 428 449 l 579 449 l 875 49 l 979 49 l 979 0 l 599 0 m 479 931 q 600 919 539 931 q 713 880 661 907 q 795 807 764 853 q 826 692 826 761 q 793 576 826 625 q 707 494 760 526 q 594 447 654 463 q 479 431 533 431 l 250 431 l 313 493 l 313 56 l 319 49 l 431 49 l 431 0 l 69 0 l 69 49 l 181 49 l 188 56 l 188 875 l 181 882 l 69 882 l 69 931 l 479 931 m 313 417 l 250 479 l 451 479 q 574 496 519 479 q 662 556 629 513 q 694 681 694 600 q 661 794 694 750 q 572 860 628 839 q 451 882 517 882 l 319 882 l 313 875 l 313 417 m 289 -222 l 289 -153 l 692 -153 l 692 -222 l 289 -222 z "},"S":{"ha":836,"x_min":83,"x_max":753,"o":"m 222 726 q 251 644 222 676 q 327 590 279 611 q 431 549 375 568 q 544 509 488 531 q 648 456 600 488 q 724 374 696 424 q 753 251 753 325 q 713 108 753 167 q 603 17 672 49 q 446 -14 535 -14 q 319 6 378 -14 q 210 57 261 25 l 181 1 l 132 1 q 121 101 129 49 q 103 203 113 153 q 83 297 93 254 l 129 311 q 230 149 172 208 q 347 66 288 90 q 453 42 406 42 q 542 59 496 42 q 622 114 589 76 q 656 211 656 151 q 627 303 656 267 q 551 364 599 339 q 447 409 503 389 q 334 451 390 429 q 230 502 278 472 q 153 577 182 532 q 125 689 125 622 q 165 826 125 769 q 273 914 206 883 q 421 944 340 944 q 530 926 482 944 q 625 874 578 907 l 654 931 l 703 931 q 719 793 708 860 q 744 661 731 726 l 699 647 q 613 801 664 750 q 510 871 563 853 q 415 889 457 889 q 276 843 331 889 q 222 726 222 797 z "},"Ś":{"ha":836,"x_min":83,"x_max":753,"o":"m 222 726 q 251 644 222 676 q 327 590 279 611 q 431 549 375 568 q 544 509 488 531 q 648 456 600 488 q 724 374 696 424 q 753 251 753 325 q 713 108 753 167 q 603 17 672 49 q 446 -14 535 -14 q 319 6 378 -14 q 210 57 261 25 l 181 1 l 132 1 q 121 101 129 49 q 103 203 113 153 q 83 297 93 254 l 129 311 q 230 149 172 208 q 347 66 288 90 q 453 42 406 42 q 542 59 496 42 q 622 114 589 76 q 656 211 656 151 q 627 303 656 267 q 551 364 599 339 q 447 409 503 389 q 334 451 390 429 q 230 502 278 472 q 153 577 182 532 q 125 689 125 622 q 165 826 125 769 q 273 914 206 883 q 421 944 340 944 q 530 926 482 944 q 625 874 578 907 l 654 931 l 703 931 q 719 793 708 860 q 744 661 731 726 l 699 647 q 613 801 664 750 q 510 871 563 853 q 415 889 457 889 q 276 843 331 889 q 222 726 222 797 m 618 1208 l 425 1014 l 383 1014 l 465 1208 l 618 1208 z "},"Ṥ":{"ha":836,"x_min":83,"x_max":753,"o":"m 222 726 q 251 644 222 676 q 327 590 279 611 q 431 549 375 568 q 544 509 488 531 q 648 456 600 488 q 724 374 696 424 q 753 251 753 325 q 713 108 753 167 q 603 17 672 49 q 446 -14 535 -14 q 319 6 378 -14 q 210 57 261 25 l 181 1 l 132 1 q 121 101 129 49 q 103 203 113 153 q 83 297 93 254 l 129 311 q 230 149 172 208 q 347 66 288 90 q 453 42 406 42 q 542 59 496 42 q 622 114 589 76 q 656 211 656 151 q 627 303 656 267 q 551 364 599 339 q 447 409 503 389 q 334 451 390 429 q 230 502 278 472 q 153 577 182 532 q 125 689 125 622 q 165 826 125 769 q 273 914 206 883 q 421 944 340 944 q 530 926 482 944 q 625 874 578 907 l 654 931 l 703 931 q 719 793 708 860 q 744 661 731 726 l 699 647 q 613 801 664 750 q 510 871 563 853 q 415 889 457 889 q 276 843 331 889 q 222 726 222 797 m 618 1208 l 425 1014 l 383 1014 l 465 1208 l 618 1208 m 418 1250 q 365 1273 388 1250 q 342 1326 342 1296 q 365 1381 342 1358 q 418 1403 388 1403 q 472 1381 450 1403 q 494 1326 494 1358 q 472 1273 494 1296 q 418 1250 450 1250 z "},"Š":{"ha":836,"x_min":83,"x_max":753,"o":"m 222 726 q 251 644 222 676 q 327 590 279 611 q 431 549 375 568 q 544 509 488 531 q 648 456 600 488 q 724 374 696 424 q 753 251 753 325 q 713 108 753 167 q 603 17 672 49 q 446 -14 535 -14 q 319 6 378 -14 q 210 57 261 25 l 181 1 l 132 1 q 121 101 129 49 q 103 203 113 153 q 83 297 93 254 l 129 311 q 230 149 172 208 q 347 66 288 90 q 453 42 406 42 q 542 59 496 42 q 622 114 589 76 q 656 211 656 151 q 627 303 656 267 q 551 364 599 339 q 447 409 503 389 q 334 451 390 429 q 230 502 278 472 q 153 577 182 532 q 125 689 125 622 q 165 826 125 769 q 273 914 206 883 q 421 944 340 944 q 530 926 482 944 q 625 874 578 907 l 654 931 l 703 931 q 719 793 708 860 q 744 661 731 726 l 699 647 q 613 801 664 750 q 510 871 563 853 q 415 889 457 889 q 276 843 331 889 q 222 726 222 797 m 576 1208 l 618 1208 l 439 1014 l 396 1014 l 217 1208 l 258 1208 l 418 1124 l 576 1208 z "},"Ṧ":{"ha":836,"x_min":83,"x_max":753,"o":"m 222 726 q 251 644 222 676 q 327 590 279 611 q 431 549 375 568 q 544 509 488 531 q 648 456 600 488 q 724 374 696 424 q 753 251 753 325 q 713 108 753 167 q 603 17 672 49 q 446 -14 535 -14 q 319 6 378 -14 q 210 57 261 25 l 181 1 l 132 1 q 121 101 129 49 q 103 203 113 153 q 83 297 93 254 l 129 311 q 230 149 172 208 q 347 66 288 90 q 453 42 406 42 q 542 59 496 42 q 622 114 589 76 q 656 211 656 151 q 627 303 656 267 q 551 364 599 339 q 447 409 503 389 q 334 451 390 429 q 230 502 278 472 q 153 577 182 532 q 125 689 125 622 q 165 826 125 769 q 273 914 206 883 q 421 944 340 944 q 530 926 482 944 q 625 874 578 907 l 654 931 l 703 931 q 719 793 708 860 q 744 661 731 726 l 699 647 q 613 801 664 750 q 510 871 563 853 q 415 889 457 889 q 276 843 331 889 q 222 726 222 797 m 576 1208 l 618 1208 l 439 1014 l 396 1014 l 217 1208 l 258 1208 l 418 1124 l 576 1208 m 418 1250 q 365 1273 388 1250 q 342 1326 342 1296 q 365 1381 342 1358 q 418 1403 388 1403 q 472 1381 450 1403 q 494 1326 494 1358 q 472 1273 494 1296 q 418 1250 450 1250 z "},"Ş":{"ha":836,"x_min":83,"x_max":753,"o":"m 222 726 q 251 644 222 676 q 327 590 279 611 q 431 549 375 568 q 544 509 488 531 q 648 456 600 488 q 724 374 696 424 q 753 251 753 325 q 713 108 753 167 q 603 17 672 49 q 446 -14 535 -14 q 319 6 378 -14 q 210 57 261 25 l 181 1 l 132 1 q 121 101 129 49 q 103 203 113 153 q 83 297 93 254 l 129 311 q 230 149 172 208 q 347 66 288 90 q 453 42 406 42 q 542 59 496 42 q 622 114 589 76 q 656 211 656 151 q 627 303 656 267 q 551 364 599 339 q 447 409 503 389 q 334 451 390 429 q 230 502 278 472 q 153 577 182 532 q 125 689 125 622 q 165 826 125 769 q 273 914 206 883 q 421 944 340 944 q 530 926 482 944 q 625 874 578 907 l 654 931 l 703 931 q 719 793 708 860 q 744 661 731 726 l 699 647 q 613 801 664 750 q 510 871 563 853 q 415 889 457 889 q 276 843 331 889 q 222 726 222 797 m 407 -347 q 281 -306 343 -347 l 297 -260 q 351 -285 325 -278 q 400 -292 378 -292 q 458 -274 443 -292 q 474 -235 474 -256 q 440 -175 474 -199 q 343 -135 406 -151 l 393 0 l 449 0 l 401 -126 l 379 -60 q 467 -85 425 -65 q 537 -136 510 -104 q 564 -212 564 -168 q 520 -308 564 -268 q 407 -347 476 -347 z "},"Ŝ":{"ha":836,"x_min":83,"x_max":753,"o":"m 222 726 q 251 644 222 676 q 327 590 279 611 q 431 549 375 568 q 544 509 488 531 q 648 456 600 488 q 724 374 696 424 q 753 251 753 325 q 713 108 753 167 q 603 17 672 49 q 446 -14 535 -14 q 319 6 378 -14 q 210 57 261 25 l 181 1 l 132 1 q 121 101 129 49 q 103 203 113 153 q 83 297 93 254 l 129 311 q 230 149 172 208 q 347 66 288 90 q 453 42 406 42 q 542 59 496 42 q 622 114 589 76 q 656 211 656 151 q 627 303 656 267 q 551 364 599 339 q 447 409 503 389 q 334 451 390 429 q 230 502 278 472 q 153 577 182 532 q 125 689 125 622 q 165 826 125 769 q 273 914 206 883 q 421 944 340 944 q 530 926 482 944 q 625 874 578 907 l 654 931 l 703 931 q 719 793 708 860 q 744 661 731 726 l 699 647 q 613 801 664 750 q 510 871 563 853 q 415 889 457 889 q 276 843 331 889 q 222 726 222 797 m 576 1014 l 418 1099 l 258 1014 l 217 1014 l 396 1208 l 439 1208 l 618 1014 l 576 1014 z "},"Ș":{"ha":836,"x_min":83,"x_max":753,"o":"m 222 726 q 251 644 222 676 q 327 590 279 611 q 431 549 375 568 q 544 509 488 531 q 648 456 600 488 q 724 374 696 424 q 753 251 753 325 q 713 108 753 167 q 603 17 672 49 q 446 -14 535 -14 q 319 6 378 -14 q 210 57 261 25 l 181 1 l 132 1 q 121 101 129 49 q 103 203 113 153 q 83 297 93 254 l 129 311 q 230 149 172 208 q 347 66 288 90 q 453 42 406 42 q 542 59 496 42 q 622 114 589 76 q 656 211 656 151 q 627 303 656 267 q 551 364 599 339 q 447 409 503 389 q 334 451 390 429 q 230 502 278 472 q 153 577 182 532 q 125 689 125 622 q 165 826 125 769 q 273 914 206 883 q 421 944 340 944 q 530 926 482 944 q 625 874 578 907 l 654 931 l 703 931 q 719 793 708 860 q 744 661 731 726 l 699 647 q 613 801 664 750 q 510 871 563 853 q 415 889 457 889 q 276 843 331 889 q 222 726 222 797 m 422 -83 q 485 -109 461 -83 q 508 -186 508 -135 q 472 -308 508 -256 q 400 -396 436 -361 l 363 -364 q 414 -303 390 -337 q 438 -235 438 -269 q 427 -236 432 -236 q 418 -236 422 -236 q 365 -213 388 -236 q 342 -160 342 -190 q 364 -106 342 -129 q 422 -83 386 -83 z "},"Ṡ":{"ha":836,"x_min":83,"x_max":753,"o":"m 222 726 q 251 644 222 676 q 327 590 279 611 q 431 549 375 568 q 544 509 488 531 q 648 456 600 488 q 724 374 696 424 q 753 251 753 325 q 713 108 753 167 q 603 17 672 49 q 446 -14 535 -14 q 319 6 378 -14 q 210 57 261 25 l 181 1 l 132 1 q 121 101 129 49 q 103 203 113 153 q 83 297 93 254 l 129 311 q 230 149 172 208 q 347 66 288 90 q 453 42 406 42 q 542 59 496 42 q 622 114 589 76 q 656 211 656 151 q 627 303 656 267 q 551 364 599 339 q 447 409 503 389 q 334 451 390 429 q 230 502 278 472 q 153 577 182 532 q 125 689 125 622 q 165 826 125 769 q 273 914 206 883 q 421 944 340 944 q 530 926 482 944 q 625 874 578 907 l 654 931 l 703 931 q 719 793 708 860 q 744 661 731 726 l 699 647 q 613 801 664 750 q 510 871 563 853 q 415 889 457 889 q 276 843 331 889 q 222 726 222 797 m 418 1028 q 365 1051 388 1028 q 342 1104 342 1074 q 365 1158 342 1136 q 418 1181 388 1181 q 472 1158 450 1181 q 494 1104 494 1136 q 472 1051 494 1074 q 418 1028 450 1028 z "},"Ṣ":{"ha":836,"x_min":83,"x_max":753,"o":"m 222 726 q 251 644 222 676 q 327 590 279 611 q 431 549 375 568 q 544 509 488 531 q 648 456 600 488 q 724 374 696 424 q 753 251 753 325 q 713 108 753 167 q 603 17 672 49 q 446 -14 535 -14 q 319 6 378 -14 q 210 57 261 25 l 181 1 l 132 1 q 121 101 129 49 q 103 203 113 153 q 83 297 93 254 l 129 311 q 230 149 172 208 q 347 66 288 90 q 453 42 406 42 q 542 59 496 42 q 622 114 589 76 q 656 211 656 151 q 627 303 656 267 q 551 364 599 339 q 447 409 503 389 q 334 451 390 429 q 230 502 278 472 q 153 577 182 532 q 125 689 125 622 q 165 826 125 769 q 273 914 206 883 q 421 944 340 944 q 530 926 482 944 q 625 874 578 907 l 654 931 l 703 931 q 719 793 708 860 q 744 661 731 726 l 699 647 q 613 801 664 750 q 510 871 563 853 q 415 889 457 889 q 276 843 331 889 q 222 726 222 797 m 418 -278 q 365 -255 388 -278 q 342 -201 342 -232 q 365 -147 342 -169 q 418 -125 388 -125 q 472 -147 450 -125 q 494 -201 494 -169 q 472 -255 494 -232 q 418 -278 450 -278 z "},"Ṩ":{"ha":836,"x_min":83,"x_max":753,"o":"m 222 726 q 251 644 222 676 q 327 590 279 611 q 431 549 375 568 q 544 509 488 531 q 648 456 600 488 q 724 374 696 424 q 753 251 753 325 q 713 108 753 167 q 603 17 672 49 q 446 -14 535 -14 q 319 6 378 -14 q 210 57 261 25 l 181 1 l 132 1 q 121 101 129 49 q 103 203 113 153 q 83 297 93 254 l 129 311 q 230 149 172 208 q 347 66 288 90 q 453 42 406 42 q 542 59 496 42 q 622 114 589 76 q 656 211 656 151 q 627 303 656 267 q 551 364 599 339 q 447 409 503 389 q 334 451 390 429 q 230 502 278 472 q 153 577 182 532 q 125 689 125 622 q 165 826 125 769 q 273 914 206 883 q 421 944 340 944 q 530 926 482 944 q 625 874 578 907 l 654 931 l 703 931 q 719 793 708 860 q 744 661 731 726 l 699 647 q 613 801 664 750 q 510 871 563 853 q 415 889 457 889 q 276 843 331 889 q 222 726 222 797 m 418 -278 q 365 -255 388 -278 q 342 -201 342 -232 q 365 -147 342 -169 q 418 -125 388 -125 q 472 -147 450 -125 q 494 -201 494 -169 q 472 -255 494 -232 q 418 -278 450 -278 m 418 1028 q 365 1051 388 1028 q 342 1104 342 1074 q 365 1158 342 1136 q 418 1181 388 1181 q 472 1158 450 1181 q 494 1104 494 1136 q 472 1051 494 1074 q 418 1028 450 1028 z "},"ẞ":{"ha":1003,"x_min":69,"x_max":975,"o":"m 683 663 q 704 583 683 615 q 758 524 725 550 q 829 472 792 497 q 900 414 867 446 q 954 338 933 382 q 975 232 975 294 q 944 108 975 164 q 855 19 914 53 q 711 -14 796 -14 q 632 -5 664 -14 q 574 21 600 4 q 515 57 547 38 l 486 1 l 438 1 q 425 124 432 72 q 403 242 418 176 l 449 256 q 580 88 514 133 q 711 42 646 42 q 824 85 783 42 q 864 201 864 129 q 843 288 864 253 q 790 351 822 324 q 722 403 758 378 q 653 457 685 428 q 600 527 621 486 q 579 628 579 568 q 608 743 579 694 q 686 826 638 792 q 790 882 735 860 l 319 882 l 313 875 l 313 0 l 69 0 l 69 49 l 181 49 l 188 56 l 188 875 l 181 882 l 69 882 l 69 931 l 875 931 l 875 889 q 766 820 808 857 q 703 744 724 783 q 683 663 683 704 z "},"Ə":{"ha":993,"x_min":69,"x_max":924,"o":"m 497 -14 q 339 21 415 -14 q 201 117 263 56 q 105 263 140 179 q 69 444 69 347 l 201 444 q 217 301 201 372 q 269 170 233 229 q 361 76 304 111 q 501 42 418 42 q 667 95 603 42 q 761 244 731 149 q 792 463 792 339 q 754 682 792 588 q 644 829 717 776 q 469 882 572 882 q 289 845 379 882 q 121 719 199 808 l 83 751 q 261 897 157 850 q 493 944 365 944 l 494 944 q 669 909 590 944 q 804 810 747 874 q 892 660 861 746 q 924 472 924 574 q 871 221 924 331 q 722 49 818 111 q 497 -14 626 -14 m 90 396 l 90 444 l 840 444 l 840 396 l 90 396 z "},"T":{"ha":847,"x_min":18,"x_max":826,"o":"m 776 931 l 826 708 l 781 694 q 728 808 761 768 q 638 865 696 849 q 485 882 579 882 l 485 56 l 492 49 l 603 49 l 603 0 l 242 0 l 242 49 l 353 49 l 360 56 l 360 882 q 208 865 265 882 q 117 808 150 849 q 64 694 83 768 l 18 708 l 68 931 l 776 931 z "},"Ŧ":{"ha":847,"x_min":18,"x_max":826,"o":"m 242 0 l 242 49 l 353 49 l 360 56 l 360 440 l 140 440 l 140 489 l 360 489 l 360 882 q 208 865 265 882 q 117 808 150 849 q 64 694 83 768 l 18 708 l 68 931 l 776 931 l 826 708 l 781 694 q 728 808 761 768 q 638 865 696 849 q 485 882 579 882 l 485 489 l 707 489 l 707 440 l 485 440 l 485 56 l 492 49 l 603 49 l 603 0 l 242 0 z "},"Ť":{"ha":847,"x_min":18,"x_max":826,"o":"m 776 931 l 826 708 l 781 694 q 728 808 761 768 q 638 865 696 849 q 485 882 579 882 l 485 56 l 492 49 l 603 49 l 603 0 l 242 0 l 242 49 l 353 49 l 360 56 l 360 882 q 208 865 265 882 q 117 808 150 849 q 64 694 83 768 l 18 708 l 68 931 l 776 931 m 582 1208 l 624 1208 l 444 1014 l 401 1014 l 222 1208 l 264 1208 l 424 1124 l 582 1208 z "},"Ţ":{"ha":847,"x_min":18,"x_max":826,"o":"m 776 931 l 826 708 l 781 694 q 728 808 761 768 q 638 865 696 849 q 485 882 579 882 l 485 56 l 492 49 l 603 49 l 603 0 l 242 0 l 242 49 l 353 49 l 360 56 l 360 882 q 208 865 265 882 q 117 808 150 849 q 64 694 83 768 l 18 708 l 68 931 l 776 931 m 413 -347 q 286 -306 349 -347 l 303 -260 q 357 -285 331 -278 q 406 -292 383 -292 q 464 -274 449 -292 q 479 -235 479 -256 q 445 -175 479 -199 q 349 -135 411 -151 l 399 0 l 454 0 l 407 -126 l 385 -60 q 473 -85 431 -65 q 542 -136 515 -104 q 569 -212 569 -168 q 526 -308 569 -268 q 413 -347 482 -347 z "},"Ț":{"ha":847,"x_min":18,"x_max":826,"o":"m 776 931 l 826 708 l 781 694 q 728 808 761 768 q 638 865 696 849 q 485 882 579 882 l 485 56 l 492 49 l 603 49 l 603 0 l 242 0 l 242 49 l 353 49 l 360 56 l 360 882 q 208 865 265 882 q 117 808 150 849 q 64 694 83 768 l 18 708 l 68 931 l 776 931 m 428 -83 q 490 -109 467 -83 q 514 -186 514 -135 q 478 -308 514 -256 q 406 -396 442 -361 l 368 -364 q 419 -303 396 -337 q 443 -235 443 -269 q 433 -236 438 -236 q 424 -236 428 -236 q 370 -213 393 -236 q 347 -160 347 -190 q 369 -106 347 -129 q 428 -83 392 -83 z "},"Ṭ":{"ha":847,"x_min":18,"x_max":826,"o":"m 776 931 l 826 708 l 781 694 q 728 808 761 768 q 638 865 696 849 q 485 882 579 882 l 485 56 l 492 49 l 603 49 l 603 0 l 242 0 l 242 49 l 353 49 l 360 56 l 360 882 q 208 865 265 882 q 117 808 150 849 q 64 694 83 768 l 18 708 l 68 931 l 776 931 m 424 -278 q 370 -255 393 -278 q 347 -201 347 -232 q 370 -147 347 -169 q 424 -125 393 -125 q 478 -147 456 -125 q 500 -201 500 -169 q 478 -255 500 -232 q 424 -278 456 -278 z "},"Ṯ":{"ha":847,"x_min":18,"x_max":826,"o":"m 776 931 l 826 708 l 781 694 q 728 808 761 768 q 638 865 696 849 q 485 882 579 882 l 485 56 l 492 49 l 603 49 l 603 0 l 242 0 l 242 49 l 353 49 l 360 56 l 360 882 q 208 865 265 882 q 117 808 150 849 q 64 694 83 768 l 18 708 l 68 931 l 776 931 m 222 -222 l 222 -153 l 625 -153 l 625 -222 l 222 -222 z "},"U":{"ha":1014,"x_min":49,"x_max":965,"o":"m 681 882 l 681 931 l 965 931 l 965 882 l 868 882 l 861 875 l 861 340 q 818 151 861 231 q 701 29 775 72 q 533 -14 628 -14 q 327 31 408 -14 q 206 153 246 76 q 167 324 167 229 l 167 875 l 160 882 l 49 882 l 49 931 l 410 931 l 410 882 l 299 882 l 292 875 l 292 340 q 319 193 292 257 q 403 92 347 129 q 540 56 458 56 q 671 89 613 56 q 764 186 729 122 q 799 340 799 250 l 799 875 l 792 882 l 681 882 z "},"Ú":{"ha":1014,"x_min":49,"x_max":965,"o":"m 681 882 l 681 931 l 965 931 l 965 882 l 868 882 l 861 875 l 861 340 q 818 151 861 231 q 701 29 775 72 q 533 -14 628 -14 q 327 31 408 -14 q 206 153 246 76 q 167 324 167 229 l 167 875 l 160 882 l 49 882 l 49 931 l 410 931 l 410 882 l 299 882 l 292 875 l 292 340 q 319 193 292 257 q 403 92 347 129 q 540 56 458 56 q 671 89 613 56 q 764 186 729 122 q 799 340 799 250 l 799 875 l 792 882 l 681 882 m 742 1208 l 549 1014 l 507 1014 l 589 1208 l 742 1208 z "},"Ŭ":{"ha":1014,"x_min":49,"x_max":965,"o":"m 681 882 l 681 931 l 965 931 l 965 882 l 868 882 l 861 875 l 861 340 q 818 151 861 231 q 701 29 775 72 q 533 -14 628 -14 q 327 31 408 -14 q 206 153 246 76 q 167 324 167 229 l 167 875 l 160 882 l 49 882 l 49 931 l 410 931 l 410 882 l 299 882 l 292 875 l 292 340 q 319 193 292 257 q 403 92 347 129 q 540 56 458 56 q 671 89 613 56 q 764 186 729 122 q 799 340 799 250 l 799 875 l 792 882 l 681 882 m 688 1208 l 729 1208 q 706 1101 729 1149 q 640 1027 682 1054 q 542 1000 599 1000 q 444 1027 486 1000 q 378 1101 401 1054 q 354 1208 354 1149 l 396 1208 q 421 1146 400 1172 q 474 1105 442 1119 q 542 1090 506 1090 q 610 1105 578 1090 q 663 1146 642 1119 q 688 1208 685 1172 z "},"Ǔ":{"ha":1014,"x_min":49,"x_max":965,"o":"m 681 882 l 681 931 l 965 931 l 965 882 l 868 882 l 861 875 l 861 340 q 818 151 861 231 q 701 29 775 72 q 533 -14 628 -14 q 327 31 408 -14 q 206 153 246 76 q 167 324 167 229 l 167 875 l 160 882 l 49 882 l 49 931 l 410 931 l 410 882 l 299 882 l 292 875 l 292 340 q 319 193 292 257 q 403 92 347 129 q 540 56 458 56 q 671 89 613 56 q 764 186 729 122 q 799 340 799 250 l 799 875 l 792 882 l 681 882 m 700 1208 l 742 1208 l 563 1014 l 519 1014 l 340 1208 l 382 1208 l 542 1124 l 700 1208 z "},"Û":{"ha":1014,"x_min":49,"x_max":965,"o":"m 681 882 l 681 931 l 965 931 l 965 882 l 868 882 l 861 875 l 861 340 q 818 151 861 231 q 701 29 775 72 q 533 -14 628 -14 q 327 31 408 -14 q 206 153 246 76 q 167 324 167 229 l 167 875 l 160 882 l 49 882 l 49 931 l 410 931 l 410 882 l 299 882 l 292 875 l 292 340 q 319 193 292 257 q 403 92 347 129 q 540 56 458 56 q 671 89 613 56 q 764 186 729 122 q 799 340 799 250 l 799 875 l 792 882 l 681 882 m 700 1014 l 542 1099 l 382 1014 l 340 1014 l 519 1208 l 563 1208 l 742 1014 l 700 1014 z "},"Ȕ":{"ha":1014,"x_min":49,"x_max":965,"o":"m 681 882 l 681 931 l 965 931 l 965 882 l 868 882 l 861 875 l 861 340 q 818 151 861 231 q 701 29 775 72 q 533 -14 628 -14 q 327 31 408 -14 q 206 153 246 76 q 167 324 167 229 l 167 875 l 160 882 l 49 882 l 49 931 l 410 931 l 410 882 l 299 882 l 292 875 l 292 340 q 319 193 292 257 q 403 92 347 129 q 540 56 458 56 q 671 89 613 56 q 764 186 729 122 q 799 340 799 250 l 799 875 l 792 882 l 681 882 m 646 1014 l 453 1208 l 606 1208 l 688 1014 l 646 1014 m 410 1014 l 217 1208 l 369 1208 l 451 1014 l 410 1014 z "},"Ü":{"ha":1014,"x_min":49,"x_max":965,"o":"m 681 882 l 681 931 l 965 931 l 965 882 l 868 882 l 861 875 l 861 340 q 818 151 861 231 q 701 29 775 72 q 533 -14 628 -14 q 327 31 408 -14 q 206 153 246 76 q 167 324 167 229 l 167 875 l 160 882 l 49 882 l 49 931 l 410 931 l 410 882 l 299 882 l 292 875 l 292 340 q 319 193 292 257 q 403 92 347 129 q 540 56 458 56 q 671 89 613 56 q 764 186 729 122 q 799 340 799 250 l 799 875 l 792 882 l 681 882 m 389 1028 q 335 1051 358 1028 q 313 1104 313 1074 q 335 1158 313 1136 q 389 1181 358 1181 q 443 1158 421 1181 q 465 1104 465 1136 q 443 1051 465 1074 q 389 1028 421 1028 m 694 1028 q 641 1051 664 1028 q 618 1104 618 1074 q 641 1158 618 1136 q 694 1181 664 1181 q 749 1158 726 1181 q 771 1104 771 1136 q 749 1051 771 1074 q 694 1028 726 1028 z "},"Ǘ":{"ha":1014,"x_min":49,"x_max":965,"o":"m 681 882 l 681 931 l 965 931 l 965 882 l 868 882 l 861 875 l 861 340 q 818 151 861 231 q 701 29 775 72 q 533 -14 628 -14 q 327 31 408 -14 q 206 153 246 76 q 167 324 167 229 l 167 875 l 160 882 l 49 882 l 49 931 l 410 931 l 410 882 l 299 882 l 292 875 l 292 340 q 319 193 292 257 q 403 92 347 129 q 540 56 458 56 q 671 89 613 56 q 764 186 729 122 q 799 340 799 250 l 799 875 l 792 882 l 681 882 m 389 1028 q 335 1051 358 1028 q 313 1104 313 1074 q 335 1158 313 1136 q 389 1181 358 1181 q 443 1158 421 1181 q 465 1104 465 1136 q 443 1051 465 1074 q 389 1028 421 1028 m 694 1028 q 641 1051 664 1028 q 618 1104 618 1074 q 641 1158 618 1136 q 694 1181 664 1181 q 749 1158 726 1181 q 771 1104 771 1136 q 749 1051 771 1074 q 694 1028 726 1028 m 742 1403 l 549 1208 l 507 1208 l 589 1403 l 742 1403 z "},"Ǚ":{"ha":1014,"x_min":49,"x_max":965,"o":"m 681 882 l 681 931 l 965 931 l 965 882 l 868 882 l 861 875 l 861 340 q 818 151 861 231 q 701 29 775 72 q 533 -14 628 -14 q 327 31 408 -14 q 206 153 246 76 q 167 324 167 229 l 167 875 l 160 882 l 49 882 l 49 931 l 410 931 l 410 882 l 299 882 l 292 875 l 292 340 q 319 193 292 257 q 403 92 347 129 q 540 56 458 56 q 671 89 613 56 q 764 186 729 122 q 799 340 799 250 l 799 875 l 792 882 l 681 882 m 389 1028 q 335 1051 358 1028 q 313 1104 313 1074 q 335 1158 313 1136 q 389 1181 358 1181 q 443 1158 421 1181 q 465 1104 465 1136 q 443 1051 465 1074 q 389 1028 421 1028 m 694 1028 q 641 1051 664 1028 q 618 1104 618 1074 q 641 1158 618 1136 q 694 1181 664 1181 q 749 1158 726 1181 q 771 1104 771 1136 q 749 1051 771 1074 q 694 1028 726 1028 m 700 1403 l 742 1403 l 563 1208 l 519 1208 l 340 1403 l 382 1403 l 542 1318 l 700 1403 z "},"Ǜ":{"ha":1014,"x_min":49,"x_max":965,"o":"m 681 882 l 681 931 l 965 931 l 965 882 l 868 882 l 861 875 l 861 340 q 818 151 861 231 q 701 29 775 72 q 533 -14 628 -14 q 327 31 408 -14 q 206 153 246 76 q 167 324 167 229 l 167 875 l 160 882 l 49 882 l 49 931 l 410 931 l 410 882 l 299 882 l 292 875 l 292 340 q 319 193 292 257 q 403 92 347 129 q 540 56 458 56 q 671 89 613 56 q 764 186 729 122 q 799 340 799 250 l 799 875 l 792 882 l 681 882 m 389 1028 q 335 1051 358 1028 q 313 1104 313 1074 q 335 1158 313 1136 q 389 1181 358 1181 q 443 1158 421 1181 q 465 1104 465 1136 q 443 1051 465 1074 q 389 1028 421 1028 m 694 1028 q 641 1051 664 1028 q 618 1104 618 1074 q 641 1158 618 1136 q 694 1181 664 1181 q 749 1158 726 1181 q 771 1104 771 1136 q 749 1051 771 1074 q 694 1028 726 1028 m 356 1403 l 508 1403 l 590 1208 l 549 1208 l 356 1403 z "},"Ǖ":{"ha":1014,"x_min":49,"x_max":965,"o":"m 681 882 l 681 931 l 965 931 l 965 882 l 868 882 l 861 875 l 861 340 q 818 151 861 231 q 701 29 775 72 q 533 -14 628 -14 q 327 31 408 -14 q 206 153 246 76 q 167 324 167 229 l 167 875 l 160 882 l 49 882 l 49 931 l 410 931 l 410 882 l 299 882 l 292 875 l 292 340 q 319 193 292 257 q 403 92 347 129 q 540 56 458 56 q 671 89 613 56 q 764 186 729 122 q 799 340 799 250 l 799 875 l 792 882 l 681 882 m 389 1028 q 335 1051 358 1028 q 313 1104 313 1074 q 335 1158 313 1136 q 389 1181 358 1181 q 443 1158 421 1181 q 465 1104 465 1136 q 443 1051 465 1074 q 389 1028 421 1028 m 694 1028 q 641 1051 664 1028 q 618 1104 618 1074 q 641 1158 618 1136 q 694 1181 664 1181 q 749 1158 726 1181 q 771 1104 771 1136 q 749 1051 771 1074 q 694 1028 726 1028 m 313 1333 l 771 1333 l 771 1264 l 313 1264 l 313 1333 z "},"Ụ":{"ha":1014,"x_min":49,"x_max":965,"o":"m 681 882 l 681 931 l 965 931 l 965 882 l 868 882 l 861 875 l 861 340 q 818 151 861 231 q 701 29 775 72 q 533 -14 628 -14 q 327 31 408 -14 q 206 153 246 76 q 167 324 167 229 l 167 875 l 160 882 l 49 882 l 49 931 l 410 931 l 410 882 l 299 882 l 292 875 l 292 340 q 319 193 292 257 q 403 92 347 129 q 540 56 458 56 q 671 89 613 56 q 764 186 729 122 q 799 340 799 250 l 799 875 l 792 882 l 681 882 m 542 -278 q 488 -255 511 -278 q 465 -201 465 -232 q 488 -147 465 -169 q 542 -125 511 -125 q 596 -147 574 -125 q 618 -201 618 -169 q 596 -255 618 -232 q 542 -278 574 -278 z "},"Ù":{"ha":1014,"x_min":49,"x_max":965,"o":"m 681 882 l 681 931 l 965 931 l 965 882 l 868 882 l 861 875 l 861 340 q 818 151 861 231 q 701 29 775 72 q 533 -14 628 -14 q 327 31 408 -14 q 206 153 246 76 q 167 324 167 229 l 167 875 l 160 882 l 49 882 l 49 931 l 410 931 l 410 882 l 299 882 l 292 875 l 292 340 q 319 193 292 257 q 403 92 347 129 q 540 56 458 56 q 671 89 613 56 q 764 186 729 122 q 799 340 799 250 l 799 875 l 792 882 l 681 882 m 356 1208 l 508 1208 l 590 1014 l 549 1014 l 356 1208 z "},"Ủ":{"ha":1014,"x_min":49,"x_max":965,"o":"m 681 882 l 681 931 l 965 931 l 965 882 l 868 882 l 861 875 l 861 340 q 818 151 861 231 q 701 29 775 72 q 533 -14 628 -14 q 327 31 408 -14 q 206 153 246 76 q 167 324 167 229 l 167 875 l 160 882 l 49 882 l 49 931 l 410 931 l 410 882 l 299 882 l 292 875 l 292 340 q 319 193 292 257 q 403 92 347 129 q 540 56 458 56 q 671 89 613 56 q 764 186 729 122 q 799 340 799 250 l 799 875 l 792 882 l 681 882 m 565 1014 l 524 1014 q 536 1057 524 1039 q 560 1093 549 1075 q 572 1136 572 1111 q 560 1169 572 1158 q 529 1179 549 1179 q 492 1169 510 1179 q 460 1144 475 1160 l 438 1167 q 487 1238 457 1214 q 564 1263 517 1263 q 612 1252 588 1263 q 653 1221 636 1242 q 671 1167 671 1200 q 658 1119 671 1138 q 628 1084 646 1100 q 592 1052 610 1068 q 565 1014 575 1036 z "},"Ư":{"ha":1014,"x_min":49,"x_max":1103,"o":"m 910 882 l 910 931 q 989 945 953 931 q 1039 1011 1025 960 l 1075 1013 q 1044 994 1065 1003 q 1011 986 1024 986 q 951 1010 975 986 q 928 1069 928 1033 q 951 1129 928 1106 q 1011 1153 975 1153 q 1074 1131 1047 1153 q 1101 1056 1100 1108 q 1074 958 1103 996 q 1001 901 1046 919 q 910 882 957 882 m 681 931 l 910 931 l 910 882 l 868 882 l 861 875 l 861 340 q 818 151 861 231 q 701 29 775 72 q 533 -14 628 -14 q 327 31 408 -14 q 206 153 246 76 q 167 324 167 229 l 167 875 l 160 882 l 49 882 l 49 931 l 410 931 l 410 882 l 299 882 l 292 875 l 292 340 q 319 193 292 257 q 403 92 347 129 q 540 56 458 56 q 671 89 613 56 q 764 186 729 122 q 799 340 799 250 l 799 875 l 792 882 l 681 882 l 681 931 z "},"Ứ":{"ha":1014,"x_min":49,"x_max":1103,"o":"m 910 882 l 910 931 q 989 945 953 931 q 1039 1011 1025 960 l 1075 1013 q 1044 994 1065 1003 q 1011 986 1024 986 q 951 1010 975 986 q 928 1069 928 1033 q 951 1129 928 1106 q 1011 1153 975 1153 q 1074 1131 1047 1153 q 1101 1056 1100 1108 q 1074 958 1103 996 q 1001 901 1046 919 q 910 882 957 882 m 681 931 l 910 931 l 910 882 l 868 882 l 861 875 l 861 340 q 818 151 861 231 q 701 29 775 72 q 533 -14 628 -14 q 327 31 408 -14 q 206 153 246 76 q 167 324 167 229 l 167 875 l 160 882 l 49 882 l 49 931 l 410 931 l 410 882 l 299 882 l 292 875 l 292 340 q 319 193 292 257 q 403 92 347 129 q 540 56 458 56 q 671 89 613 56 q 764 186 729 122 q 799 340 799 250 l 799 875 l 792 882 l 681 882 l 681 931 m 742 1208 l 549 1014 l 507 1014 l 589 1208 l 742 1208 z "},"Ự":{"ha":1014,"x_min":49,"x_max":1103,"o":"m 910 882 l 910 931 q 989 945 953 931 q 1039 1011 1025 960 l 1075 1013 q 1044 994 1065 1003 q 1011 986 1024 986 q 951 1010 975 986 q 928 1069 928 1033 q 951 1129 928 1106 q 1011 1153 975 1153 q 1074 1131 1047 1153 q 1101 1056 1100 1108 q 1074 958 1103 996 q 1001 901 1046 919 q 910 882 957 882 m 681 931 l 910 931 l 910 882 l 868 882 l 861 875 l 861 340 q 818 151 861 231 q 701 29 775 72 q 533 -14 628 -14 q 327 31 408 -14 q 206 153 246 76 q 167 324 167 229 l 167 875 l 160 882 l 49 882 l 49 931 l 410 931 l 410 882 l 299 882 l 292 875 l 292 340 q 319 193 292 257 q 403 92 347 129 q 540 56 458 56 q 671 89 613 56 q 764 186 729 122 q 799 340 799 250 l 799 875 l 792 882 l 681 882 l 681 931 m 542 -278 q 488 -255 511 -278 q 465 -201 465 -232 q 488 -147 465 -169 q 542 -125 511 -125 q 596 -147 574 -125 q 618 -201 618 -169 q 596 -255 618 -232 q 542 -278 574 -278 z "},"Ừ":{"ha":1014,"x_min":49,"x_max":1103,"o":"m 910 882 l 910 931 q 989 945 953 931 q 1039 1011 1025 960 l 1075 1013 q 1044 994 1065 1003 q 1011 986 1024 986 q 951 1010 975 986 q 928 1069 928 1033 q 951 1129 928 1106 q 1011 1153 975 1153 q 1074 1131 1047 1153 q 1101 1056 1100 1108 q 1074 958 1103 996 q 1001 901 1046 919 q 910 882 957 882 m 681 931 l 910 931 l 910 882 l 868 882 l 861 875 l 861 340 q 818 151 861 231 q 701 29 775 72 q 533 -14 628 -14 q 327 31 408 -14 q 206 153 246 76 q 167 324 167 229 l 167 875 l 160 882 l 49 882 l 49 931 l 410 931 l 410 882 l 299 882 l 292 875 l 292 340 q 319 193 292 257 q 403 92 347 129 q 540 56 458 56 q 671 89 613 56 q 764 186 729 122 q 799 340 799 250 l 799 875 l 792 882 l 681 882 l 681 931 m 356 1208 l 508 1208 l 590 1014 l 549 1014 l 356 1208 z "},"Ử":{"ha":1014,"x_min":49,"x_max":1103,"o":"m 910 882 l 910 931 q 989 945 953 931 q 1039 1011 1025 960 l 1075 1013 q 1044 994 1065 1003 q 1011 986 1024 986 q 951 1010 975 986 q 928 1069 928 1033 q 951 1129 928 1106 q 1011 1153 975 1153 q 1074 1131 1047 1153 q 1101 1056 1100 1108 q 1074 958 1103 996 q 1001 901 1046 919 q 910 882 957 882 m 681 931 l 910 931 l 910 882 l 868 882 l 861 875 l 861 340 q 818 151 861 231 q 701 29 775 72 q 533 -14 628 -14 q 327 31 408 -14 q 206 153 246 76 q 167 324 167 229 l 167 875 l 160 882 l 49 882 l 49 931 l 410 931 l 410 882 l 299 882 l 292 875 l 292 340 q 319 193 292 257 q 403 92 347 129 q 540 56 458 56 q 671 89 613 56 q 764 186 729 122 q 799 340 799 250 l 799 875 l 792 882 l 681 882 l 681 931 m 565 1014 l 524 1014 q 536 1057 524 1039 q 560 1093 549 1075 q 572 1136 572 1111 q 560 1169 572 1158 q 529 1179 549 1179 q 492 1169 510 1179 q 460 1144 475 1160 l 438 1167 q 487 1238 457 1214 q 564 1263 517 1263 q 612 1252 588 1263 q 653 1221 636 1242 q 671 1167 671 1200 q 658 1119 671 1138 q 628 1084 646 1100 q 592 1052 610 1068 q 565 1014 575 1036 z "},"Ữ":{"ha":1014,"x_min":49,"x_max":1103,"o":"m 910 882 l 910 931 q 989 945 953 931 q 1039 1011 1025 960 l 1075 1013 q 1044 994 1065 1003 q 1011 986 1024 986 q 951 1010 975 986 q 928 1069 928 1033 q 951 1129 928 1106 q 1011 1153 975 1153 q 1074 1131 1047 1153 q 1101 1056 1100 1108 q 1074 958 1103 996 q 1001 901 1046 919 q 910 882 957 882 m 681 931 l 910 931 l 910 882 l 868 882 l 861 875 l 861 340 q 818 151 861 231 q 701 29 775 72 q 533 -14 628 -14 q 327 31 408 -14 q 206 153 246 76 q 167 324 167 229 l 167 875 l 160 882 l 49 882 l 49 931 l 410 931 l 410 882 l 299 882 l 292 875 l 292 340 q 319 193 292 257 q 403 92 347 129 q 540 56 458 56 q 671 89 613 56 q 764 186 729 122 q 799 340 799 250 l 799 875 l 792 882 l 681 882 l 681 931 m 746 1181 l 785 1160 q 728 1049 769 1079 q 646 1019 688 1019 q 560 1041 601 1019 q 483 1083 519 1063 q 414 1104 447 1104 q 372 1088 392 1104 q 338 1026 353 1072 l 299 1047 q 353 1156 314 1124 q 436 1188 393 1188 q 520 1167 479 1188 q 599 1124 561 1146 q 669 1103 638 1103 q 711 1119 692 1103 q 746 1181 731 1135 z "},"Ű":{"ha":1014,"x_min":49,"x_max":965,"o":"m 681 882 l 681 931 l 965 931 l 965 882 l 868 882 l 861 875 l 861 340 q 818 151 861 231 q 701 29 775 72 q 533 -14 628 -14 q 327 31 408 -14 q 206 153 246 76 q 167 324 167 229 l 167 875 l 160 882 l 49 882 l 49 931 l 410 931 l 410 882 l 299 882 l 292 875 l 292 340 q 319 193 292 257 q 403 92 347 129 q 540 56 458 56 q 671 89 613 56 q 764 186 729 122 q 799 340 799 250 l 799 875 l 792 882 l 681 882 m 617 1208 l 424 1014 l 382 1014 l 464 1208 l 617 1208 m 825 1208 l 632 1014 l 590 1014 l 672 1208 l 825 1208 z "},"Ȗ":{"ha":1014,"x_min":49,"x_max":965,"o":"m 681 882 l 681 931 l 965 931 l 965 882 l 868 882 l 861 875 l 861 340 q 818 151 861 231 q 701 29 775 72 q 533 -14 628 -14 q 327 31 408 -14 q 206 153 246 76 q 167 324 167 229 l 167 875 l 160 882 l 49 882 l 49 931 l 410 931 l 410 882 l 299 882 l 292 875 l 292 340 q 319 193 292 257 q 403 92 347 129 q 540 56 458 56 q 671 89 613 56 q 764 186 729 122 q 799 340 799 250 l 799 875 l 792 882 l 681 882 m 688 1000 q 663 1063 685 1036 q 610 1103 642 1089 q 542 1118 578 1118 q 474 1103 506 1118 q 421 1063 442 1089 q 396 1000 400 1036 l 354 1000 q 378 1107 354 1060 q 444 1181 401 1154 q 542 1208 486 1208 q 640 1181 599 1208 q 706 1107 682 1154 q 729 1000 729 1060 l 688 1000 z "},"Ū":{"ha":1014,"x_min":49,"x_max":965,"o":"m 681 882 l 681 931 l 965 931 l 965 882 l 868 882 l 861 875 l 861 340 q 818 151 861 231 q 701 29 775 72 q 533 -14 628 -14 q 327 31 408 -14 q 206 153 246 76 q 167 324 167 229 l 167 875 l 160 882 l 49 882 l 49 931 l 410 931 l 410 882 l 299 882 l 292 875 l 292 340 q 319 193 292 257 q 403 92 347 129 q 540 56 458 56 q 671 89 613 56 q 764 186 729 122 q 799 340 799 250 l 799 875 l 792 882 l 681 882 m 313 1139 l 771 1139 l 771 1069 l 313 1069 l 313 1139 z "},"Ṻ":{"ha":1014,"x_min":49,"x_max":965,"o":"m 681 882 l 681 931 l 965 931 l 965 882 l 868 882 l 861 875 l 861 340 q 818 151 861 231 q 701 29 775 72 q 533 -14 628 -14 q 327 31 408 -14 q 206 153 246 76 q 167 324 167 229 l 167 875 l 160 882 l 49 882 l 49 931 l 410 931 l 410 882 l 299 882 l 292 875 l 292 340 q 319 193 292 257 q 403 92 347 129 q 540 56 458 56 q 671 89 613 56 q 764 186 729 122 q 799 340 799 250 l 799 875 l 792 882 l 681 882 m 313 1139 l 771 1139 l 771 1069 l 313 1069 l 313 1139 m 389 1222 q 335 1245 358 1222 q 313 1299 313 1268 q 335 1353 313 1331 q 389 1375 358 1375 q 443 1353 421 1375 q 465 1299 465 1331 q 443 1245 465 1268 q 389 1222 421 1222 m 694 1222 q 641 1245 664 1222 q 618 1299 618 1268 q 641 1353 618 1331 q 694 1375 664 1375 q 749 1353 726 1375 q 771 1299 771 1331 q 749 1245 771 1268 q 694 1222 726 1222 z "},"Ų":{"ha":1014,"x_min":49,"x_max":965,"o":"m 681 882 l 681 931 l 965 931 l 965 882 l 868 882 l 861 875 l 861 340 q 818 151 861 231 q 701 29 775 72 q 533 -14 628 -14 q 327 31 408 -14 q 206 153 246 76 q 167 324 167 229 l 167 875 l 160 882 l 49 882 l 49 931 l 410 931 l 410 882 l 299 882 l 292 875 l 292 340 q 319 193 292 257 q 403 92 347 129 q 540 56 458 56 q 671 89 613 56 q 764 186 729 122 q 799 340 799 250 l 799 875 l 792 882 l 681 882 m 600 28 l 621 0 q 537 -93 569 -42 q 504 -197 504 -144 q 522 -254 504 -231 q 575 -278 540 -278 q 622 -267 599 -278 q 667 -232 644 -256 l 704 -264 q 632 -327 669 -307 q 549 -347 594 -347 q 436 -308 479 -347 q 393 -206 393 -269 q 424 -109 393 -150 q 503 -35 456 -68 q 600 28 550 -1 z "},"Ů":{"ha":1014,"x_min":49,"x_max":965,"o":"m 681 882 l 681 931 l 965 931 l 965 882 l 868 882 l 861 875 l 861 340 q 818 151 861 231 q 701 29 775 72 q 533 -14 628 -14 q 327 31 408 -14 q 206 153 246 76 q 167 324 167 229 l 167 875 l 160 882 l 49 882 l 49 931 l 410 931 l 410 882 l 299 882 l 292 875 l 292 340 q 319 193 292 257 q 403 92 347 129 q 540 56 458 56 q 671 89 613 56 q 764 186 729 122 q 799 340 799 250 l 799 875 l 792 882 l 681 882 m 542 1235 q 640 1200 599 1235 q 681 1110 681 1165 q 640 1019 681 1054 q 542 985 599 985 q 444 1019 486 985 q 403 1110 403 1054 q 444 1200 403 1165 q 542 1235 486 1235 m 544 1019 q 588 1043 572 1019 q 604 1110 604 1067 q 585 1177 604 1154 q 539 1200 567 1200 q 496 1177 513 1200 q 479 1110 479 1154 q 499 1043 479 1067 q 544 1019 518 1019 z "},"Ũ":{"ha":1014,"x_min":49,"x_max":965,"o":"m 681 882 l 681 931 l 965 931 l 965 882 l 868 882 l 861 875 l 861 340 q 818 151 861 231 q 701 29 775 72 q 533 -14 628 -14 q 327 31 408 -14 q 206 153 246 76 q 167 324 167 229 l 167 875 l 160 882 l 49 882 l 49 931 l 410 931 l 410 882 l 299 882 l 292 875 l 292 340 q 319 193 292 257 q 403 92 347 129 q 540 56 458 56 q 671 89 613 56 q 764 186 729 122 q 799 340 799 250 l 799 875 l 792 882 l 681 882 m 746 1181 l 785 1160 q 728 1049 769 1079 q 646 1019 688 1019 q 560 1041 601 1019 q 483 1083 519 1063 q 414 1104 447 1104 q 372 1088 392 1104 q 338 1026 353 1072 l 299 1047 q 353 1156 314 1124 q 436 1188 393 1188 q 520 1167 479 1188 q 599 1124 561 1146 q 669 1103 638 1103 q 711 1119 692 1103 q 746 1181 731 1135 z "},"Ṹ":{"ha":1014,"x_min":49,"x_max":965,"o":"m 681 882 l 681 931 l 965 931 l 965 882 l 868 882 l 861 875 l 861 340 q 818 151 861 231 q 701 29 775 72 q 533 -14 628 -14 q 327 31 408 -14 q 206 153 246 76 q 167 324 167 229 l 167 875 l 160 882 l 49 882 l 49 931 l 410 931 l 410 882 l 299 882 l 292 875 l 292 340 q 319 193 292 257 q 403 92 347 129 q 540 56 458 56 q 671 89 613 56 q 764 186 729 122 q 799 340 799 250 l 799 875 l 792 882 l 681 882 m 746 1181 l 785 1160 q 728 1049 769 1079 q 646 1019 688 1019 q 560 1041 601 1019 q 483 1083 519 1063 q 414 1104 447 1104 q 372 1088 392 1104 q 338 1026 353 1072 l 299 1047 q 353 1156 314 1124 q 436 1188 393 1188 q 520 1167 479 1188 q 599 1124 561 1146 q 669 1103 638 1103 q 711 1119 692 1103 q 746 1181 731 1135 m 742 1403 l 549 1208 l 507 1208 l 589 1403 l 742 1403 z "},"V":{"ha":953,"x_min":21,"x_max":932,"o":"m 650 931 l 932 931 l 932 882 l 849 882 l 540 0 l 436 0 l 118 882 l 21 882 l 21 931 l 360 931 l 360 882 l 263 882 l 256 875 l 518 139 l 525 139 l 775 875 l 768 882 l 650 882 l 650 931 z "},"W":{"ha":1369,"x_min":25,"x_max":1344,"o":"m 390 0 l 122 882 l 25 882 l 25 931 l 356 931 l 356 882 l 265 882 l 258 875 l 475 167 l 482 167 l 664 788 l 640 882 l 550 882 l 550 931 l 875 931 l 875 882 l 783 882 l 776 875 l 978 167 l 985 167 l 1192 875 l 1185 882 l 1067 882 l 1067 931 l 1344 931 l 1344 882 l 1261 882 l 1001 0 l 890 0 l 701 667 l 694 667 l 501 0 l 390 0 z "},"Ẃ":{"ha":1369,"x_min":25,"x_max":1344,"o":"m 390 0 l 122 882 l 25 882 l 25 931 l 356 931 l 356 882 l 265 882 l 258 875 l 475 167 l 482 167 l 664 788 l 640 882 l 550 882 l 550 931 l 875 931 l 875 882 l 783 882 l 776 875 l 978 167 l 985 167 l 1192 875 l 1185 882 l 1067 882 l 1067 931 l 1344 931 l 1344 882 l 1261 882 l 1001 0 l 890 0 l 701 667 l 694 667 l 501 0 l 390 0 m 908 1208 l 715 1014 l 674 1014 l 756 1208 l 908 1208 z "},"Ŵ":{"ha":1369,"x_min":25,"x_max":1344,"o":"m 390 0 l 122 882 l 25 882 l 25 931 l 356 931 l 356 882 l 265 882 l 258 875 l 475 167 l 482 167 l 664 788 l 640 882 l 550 882 l 550 931 l 875 931 l 875 882 l 783 882 l 776 875 l 978 167 l 985 167 l 1192 875 l 1185 882 l 1067 882 l 1067 931 l 1344 931 l 1344 882 l 1261 882 l 1001 0 l 890 0 l 701 667 l 694 667 l 501 0 l 390 0 m 867 1014 l 708 1099 l 549 1014 l 507 1014 l 686 1208 l 729 1208 l 908 1014 l 867 1014 z "},"Ẅ":{"ha":1369,"x_min":25,"x_max":1344,"o":"m 390 0 l 122 882 l 25 882 l 25 931 l 356 931 l 356 882 l 265 882 l 258 875 l 475 167 l 482 167 l 664 788 l 640 882 l 550 882 l 550 931 l 875 931 l 875 882 l 783 882 l 776 875 l 978 167 l 985 167 l 1192 875 l 1185 882 l 1067 882 l 1067 931 l 1344 931 l 1344 882 l 1261 882 l 1001 0 l 890 0 l 701 667 l 694 667 l 501 0 l 390 0 m 556 1028 q 502 1051 525 1028 q 479 1104 479 1074 q 502 1158 479 1136 q 556 1181 525 1181 q 610 1158 588 1181 q 632 1104 632 1136 q 610 1051 632 1074 q 556 1028 588 1028 m 861 1028 q 808 1051 831 1028 q 785 1104 785 1074 q 808 1158 785 1136 q 861 1181 831 1181 q 915 1158 893 1181 q 938 1104 938 1136 q 915 1051 938 1074 q 861 1028 893 1028 z "},"Ẁ":{"ha":1369,"x_min":25,"x_max":1344,"o":"m 390 0 l 122 882 l 25 882 l 25 931 l 356 931 l 356 882 l 265 882 l 258 875 l 475 167 l 482 167 l 664 788 l 640 882 l 550 882 l 550 931 l 875 931 l 875 882 l 783 882 l 776 875 l 978 167 l 985 167 l 1192 875 l 1185 882 l 1067 882 l 1067 931 l 1344 931 l 1344 882 l 1261 882 l 1001 0 l 890 0 l 701 667 l 694 667 l 501 0 l 390 0 m 522 1208 l 675 1208 l 757 1014 l 715 1014 l 522 1208 z "},"X":{"ha":928,"x_min":22,"x_max":904,"o":"m 807 49 l 904 49 l 904 0 l 550 0 l 550 49 l 647 49 l 654 56 l 147 882 l 50 882 l 50 931 l 406 931 l 406 882 l 308 882 l 301 875 l 807 49 m 456 489 l 703 875 l 696 882 l 578 882 l 578 931 l 864 931 l 864 882 l 781 882 l 526 489 l 456 489 m 463 489 l 183 56 l 190 49 l 322 49 l 322 0 l 22 0 l 22 49 l 106 49 l 392 489 l 463 489 z "},"Y":{"ha":890,"x_min":15,"x_max":875,"o":"m 15 882 l 15 931 l 364 931 l 364 882 l 267 882 l 260 875 l 483 468 l 490 468 l 718 875 l 711 882 l 593 882 l 593 931 l 875 931 l 875 882 l 792 882 l 514 388 l 514 56 l 521 49 l 632 49 l 632 0 l 271 0 l 271 49 l 382 49 l 389 56 l 389 388 l 113 882 l 15 882 z "},"Ý":{"ha":890,"x_min":15,"x_max":875,"o":"m 15 882 l 15 931 l 364 931 l 364 882 l 267 882 l 260 875 l 483 468 l 490 468 l 718 875 l 711 882 l 593 882 l 593 931 l 875 931 l 875 882 l 792 882 l 514 388 l 514 56 l 521 49 l 632 49 l 632 0 l 271 0 l 271 49 l 382 49 l 389 56 l 389 388 l 113 882 l 15 882 m 674 1208 l 481 1014 l 439 1014 l 521 1208 l 674 1208 z "},"Ŷ":{"ha":890,"x_min":15,"x_max":875,"o":"m 15 882 l 15 931 l 364 931 l 364 882 l 267 882 l 260 875 l 483 468 l 490 468 l 718 875 l 711 882 l 593 882 l 593 931 l 875 931 l 875 882 l 792 882 l 514 388 l 514 56 l 521 49 l 632 49 l 632 0 l 271 0 l 271 49 l 382 49 l 389 56 l 389 388 l 113 882 l 15 882 m 632 1014 l 474 1099 l 314 1014 l 272 1014 l 451 1208 l 494 1208 l 674 1014 l 632 1014 z "},"Ÿ":{"ha":890,"x_min":15,"x_max":875,"o":"m 15 882 l 15 931 l 364 931 l 364 882 l 267 882 l 260 875 l 483 468 l 490 468 l 718 875 l 711 882 l 593 882 l 593 931 l 875 931 l 875 882 l 792 882 l 514 388 l 514 56 l 521 49 l 632 49 l 632 0 l 271 0 l 271 49 l 382 49 l 389 56 l 389 388 l 113 882 l 15 882 m 321 1028 q 267 1051 290 1028 q 244 1104 244 1074 q 267 1158 244 1136 q 321 1181 290 1181 q 375 1158 353 1181 q 397 1104 397 1136 q 375 1051 397 1074 q 321 1028 353 1028 m 626 1028 q 573 1051 596 1028 q 550 1104 550 1074 q 573 1158 550 1136 q 626 1181 596 1181 q 681 1158 658 1181 q 703 1104 703 1136 q 681 1051 703 1074 q 626 1028 658 1028 z "},"Ẏ":{"ha":890,"x_min":15,"x_max":875,"o":"m 15 882 l 15 931 l 364 931 l 364 882 l 267 882 l 260 875 l 483 468 l 490 468 l 718 875 l 711 882 l 593 882 l 593 931 l 875 931 l 875 882 l 792 882 l 514 388 l 514 56 l 521 49 l 632 49 l 632 0 l 271 0 l 271 49 l 382 49 l 389 56 l 389 388 l 113 882 l 15 882 m 474 1028 q 420 1051 443 1028 q 397 1104 397 1074 q 420 1158 397 1136 q 474 1181 443 1181 q 528 1158 506 1181 q 550 1104 550 1136 q 528 1051 550 1074 q 474 1028 506 1028 z "},"Ỵ":{"ha":890,"x_min":15,"x_max":875,"o":"m 15 882 l 15 931 l 364 931 l 364 882 l 267 882 l 260 875 l 483 468 l 490 468 l 718 875 l 711 882 l 593 882 l 593 931 l 875 931 l 875 882 l 792 882 l 514 388 l 514 56 l 521 49 l 632 49 l 632 0 l 271 0 l 271 49 l 382 49 l 389 56 l 389 388 l 113 882 l 15 882 m 446 -278 q 392 -255 415 -278 q 369 -201 369 -232 q 392 -147 369 -169 q 446 -125 415 -125 q 500 -147 478 -125 q 522 -201 522 -169 q 500 -255 522 -232 q 446 -278 478 -278 z "},"Ỳ":{"ha":890,"x_min":15,"x_max":875,"o":"m 15 882 l 15 931 l 364 931 l 364 882 l 267 882 l 260 875 l 483 468 l 490 468 l 718 875 l 711 882 l 593 882 l 593 931 l 875 931 l 875 882 l 792 882 l 514 388 l 514 56 l 521 49 l 632 49 l 632 0 l 271 0 l 271 49 l 382 49 l 389 56 l 389 388 l 113 882 l 15 882 m 288 1208 l 440 1208 l 522 1014 l 481 1014 l 288 1208 z "},"Ỷ":{"ha":890,"x_min":15,"x_max":875,"o":"m 15 882 l 15 931 l 364 931 l 364 882 l 267 882 l 260 875 l 483 468 l 490 468 l 718 875 l 711 882 l 593 882 l 593 931 l 875 931 l 875 882 l 792 882 l 514 388 l 514 56 l 521 49 l 632 49 l 632 0 l 271 0 l 271 49 l 382 49 l 389 56 l 389 388 l 113 882 l 15 882 m 497 1014 l 456 1014 q 468 1057 456 1039 q 492 1093 481 1075 q 504 1136 504 1111 q 492 1169 504 1158 q 461 1179 481 1179 q 424 1169 442 1179 q 392 1144 407 1160 l 369 1167 q 419 1238 389 1214 q 496 1263 449 1263 q 544 1252 519 1263 q 585 1221 568 1242 q 603 1167 603 1200 q 590 1119 603 1138 q 560 1084 578 1100 q 524 1052 542 1068 q 497 1014 507 1036 z "},"Ȳ":{"ha":890,"x_min":15,"x_max":875,"o":"m 15 882 l 15 931 l 364 931 l 364 882 l 267 882 l 260 875 l 483 468 l 490 468 l 718 875 l 711 882 l 593 882 l 593 931 l 875 931 l 875 882 l 792 882 l 514 388 l 514 56 l 521 49 l 632 49 l 632 0 l 271 0 l 271 49 l 382 49 l 389 56 l 389 388 l 113 882 l 15 882 m 244 1139 l 703 1139 l 703 1069 l 244 1069 l 244 1139 z "},"Ỹ":{"ha":890,"x_min":15,"x_max":875,"o":"m 15 882 l 15 931 l 364 931 l 364 882 l 267 882 l 260 875 l 483 468 l 490 468 l 718 875 l 711 882 l 593 882 l 593 931 l 875 931 l 875 882 l 792 882 l 514 388 l 514 56 l 521 49 l 632 49 l 632 0 l 271 0 l 271 49 l 382 49 l 389 56 l 389 388 l 113 882 l 15 882 m 678 1181 l 717 1160 q 660 1049 701 1079 q 578 1019 619 1019 q 492 1041 533 1019 q 415 1083 451 1063 q 346 1104 379 1104 q 304 1088 324 1104 q 269 1026 285 1072 l 231 1047 q 285 1156 246 1124 q 368 1188 325 1188 q 452 1167 411 1188 q 531 1124 493 1146 q 601 1103 569 1103 q 643 1119 624 1103 q 678 1181 663 1135 z "},"Z":{"ha":807,"x_min":31,"x_max":781,"o":"m 31 0 l 31 42 l 572 875 l 565 882 l 358 882 q 226 865 278 882 q 142 808 174 849 q 90 694 110 768 l 44 708 l 94 931 l 728 931 l 728 889 l 185 56 l 192 49 l 457 49 q 640 101 578 49 q 732 264 703 154 l 781 264 l 721 0 l 31 0 z "},"Ź":{"ha":807,"x_min":31,"x_max":781,"o":"m 31 0 l 31 42 l 572 875 l 565 882 l 358 882 q 226 865 278 882 q 142 808 174 849 q 90 694 110 768 l 44 708 l 94 931 l 728 931 l 728 889 l 185 56 l 192 49 l 457 49 q 640 101 578 49 q 732 264 703 154 l 781 264 l 721 0 l 31 0 m 611 1208 l 418 1014 l 376 1014 l 458 1208 l 611 1208 z "},"Ž":{"ha":807,"x_min":31,"x_max":781,"o":"m 31 0 l 31 42 l 572 875 l 565 882 l 358 882 q 226 865 278 882 q 142 808 174 849 q 90 694 110 768 l 44 708 l 94 931 l 728 931 l 728 889 l 185 56 l 192 49 l 457 49 q 640 101 578 49 q 732 264 703 154 l 781 264 l 721 0 l 31 0 m 389 1014 l 210 1208 l 251 1208 l 411 1124 l 569 1208 l 611 1208 l 432 1014 l 389 1014 z "},"Ż":{"ha":807,"x_min":31,"x_max":781,"o":"m 31 0 l 31 42 l 572 875 l 565 882 l 358 882 q 226 865 278 882 q 142 808 174 849 q 90 694 110 768 l 44 708 l 94 931 l 728 931 l 728 889 l 185 56 l 192 49 l 457 49 q 640 101 578 49 q 732 264 703 154 l 781 264 l 721 0 l 31 0 m 411 1028 q 358 1051 381 1028 q 335 1104 335 1074 q 358 1158 335 1136 q 411 1181 381 1181 q 465 1158 443 1181 q 488 1104 488 1136 q 465 1051 488 1074 q 411 1028 443 1028 z "},"Ẓ":{"ha":807,"x_min":31,"x_max":781,"o":"m 31 0 l 31 42 l 572 875 l 565 882 l 358 882 q 226 865 278 882 q 142 808 174 849 q 90 694 110 768 l 44 708 l 94 931 l 728 931 l 728 889 l 185 56 l 192 49 l 457 49 q 640 101 578 49 q 732 264 703 154 l 781 264 l 721 0 l 31 0 m 411 -278 q 358 -255 381 -278 q 335 -201 335 -232 q 358 -147 335 -169 q 411 -125 381 -125 q 465 -147 443 -125 q 488 -201 488 -169 q 465 -255 488 -232 q 411 -278 443 -278 z "},"ʙ":{"ha":779,"x_min":56,"x_max":724,"o":"m 533 339 q 676 285 628 329 q 724 179 724 240 q 683 78 724 118 q 582 19 642 39 q 464 0 522 0 l 56 0 l 56 49 l 160 49 l 167 56 l 167 583 l 160 590 l 56 590 l 56 639 l 419 639 q 562 622 501 639 q 655 572 622 606 q 688 485 688 538 q 648 392 688 429 q 533 339 608 354 m 278 583 l 278 349 l 392 349 q 482 366 443 349 q 543 413 521 383 q 565 478 565 443 q 545 540 565 515 q 486 578 525 565 q 392 590 447 590 l 285 590 l 278 583 m 436 49 q 519 63 483 49 q 577 104 556 76 q 599 174 599 132 q 578 242 599 214 q 518 285 557 271 q 424 300 479 300 l 278 300 l 278 56 l 285 49 l 436 49 z "},"ɢ":{"ha":789,"x_min":69,"x_max":744,"o":"m 474 310 l 744 310 l 744 261 l 679 261 l 672 254 l 672 0 l 624 0 l 589 76 l 582 76 l 568 208 l 568 254 l 561 261 l 474 261 l 474 310 m 404 43 q 487 62 450 43 q 546 117 524 81 q 568 208 568 154 l 582 76 q 507 13 551 38 q 392 -12 463 -12 q 224 33 296 -12 q 110 155 151 79 q 69 319 69 231 q 93 446 69 386 q 160 551 117 506 q 265 624 204 597 q 401 650 326 650 q 504 634 461 650 q 588 593 547 618 l 611 638 l 653 638 q 663 535 657 582 q 679 431 669 488 l 640 419 q 569 530 611 490 q 484 586 528 569 q 400 603 440 603 q 278 560 324 603 q 211 455 232 518 q 190 326 190 392 q 214 190 190 256 q 285 84 238 125 q 404 43 332 43 z "},"ʛ":{"ha":789,"x_min":69,"x_max":846,"o":"m 474 310 l 744 310 l 744 261 l 679 261 l 672 254 l 672 0 l 624 0 l 589 76 l 582 76 l 568 208 l 568 254 l 561 261 l 474 261 l 474 310 m 769 824 q 826 803 806 824 q 846 754 846 783 q 826 706 846 728 q 776 685 807 685 q 735 697 754 685 q 708 742 717 710 q 656 660 665 707 q 657 556 647 614 q 679 431 667 499 l 640 419 q 569 530 611 490 q 484 586 528 569 q 400 603 440 603 q 278 560 324 603 q 211 455 232 518 q 190 326 190 392 q 214 190 190 256 q 285 84 238 125 q 404 43 332 43 q 487 62 450 43 q 546 117 524 81 q 568 208 568 154 l 582 76 q 507 13 551 38 q 392 -12 463 -12 q 224 33 296 -12 q 110 155 151 79 q 69 319 69 231 q 93 446 69 386 q 160 551 117 506 q 265 624 204 597 q 401 650 326 650 q 504 634 461 650 q 588 593 547 618 q 652 770 607 717 q 769 824 697 824 z "},"ʜ":{"ha":889,"x_min":56,"x_max":833,"o":"m 278 56 l 285 49 l 389 49 l 389 0 l 56 0 l 56 49 l 160 49 l 167 56 l 167 583 l 160 590 l 56 590 l 56 639 l 389 639 l 389 590 l 285 590 l 278 583 l 278 56 m 722 56 l 729 49 l 833 49 l 833 0 l 500 0 l 500 49 l 604 49 l 611 56 l 611 583 l 604 590 l 500 590 l 500 639 l 833 639 l 833 590 l 729 590 l 722 583 l 722 56 m 678 319 l 222 319 l 222 368 l 678 368 l 678 319 z "},"ɪ":{"ha":444,"x_min":56,"x_max":389,"o":"m 278 56 l 285 49 l 389 49 l 389 0 l 56 0 l 56 49 l 160 49 l 167 56 l 167 583 l 160 590 l 56 590 l 56 639 l 389 639 l 389 590 l 285 590 l 278 583 l 278 56 z "},"ʟ":{"ha":661,"x_min":56,"x_max":640,"o":"m 592 249 l 640 249 l 585 0 l 56 0 l 56 49 l 160 49 l 167 56 l 167 583 l 160 590 l 56 590 l 56 639 l 389 639 l 389 590 l 285 590 l 278 583 l 278 56 l 285 49 l 393 49 q 480 71 443 49 q 544 138 517 93 q 592 249 572 183 z "},"ɴ":{"ha":882,"x_min":56,"x_max":833,"o":"m 625 0 l 243 493 l 236 493 l 174 583 l 167 590 l 56 590 l 56 639 l 278 639 l 660 146 l 667 146 l 667 0 l 625 0 m 56 0 l 56 49 l 167 49 l 174 56 l 174 583 l 236 493 l 236 56 l 243 49 l 354 49 l 354 0 l 56 0 m 833 639 l 833 590 l 736 590 l 729 583 l 729 0 l 667 0 l 667 583 l 660 590 l 549 590 l 549 639 l 833 639 z "},"ɶ":{"ha":1111,"x_min":69,"x_max":1056,"o":"m 1007 225 l 1056 225 l 1006 0 l 592 0 q 507 -3 553 0 q 417 -7 461 -7 q 238 35 317 -7 q 115 151 160 78 q 69 315 69 224 q 114 484 69 410 q 237 602 158 558 q 417 646 315 646 q 510 642 461 646 q 592 639 558 639 l 993 639 l 1036 449 l 988 438 q 942 535 968 501 q 874 583 915 569 q 767 597 832 597 l 679 597 l 672 590 l 672 353 l 736 353 q 787 360 763 353 q 827 391 811 368 q 844 460 843 414 l 886 460 l 886 206 l 844 206 q 814 288 842 264 q 736 311 786 311 l 672 311 l 672 56 l 679 49 l 779 49 q 928 90 878 49 q 1007 225 978 132 m 549 199 l 549 438 q 529 536 549 501 q 478 585 510 571 q 408 599 447 599 q 295 564 342 599 q 224 468 249 529 q 200 329 200 407 q 228 178 200 243 q 307 76 256 113 q 426 40 358 40 q 497 56 469 40 q 536 107 524 72 q 549 199 549 142 z "},"ʀ":{"ha":772,"x_min":56,"x_max":786,"o":"m 701 49 l 786 49 l 786 0 l 471 0 l 471 49 l 556 49 l 563 56 l 401 272 l 278 272 l 278 56 l 285 49 l 389 49 l 389 0 l 56 0 l 56 49 l 160 49 l 167 56 l 167 583 l 160 590 l 56 590 l 56 639 l 396 639 q 524 620 463 639 q 623 562 585 601 q 661 458 661 522 q 617 354 661 394 q 517 293 574 314 l 701 49 m 367 321 q 487 352 443 321 q 531 456 531 383 q 486 556 531 521 q 367 590 442 590 l 285 590 l 278 583 l 278 321 l 367 321 z "},"ʁ":{"ha":772,"x_min":56,"x_max":786,"o":"m 701 590 l 517 346 q 617 285 574 325 q 661 181 661 244 q 623 78 661 118 q 524 19 585 38 q 396 0 463 0 l 56 0 l 56 49 l 160 49 l 167 56 l 167 583 l 160 590 l 56 590 l 56 639 l 389 639 l 389 590 l 285 590 l 278 583 l 278 367 l 401 367 l 563 583 l 556 590 l 471 590 l 471 639 l 786 639 l 786 590 l 701 590 m 367 318 l 278 318 l 278 56 l 285 49 l 367 49 q 486 83 442 49 q 531 183 531 118 q 487 287 531 256 q 367 318 443 318 z "},"ᴛ":{"ha":657,"x_min":21,"x_max":636,"o":"m 279 590 q 183 578 225 590 q 112 531 142 565 q 63 432 82 497 l 21 443 l 53 639 l 604 639 l 636 443 l 594 432 q 517 558 567 525 q 375 590 467 590 l 279 590 m 385 615 l 385 56 l 392 49 l 496 49 l 496 0 l 163 0 l 163 49 l 267 49 l 274 56 l 274 615 l 385 615 z "},"ʏ":{"ha":735,"x_min":-7,"x_max":728,"o":"m 442 639 l 728 639 l 728 590 l 644 590 l 422 263 l 422 56 l 429 49 l 540 49 l 540 0 l 193 0 l 193 49 l 304 49 l 311 56 l 311 263 l 90 590 l -7 590 l -7 639 l 342 639 l 342 590 l 244 590 l 238 583 l 396 339 l 403 339 l 567 583 l 560 590 l 442 590 l 442 639 z "},"a":{"ha":729,"x_min":49,"x_max":736,"o":"m 603 -14 q 522 7 556 -14 q 479 69 489 28 l 479 417 q 448 549 479 501 q 338 597 417 597 q 258 588 294 597 q 189 556 221 579 q 220 525 211 543 q 229 486 229 507 q 208 436 229 456 q 160 417 188 417 q 110 438 131 417 q 90 494 90 458 q 113 560 90 531 q 172 610 135 589 q 256 642 210 631 q 350 653 303 653 q 471 634 417 653 q 558 569 525 615 q 590 438 590 522 l 590 107 q 599 68 590 88 q 635 49 608 49 q 669 63 654 49 q 699 94 685 76 l 736 63 q 700 22 719 39 q 657 -5 681 4 q 603 -14 633 -14 m 278 -14 q 108 40 168 -14 q 49 169 49 94 q 108 299 49 246 q 278 353 168 353 q 397 329 347 353 q 479 269 447 306 l 479 207 q 389 272 435 254 q 303 290 343 290 q 199 258 238 290 q 160 169 160 225 q 199 82 160 115 q 303 49 238 49 q 389 67 343 49 q 479 132 435 85 l 479 69 q 397 10 447 33 q 278 -14 347 -14 z "},"á":{"ha":729,"x_min":49,"x_max":736,"o":"m 603 -14 q 522 7 556 -14 q 479 69 489 28 l 479 417 q 448 549 479 501 q 338 597 417 597 q 258 588 294 597 q 189 556 221 579 q 220 525 211 543 q 229 486 229 507 q 208 436 229 456 q 160 417 188 417 q 110 438 131 417 q 90 494 90 458 q 113 560 90 531 q 172 610 135 589 q 256 642 210 631 q 350 653 303 653 q 471 634 417 653 q 558 569 525 615 q 590 438 590 522 l 590 107 q 599 68 590 88 q 635 49 608 49 q 669 63 654 49 q 699 94 685 76 l 736 63 q 700 22 719 39 q 657 -5 681 4 q 603 -14 633 -14 m 278 -14 q 108 40 168 -14 q 49 169 49 94 q 108 299 49 246 q 278 353 168 353 q 397 329 347 353 q 479 269 447 306 l 479 207 q 389 272 435 254 q 303 290 343 290 q 199 258 238 290 q 160 169 160 225 q 199 82 160 115 q 303 49 238 49 q 389 67 343 49 q 479 132 435 85 l 479 69 q 397 10 447 33 q 278 -14 347 -14 m 335 764 l 389 1000 l 514 1000 l 376 764 l 335 764 z "},"ă":{"ha":729,"x_min":49,"x_max":736,"o":"m 603 -14 q 522 7 556 -14 q 479 69 489 28 l 479 417 q 448 549 479 501 q 338 597 417 597 q 258 588 294 597 q 189 556 221 579 q 220 525 211 543 q 229 486 229 507 q 208 436 229 456 q 160 417 188 417 q 110 438 131 417 q 90 494 90 458 q 113 560 90 531 q 172 610 135 589 q 256 642 210 631 q 350 653 303 653 q 471 634 417 653 q 558 569 525 615 q 590 438 590 522 l 590 107 q 599 68 590 88 q 635 49 608 49 q 669 63 654 49 q 699 94 685 76 l 736 63 q 700 22 719 39 q 657 -5 681 4 q 603 -14 633 -14 m 278 -14 q 108 40 168 -14 q 49 169 49 94 q 108 299 49 246 q 278 353 168 353 q 397 329 347 353 q 479 269 447 306 l 479 207 q 389 272 435 254 q 303 290 343 290 q 199 258 238 290 q 160 169 160 225 q 199 82 160 115 q 303 49 238 49 q 389 67 343 49 q 479 132 435 85 l 479 69 q 397 10 447 33 q 278 -14 347 -14 m 369 778 q 233 838 285 778 q 182 986 182 897 l 224 986 q 249 924 228 950 q 301 883 269 897 q 369 868 333 868 q 438 883 406 868 q 491 924 469 897 q 515 986 513 950 l 557 986 q 506 838 557 897 q 369 778 454 778 z "},"ắ":{"ha":729,"x_min":49,"x_max":736,"o":"m 603 -14 q 522 7 556 -14 q 479 69 489 28 l 479 417 q 448 549 479 501 q 338 597 417 597 q 258 588 294 597 q 189 556 221 579 q 220 525 211 543 q 229 486 229 507 q 208 436 229 456 q 160 417 188 417 q 110 438 131 417 q 90 494 90 458 q 113 560 90 531 q 172 610 135 589 q 256 642 210 631 q 350 653 303 653 q 471 634 417 653 q 558 569 525 615 q 590 438 590 522 l 590 107 q 599 68 590 88 q 635 49 608 49 q 669 63 654 49 q 699 94 685 76 l 736 63 q 700 22 719 39 q 657 -5 681 4 q 603 -14 633 -14 m 278 -14 q 108 40 168 -14 q 49 169 49 94 q 108 299 49 246 q 278 353 168 353 q 397 329 347 353 q 479 269 447 306 l 479 207 q 389 272 435 254 q 303 290 343 290 q 199 258 238 290 q 160 169 160 225 q 199 82 160 115 q 303 49 238 49 q 389 67 343 49 q 479 132 435 85 l 479 69 q 397 10 447 33 q 278 -14 347 -14 m 369 778 q 233 838 285 778 q 182 986 182 897 l 224 986 q 249 924 228 950 q 301 883 269 897 q 369 868 333 868 q 438 883 406 868 q 491 924 469 897 q 515 986 513 950 l 557 986 q 506 838 557 897 q 369 778 454 778 m 335 986 l 389 1222 l 514 1222 l 376 986 l 335 986 z "},"ặ":{"ha":729,"x_min":49,"x_max":736,"o":"m 603 -14 q 522 7 556 -14 q 479 69 489 28 l 479 417 q 448 549 479 501 q 338 597 417 597 q 258 588 294 597 q 189 556 221 579 q 220 525 211 543 q 229 486 229 507 q 208 436 229 456 q 160 417 188 417 q 110 438 131 417 q 90 494 90 458 q 113 560 90 531 q 172 610 135 589 q 256 642 210 631 q 350 653 303 653 q 471 634 417 653 q 558 569 525 615 q 590 438 590 522 l 590 107 q 599 68 590 88 q 635 49 608 49 q 669 63 654 49 q 699 94 685 76 l 736 63 q 700 22 719 39 q 657 -5 681 4 q 603 -14 633 -14 m 278 -14 q 108 40 168 -14 q 49 169 49 94 q 108 299 49 246 q 278 353 168 353 q 397 329 347 353 q 479 269 447 306 l 479 207 q 389 272 435 254 q 303 290 343 290 q 199 258 238 290 q 160 169 160 225 q 199 82 160 115 q 303 49 238 49 q 389 67 343 49 q 479 132 435 85 l 479 69 q 397 10 447 33 q 278 -14 347 -14 m 369 -278 q 316 -255 339 -278 q 293 -201 293 -232 q 316 -147 293 -169 q 369 -125 339 -125 q 424 -147 401 -125 q 446 -201 446 -169 q 424 -255 446 -232 q 369 -278 401 -278 m 369 778 q 233 838 285 778 q 182 986 182 897 l 224 986 q 249 924 228 950 q 301 883 269 897 q 369 868 333 868 q 438 883 406 868 q 491 924 469 897 q 515 986 513 950 l 557 986 q 506 838 557 897 q 369 778 454 778 z "},"ằ":{"ha":729,"x_min":49,"x_max":736,"o":"m 603 -14 q 522 7 556 -14 q 479 69 489 28 l 479 417 q 448 549 479 501 q 338 597 417 597 q 258 588 294 597 q 189 556 221 579 q 220 525 211 543 q 229 486 229 507 q 208 436 229 456 q 160 417 188 417 q 110 438 131 417 q 90 494 90 458 q 113 560 90 531 q 172 610 135 589 q 256 642 210 631 q 350 653 303 653 q 471 634 417 653 q 558 569 525 615 q 590 438 590 522 l 590 107 q 599 68 590 88 q 635 49 608 49 q 669 63 654 49 q 699 94 685 76 l 736 63 q 700 22 719 39 q 657 -5 681 4 q 603 -14 633 -14 m 278 -14 q 108 40 168 -14 q 49 169 49 94 q 108 299 49 246 q 278 353 168 353 q 397 329 347 353 q 479 269 447 306 l 479 207 q 389 272 435 254 q 303 290 343 290 q 199 258 238 290 q 160 169 160 225 q 199 82 160 115 q 303 49 238 49 q 389 67 343 49 q 479 132 435 85 l 479 69 q 397 10 447 33 q 278 -14 347 -14 m 369 778 q 233 838 285 778 q 182 986 182 897 l 224 986 q 249 924 228 950 q 301 883 269 897 q 369 868 333 868 q 438 883 406 868 q 491 924 469 897 q 515 986 513 950 l 557 986 q 506 838 557 897 q 369 778 454 778 m 356 986 l 218 1222 l 343 1222 l 397 986 l 356 986 z "},"ẳ":{"ha":729,"x_min":49,"x_max":736,"o":"m 603 -14 q 522 7 556 -14 q 479 69 489 28 l 479 417 q 448 549 479 501 q 338 597 417 597 q 258 588 294 597 q 189 556 221 579 q 220 525 211 543 q 229 486 229 507 q 208 436 229 456 q 160 417 188 417 q 110 438 131 417 q 90 494 90 458 q 113 560 90 531 q 172 610 135 589 q 256 642 210 631 q 350 653 303 653 q 471 634 417 653 q 558 569 525 615 q 590 438 590 522 l 590 107 q 599 68 590 88 q 635 49 608 49 q 669 63 654 49 q 699 94 685 76 l 736 63 q 700 22 719 39 q 657 -5 681 4 q 603 -14 633 -14 m 278 -14 q 108 40 168 -14 q 49 169 49 94 q 108 299 49 246 q 278 353 168 353 q 397 329 347 353 q 479 269 447 306 l 479 207 q 389 272 435 254 q 303 290 343 290 q 199 258 238 290 q 160 169 160 225 q 199 82 160 115 q 303 49 238 49 q 389 67 343 49 q 479 132 435 85 l 479 69 q 397 10 447 33 q 278 -14 347 -14 m 369 778 q 233 838 285 778 q 182 986 182 897 l 224 986 q 249 924 228 950 q 301 883 269 897 q 369 868 333 868 q 438 883 406 868 q 491 924 469 897 q 515 986 513 950 l 557 986 q 506 838 557 897 q 369 778 454 778 m 351 988 q 364 1031 351 1013 q 388 1067 376 1049 q 400 1110 400 1085 q 388 1142 400 1132 q 357 1153 376 1153 q 320 1143 338 1153 q 288 1118 303 1133 l 265 1140 q 315 1212 285 1188 q 392 1236 344 1236 q 440 1226 415 1236 q 481 1194 464 1215 q 499 1140 499 1174 q 486 1092 499 1111 q 456 1058 474 1074 q 420 1026 438 1042 q 393 988 403 1010 l 351 988 z "},"ẵ":{"ha":729,"x_min":49,"x_max":736,"o":"m 603 -14 q 522 7 556 -14 q 479 69 489 28 l 479 417 q 448 549 479 501 q 338 597 417 597 q 258 588 294 597 q 189 556 221 579 q 220 525 211 543 q 229 486 229 507 q 208 436 229 456 q 160 417 188 417 q 110 438 131 417 q 90 494 90 458 q 113 560 90 531 q 172 610 135 589 q 256 642 210 631 q 350 653 303 653 q 471 634 417 653 q 558 569 525 615 q 590 438 590 522 l 590 107 q 599 68 590 88 q 635 49 608 49 q 669 63 654 49 q 699 94 685 76 l 736 63 q 700 22 719 39 q 657 -5 681 4 q 603 -14 633 -14 m 278 -14 q 108 40 168 -14 q 49 169 49 94 q 108 299 49 246 q 278 353 168 353 q 397 329 347 353 q 479 269 447 306 l 479 207 q 389 272 435 254 q 303 290 343 290 q 199 258 238 290 q 160 169 160 225 q 199 82 160 115 q 303 49 238 49 q 389 67 343 49 q 479 132 435 85 l 479 69 q 397 10 447 33 q 278 -14 347 -14 m 369 778 q 233 838 285 778 q 182 986 182 897 l 224 986 q 249 924 228 950 q 301 883 269 897 q 369 868 333 868 q 438 883 406 868 q 491 924 469 897 q 515 986 513 950 l 557 986 q 506 838 557 897 q 369 778 454 778 m 446 1006 q 390 1018 413 1006 q 349 1048 367 1031 q 313 1078 331 1065 q 269 1090 294 1090 q 228 1074 247 1090 q 193 1013 208 1058 l 154 1033 q 209 1142 169 1110 q 292 1174 249 1174 q 347 1161 324 1174 q 388 1131 369 1149 q 426 1101 407 1114 q 469 1089 444 1089 q 511 1105 492 1089 q 546 1167 531 1121 l 585 1146 q 528 1035 569 1065 q 446 1006 488 1006 z "},"ǎ":{"ha":729,"x_min":49,"x_max":736,"o":"m 603 -14 q 522 7 556 -14 q 479 69 489 28 l 479 417 q 448 549 479 501 q 338 597 417 597 q 258 588 294 597 q 189 556 221 579 q 220 525 211 543 q 229 486 229 507 q 208 436 229 456 q 160 417 188 417 q 110 438 131 417 q 90 494 90 458 q 113 560 90 531 q 172 610 135 589 q 256 642 210 631 q 350 653 303 653 q 471 634 417 653 q 558 569 525 615 q 590 438 590 522 l 590 107 q 599 68 590 88 q 635 49 608 49 q 669 63 654 49 q 699 94 685 76 l 736 63 q 700 22 719 39 q 657 -5 681 4 q 603 -14 633 -14 m 278 -14 q 108 40 168 -14 q 49 169 49 94 q 108 299 49 246 q 278 353 168 353 q 397 329 347 353 q 479 269 447 306 l 479 207 q 389 272 435 254 q 303 290 343 290 q 199 258 238 290 q 160 169 160 225 q 199 82 160 115 q 303 49 238 49 q 389 67 343 49 q 479 132 435 85 l 479 69 q 397 10 447 33 q 278 -14 347 -14 m 347 764 l 196 1000 l 238 1000 l 414 831 l 325 831 l 500 1000 l 542 1000 l 390 764 l 347 764 z "},"â":{"ha":729,"x_min":49,"x_max":736,"o":"m 603 -14 q 522 7 556 -14 q 479 69 489 28 l 479 417 q 448 549 479 501 q 338 597 417 597 q 258 588 294 597 q 189 556 221 579 q 220 525 211 543 q 229 486 229 507 q 208 436 229 456 q 160 417 188 417 q 110 438 131 417 q 90 494 90 458 q 113 560 90 531 q 172 610 135 589 q 256 642 210 631 q 350 653 303 653 q 471 634 417 653 q 558 569 525 615 q 590 438 590 522 l 590 107 q 599 68 590 88 q 635 49 608 49 q 669 63 654 49 q 699 94 685 76 l 736 63 q 700 22 719 39 q 657 -5 681 4 q 603 -14 633 -14 m 278 -14 q 108 40 168 -14 q 49 169 49 94 q 108 299 49 246 q 278 353 168 353 q 397 329 347 353 q 479 269 447 306 l 479 207 q 389 272 435 254 q 303 290 343 290 q 199 258 238 290 q 160 169 160 225 q 199 82 160 115 q 303 49 238 49 q 389 67 343 49 q 479 132 435 85 l 479 69 q 397 10 447 33 q 278 -14 347 -14 m 182 764 l 333 1000 l 376 1000 l 528 764 l 486 764 l 311 933 l 400 933 l 224 764 l 182 764 z "},"ấ":{"ha":729,"x_min":49,"x_max":736,"o":"m 603 -14 q 522 7 556 -14 q 479 69 489 28 l 479 417 q 448 549 479 501 q 338 597 417 597 q 258 588 294 597 q 189 556 221 579 q 220 525 211 543 q 229 486 229 507 q 208 436 229 456 q 160 417 188 417 q 110 438 131 417 q 90 494 90 458 q 113 560 90 531 q 172 610 135 589 q 256 642 210 631 q 350 653 303 653 q 471 634 417 653 q 558 569 525 615 q 590 438 590 522 l 590 107 q 599 68 590 88 q 635 49 608 49 q 669 63 654 49 q 699 94 685 76 l 736 63 q 700 22 719 39 q 657 -5 681 4 q 603 -14 633 -14 m 278 -14 q 108 40 168 -14 q 49 169 49 94 q 108 299 49 246 q 278 353 168 353 q 397 329 347 353 q 479 269 447 306 l 479 207 q 389 272 435 254 q 303 290 343 290 q 199 258 238 290 q 160 169 160 225 q 199 82 160 115 q 303 49 238 49 q 389 67 343 49 q 479 132 435 85 l 479 69 q 397 10 447 33 q 278 -14 347 -14 m 196 764 l 347 1000 l 390 1000 l 542 764 l 500 764 l 325 933 l 414 933 l 238 764 l 196 764 m 500 938 l 554 1174 l 679 1174 l 542 938 l 500 938 z "},"ậ":{"ha":729,"x_min":49,"x_max":736,"o":"m 603 -14 q 522 7 556 -14 q 479 69 489 28 l 479 417 q 448 549 479 501 q 338 597 417 597 q 258 588 294 597 q 189 556 221 579 q 220 525 211 543 q 229 486 229 507 q 208 436 229 456 q 160 417 188 417 q 110 438 131 417 q 90 494 90 458 q 113 560 90 531 q 172 610 135 589 q 256 642 210 631 q 350 653 303 653 q 471 634 417 653 q 558 569 525 615 q 590 438 590 522 l 590 107 q 599 68 590 88 q 635 49 608 49 q 669 63 654 49 q 699 94 685 76 l 736 63 q 700 22 719 39 q 657 -5 681 4 q 603 -14 633 -14 m 278 -14 q 108 40 168 -14 q 49 169 49 94 q 108 299 49 246 q 278 353 168 353 q 397 329 347 353 q 479 269 447 306 l 479 207 q 389 272 435 254 q 303 290 343 290 q 199 258 238 290 q 160 169 160 225 q 199 82 160 115 q 303 49 238 49 q 389 67 343 49 q 479 132 435 85 l 479 69 q 397 10 447 33 q 278 -14 347 -14 m 369 -278 q 316 -255 339 -278 q 293 -201 293 -232 q 316 -147 293 -169 q 369 -125 339 -125 q 424 -147 401 -125 q 446 -201 446 -169 q 424 -255 446 -232 q 369 -278 401 -278 m 182 764 l 333 1000 l 376 1000 l 528 764 l 486 764 l 311 933 l 400 933 l 224 764 l 182 764 z "},"ầ":{"ha":729,"x_min":49,"x_max":736,"o":"m 603 -14 q 522 7 556 -14 q 479 69 489 28 l 479 417 q 448 549 479 501 q 338 597 417 597 q 258 588 294 597 q 189 556 221 579 q 220 525 211 543 q 229 486 229 507 q 208 436 229 456 q 160 417 188 417 q 110 438 131 417 q 90 494 90 458 q 113 560 90 531 q 172 610 135 589 q 256 642 210 631 q 350 653 303 653 q 471 634 417 653 q 558 569 525 615 q 590 438 590 522 l 590 107 q 599 68 590 88 q 635 49 608 49 q 669 63 654 49 q 699 94 685 76 l 736 63 q 700 22 719 39 q 657 -5 681 4 q 603 -14 633 -14 m 278 -14 q 108 40 168 -14 q 49 169 49 94 q 108 299 49 246 q 278 353 168 353 q 397 329 347 353 q 479 269 447 306 l 479 207 q 389 272 435 254 q 303 290 343 290 q 199 258 238 290 q 160 169 160 225 q 199 82 160 115 q 303 49 238 49 q 389 67 343 49 q 479 132 435 85 l 479 69 q 397 10 447 33 q 278 -14 347 -14 m 185 764 l 336 1000 l 379 1000 l 531 764 l 489 764 l 314 933 l 403 933 l 226 764 l 185 764 m 511 938 l 374 1174 l 499 1174 l 553 938 l 511 938 z "},"ẩ":{"ha":729,"x_min":49,"x_max":736,"o":"m 603 -14 q 522 7 556 -14 q 479 69 489 28 l 479 417 q 448 549 479 501 q 338 597 417 597 q 258 588 294 597 q 189 556 221 579 q 220 525 211 543 q 229 486 229 507 q 208 436 229 456 q 160 417 188 417 q 110 438 131 417 q 90 494 90 458 q 113 560 90 531 q 172 610 135 589 q 256 642 210 631 q 350 653 303 653 q 471 634 417 653 q 558 569 525 615 q 590 438 590 522 l 590 107 q 599 68 590 88 q 635 49 608 49 q 669 63 654 49 q 699 94 685 76 l 736 63 q 700 22 719 39 q 657 -5 681 4 q 603 -14 633 -14 m 278 -14 q 108 40 168 -14 q 49 169 49 94 q 108 299 49 246 q 278 353 168 353 q 397 329 347 353 q 479 269 447 306 l 479 207 q 389 272 435 254 q 303 290 343 290 q 199 258 238 290 q 160 169 160 225 q 199 82 160 115 q 303 49 238 49 q 389 67 343 49 q 479 132 435 85 l 479 69 q 397 10 447 33 q 278 -14 347 -14 m 185 764 l 336 1000 l 379 1000 l 531 764 l 489 764 l 314 933 l 403 933 l 226 764 l 185 764 m 460 939 q 472 982 460 964 q 497 1018 485 1000 q 508 1061 508 1036 q 497 1094 508 1083 q 465 1104 485 1104 q 428 1094 446 1104 q 396 1069 411 1085 l 374 1092 q 423 1163 393 1139 q 500 1188 453 1188 q 548 1177 524 1188 q 590 1146 572 1167 q 607 1092 607 1125 q 594 1044 607 1063 q 564 1009 582 1025 q 528 977 546 993 q 501 939 511 961 l 460 939 z "},"ẫ":{"ha":729,"x_min":49,"x_max":736,"o":"m 603 -14 q 522 7 556 -14 q 479 69 489 28 l 479 417 q 448 549 479 501 q 338 597 417 597 q 258 588 294 597 q 189 556 221 579 q 220 525 211 543 q 229 486 229 507 q 208 436 229 456 q 160 417 188 417 q 110 438 131 417 q 90 494 90 458 q 113 560 90 531 q 172 610 135 589 q 256 642 210 631 q 350 653 303 653 q 471 634 417 653 q 558 569 525 615 q 590 438 590 522 l 590 107 q 599 68 590 88 q 635 49 608 49 q 669 63 654 49 q 699 94 685 76 l 736 63 q 700 22 719 39 q 657 -5 681 4 q 603 -14 633 -14 m 278 -14 q 108 40 168 -14 q 49 169 49 94 q 108 299 49 246 q 278 353 168 353 q 397 329 347 353 q 479 269 447 306 l 479 207 q 389 272 435 254 q 303 290 343 290 q 199 258 238 290 q 160 169 160 225 q 199 82 160 115 q 303 49 238 49 q 389 67 343 49 q 479 132 435 85 l 479 69 q 397 10 447 33 q 278 -14 347 -14 m 182 764 l 333 1000 l 376 1000 l 528 764 l 486 764 l 311 933 l 400 933 l 224 764 l 182 764 m 446 1033 q 390 1046 413 1033 q 349 1076 367 1058 q 313 1106 331 1093 q 269 1118 294 1118 q 228 1102 247 1118 q 193 1040 208 1086 l 154 1061 q 209 1169 169 1138 q 292 1201 249 1201 q 347 1189 324 1201 q 388 1159 369 1176 q 426 1129 407 1142 q 469 1117 444 1117 q 511 1133 492 1117 q 546 1194 531 1149 l 585 1174 q 528 1063 569 1093 q 446 1033 488 1033 z "},"ȁ":{"ha":729,"x_min":49,"x_max":736,"o":"m 603 -14 q 522 7 556 -14 q 479 69 489 28 l 479 417 q 448 549 479 501 q 338 597 417 597 q 258 588 294 597 q 189 556 221 579 q 220 525 211 543 q 229 486 229 507 q 208 436 229 456 q 160 417 188 417 q 110 438 131 417 q 90 494 90 458 q 113 560 90 531 q 172 610 135 589 q 256 642 210 631 q 350 653 303 653 q 471 634 417 653 q 558 569 525 615 q 590 438 590 522 l 590 107 q 599 68 590 88 q 635 49 608 49 q 669 63 654 49 q 699 94 685 76 l 736 63 q 700 22 719 39 q 657 -5 681 4 q 603 -14 633 -14 m 278 -14 q 108 40 168 -14 q 49 169 49 94 q 108 299 49 246 q 278 353 168 353 q 397 329 347 353 q 479 269 447 306 l 479 207 q 389 272 435 254 q 303 290 343 290 q 199 258 238 290 q 160 169 160 225 q 199 82 160 115 q 303 49 238 49 q 389 67 343 49 q 479 132 435 85 l 479 69 q 397 10 447 33 q 278 -14 347 -14 m 472 764 l 335 1000 l 460 1000 l 514 764 l 472 764 m 278 764 l 140 1000 l 265 1000 l 319 764 l 278 764 z "},"ä":{"ha":729,"x_min":49,"x_max":736,"o":"m 603 -14 q 522 7 556 -14 q 479 69 489 28 l 479 417 q 448 549 479 501 q 338 597 417 597 q 258 588 294 597 q 189 556 221 579 q 220 525 211 543 q 229 486 229 507 q 208 436 229 456 q 160 417 188 417 q 110 438 131 417 q 90 494 90 458 q 113 560 90 531 q 172 610 135 589 q 256 642 210 631 q 350 653 303 653 q 471 634 417 653 q 558 569 525 615 q 590 438 590 522 l 590 107 q 599 68 590 88 q 635 49 608 49 q 669 63 654 49 q 699 94 685 76 l 736 63 q 700 22 719 39 q 657 -5 681 4 q 603 -14 633 -14 m 278 -14 q 108 40 168 -14 q 49 169 49 94 q 108 299 49 246 q 278 353 168 353 q 397 329 347 353 q 479 269 447 306 l 479 207 q 389 272 435 254 q 303 290 343 290 q 199 258 238 290 q 160 169 160 225 q 199 82 160 115 q 303 49 238 49 q 389 67 343 49 q 479 132 435 85 l 479 69 q 397 10 447 33 q 278 -14 347 -14 m 508 792 q 455 815 478 792 q 432 868 432 838 q 455 922 432 900 q 508 944 478 944 q 563 922 540 944 q 585 868 585 900 q 563 815 585 838 q 508 792 540 792 m 231 792 q 177 815 200 792 q 154 868 154 838 q 177 922 154 900 q 231 944 200 944 q 285 922 263 944 q 307 868 307 900 q 285 815 307 838 q 231 792 263 792 z "},"ạ":{"ha":729,"x_min":49,"x_max":736,"o":"m 603 -14 q 522 7 556 -14 q 479 69 489 28 l 479 417 q 448 549 479 501 q 338 597 417 597 q 258 588 294 597 q 189 556 221 579 q 220 525 211 543 q 229 486 229 507 q 208 436 229 456 q 160 417 188 417 q 110 438 131 417 q 90 494 90 458 q 113 560 90 531 q 172 610 135 589 q 256 642 210 631 q 350 653 303 653 q 471 634 417 653 q 558 569 525 615 q 590 438 590 522 l 590 107 q 599 68 590 88 q 635 49 608 49 q 669 63 654 49 q 699 94 685 76 l 736 63 q 700 22 719 39 q 657 -5 681 4 q 603 -14 633 -14 m 278 -14 q 108 40 168 -14 q 49 169 49 94 q 108 299 49 246 q 278 353 168 353 q 397 329 347 353 q 479 269 447 306 l 479 207 q 389 272 435 254 q 303 290 343 290 q 199 258 238 290 q 160 169 160 225 q 199 82 160 115 q 303 49 238 49 q 389 67 343 49 q 479 132 435 85 l 479 69 q 397 10 447 33 q 278 -14 347 -14 m 369 -278 q 316 -255 339 -278 q 293 -201 293 -232 q 316 -147 293 -169 q 369 -125 339 -125 q 424 -147 401 -125 q 446 -201 446 -169 q 424 -255 446 -232 q 369 -278 401 -278 z "},"à":{"ha":729,"x_min":49,"x_max":736,"o":"m 603 -14 q 522 7 556 -14 q 479 69 489 28 l 479 417 q 448 549 479 501 q 338 597 417 597 q 258 588 294 597 q 189 556 221 579 q 220 525 211 543 q 229 486 229 507 q 208 436 229 456 q 160 417 188 417 q 110 438 131 417 q 90 494 90 458 q 113 560 90 531 q 172 610 135 589 q 256 642 210 631 q 350 653 303 653 q 471 634 417 653 q 558 569 525 615 q 590 438 590 522 l 590 107 q 599 68 590 88 q 635 49 608 49 q 669 63 654 49 q 699 94 685 76 l 736 63 q 700 22 719 39 q 657 -5 681 4 q 603 -14 633 -14 m 278 -14 q 108 40 168 -14 q 49 169 49 94 q 108 299 49 246 q 278 353 168 353 q 397 329 347 353 q 479 269 447 306 l 479 207 q 389 272 435 254 q 303 290 343 290 q 199 258 238 290 q 160 169 160 225 q 199 82 160 115 q 303 49 238 49 q 389 67 343 49 q 479 132 435 85 l 479 69 q 397 10 447 33 q 278 -14 347 -14 m 356 764 l 218 1000 l 343 1000 l 397 764 l 356 764 z "},"ả":{"ha":729,"x_min":49,"x_max":736,"o":"m 603 -14 q 522 7 556 -14 q 479 69 489 28 l 479 417 q 448 549 479 501 q 338 597 417 597 q 258 588 294 597 q 189 556 221 579 q 220 525 211 543 q 229 486 229 507 q 208 436 229 456 q 160 417 188 417 q 110 438 131 417 q 90 494 90 458 q 113 560 90 531 q 172 610 135 589 q 256 642 210 631 q 350 653 303 653 q 471 634 417 653 q 558 569 525 615 q 590 438 590 522 l 590 107 q 599 68 590 88 q 635 49 608 49 q 669 63 654 49 q 699 94 685 76 l 736 63 q 700 22 719 39 q 657 -5 681 4 q 603 -14 633 -14 m 278 -14 q 108 40 168 -14 q 49 169 49 94 q 108 299 49 246 q 278 353 168 353 q 397 329 347 353 q 479 269 447 306 l 479 207 q 389 272 435 254 q 303 290 343 290 q 199 258 238 290 q 160 169 160 225 q 199 82 160 115 q 303 49 238 49 q 389 67 343 49 q 479 132 435 85 l 479 69 q 397 10 447 33 q 278 -14 347 -14 m 393 765 l 351 765 q 364 808 351 790 q 388 844 376 826 q 400 888 400 863 q 388 920 400 910 q 357 931 376 931 q 320 921 338 931 q 288 896 303 911 l 265 918 q 315 990 285 965 q 392 1014 344 1014 q 440 1003 415 1014 q 481 972 464 993 q 499 918 499 951 q 486 870 499 889 q 456 835 474 851 q 420 803 438 819 q 393 765 403 788 z "},"ȃ":{"ha":729,"x_min":49,"x_max":736,"o":"m 603 -14 q 522 7 556 -14 q 479 69 489 28 l 479 417 q 448 549 479 501 q 338 597 417 597 q 258 588 294 597 q 189 556 221 579 q 220 525 211 543 q 229 486 229 507 q 208 436 229 456 q 160 417 188 417 q 110 438 131 417 q 90 494 90 458 q 113 560 90 531 q 172 610 135 589 q 256 642 210 631 q 350 653 303 653 q 471 634 417 653 q 558 569 525 615 q 590 438 590 522 l 590 107 q 599 68 590 88 q 635 49 608 49 q 669 63 654 49 q 699 94 685 76 l 736 63 q 700 22 719 39 q 657 -5 681 4 q 603 -14 633 -14 m 278 -14 q 108 40 168 -14 q 49 169 49 94 q 108 299 49 246 q 278 353 168 353 q 397 329 347 353 q 479 269 447 306 l 479 207 q 389 272 435 254 q 303 290 343 290 q 199 258 238 290 q 160 169 160 225 q 199 82 160 115 q 303 49 238 49 q 389 67 343 49 q 479 132 435 85 l 479 69 q 397 10 447 33 q 278 -14 347 -14 m 515 778 q 491 840 513 814 q 438 881 469 867 q 369 896 406 896 q 301 881 333 896 q 249 840 269 867 q 224 778 228 814 l 182 778 q 233 927 182 868 q 369 986 285 986 q 506 927 454 986 q 557 778 557 868 l 515 778 z "},"ɑ":{"ha":843,"x_min":69,"x_max":799,"o":"m 688 56 l 694 49 l 799 49 l 799 0 q 727 -1 763 0 q 656 -3 692 -1 q 583 -7 619 -4 l 576 0 l 576 118 q 494 28 550 69 q 356 -14 438 -14 q 208 27 272 -14 q 106 142 143 68 q 69 317 69 217 q 106 492 69 417 q 208 610 143 568 q 356 653 272 653 q 497 614 443 653 q 576 521 550 575 l 576 513 l 639 639 l 688 639 l 688 56 m 576 215 l 576 424 q 485 551 538 513 q 375 590 432 590 q 245 530 296 590 q 194 333 194 469 q 245 123 194 197 q 375 49 296 49 q 485 88 432 49 q 576 215 538 126 z "},"ɒ":{"ha":843,"x_min":44,"x_max":774,"o":"m 156 0 l 156 583 l 149 590 l 44 590 l 44 639 q 116 640 81 639 q 188 642 151 640 q 260 646 224 643 l 267 639 l 267 521 q 349 611 293 569 q 488 653 406 653 q 635 612 571 653 q 737 497 700 571 q 774 322 774 422 q 737 147 774 222 q 635 28 700 71 q 488 -14 571 -14 q 347 25 400 -14 q 267 118 293 64 l 267 126 l 204 0 l 156 0 m 267 424 l 267 215 q 358 88 306 126 q 468 49 411 49 q 598 109 547 49 q 649 306 649 169 q 598 516 649 442 q 468 590 547 590 q 358 551 411 590 q 267 424 306 513 z "},"ā":{"ha":729,"x_min":49,"x_max":736,"o":"m 603 -14 q 522 7 556 -14 q 479 69 489 28 l 479 417 q 448 549 479 501 q 338 597 417 597 q 258 588 294 597 q 189 556 221 579 q 220 525 211 543 q 229 486 229 507 q 208 436 229 456 q 160 417 188 417 q 110 438 131 417 q 90 494 90 458 q 113 560 90 531 q 172 610 135 589 q 256 642 210 631 q 350 653 303 653 q 471 634 417 653 q 558 569 525 615 q 590 438 590 522 l 590 107 q 599 68 590 88 q 635 49 608 49 q 669 63 654 49 q 699 94 685 76 l 736 63 q 700 22 719 39 q 657 -5 681 4 q 603 -14 633 -14 m 278 -14 q 108 40 168 -14 q 49 169 49 94 q 108 299 49 246 q 278 353 168 353 q 397 329 347 353 q 479 269 447 306 l 479 207 q 389 272 435 254 q 303 290 343 290 q 199 258 238 290 q 160 169 160 225 q 199 82 160 115 q 303 49 238 49 q 389 67 343 49 q 479 132 435 85 l 479 69 q 397 10 447 33 q 278 -14 347 -14 m 168 833 l 168 903 l 571 903 l 571 833 l 168 833 z "},"ą":{"ha":729,"x_min":49,"x_max":736,"o":"m 674 46 l 694 28 q 577 -90 618 -35 q 536 -197 536 -144 q 554 -254 536 -231 q 607 -278 572 -278 q 653 -267 631 -278 q 699 -232 676 -256 l 736 -264 q 664 -327 701 -307 q 581 -347 626 -347 q 468 -308 511 -347 q 425 -206 425 -269 q 458 -114 425 -154 q 547 -35 490 -74 q 674 46 603 3 m 603 -14 q 522 7 556 -14 q 479 69 489 28 l 479 417 q 448 549 479 501 q 338 597 417 597 q 258 588 294 597 q 189 556 221 579 q 220 525 211 543 q 229 486 229 507 q 208 436 229 456 q 160 417 188 417 q 110 438 131 417 q 90 494 90 458 q 113 560 90 531 q 172 610 135 589 q 256 642 210 631 q 350 653 303 653 q 471 634 417 653 q 558 569 525 615 q 590 438 590 522 l 590 107 q 599 68 590 88 q 635 49 608 49 q 669 63 654 49 q 699 94 685 76 l 736 63 q 700 22 719 39 q 657 -5 681 4 q 603 -14 633 -14 m 278 -14 q 108 40 168 -14 q 49 169 49 94 q 108 299 49 246 q 278 353 168 353 q 397 329 347 353 q 479 269 447 306 l 479 207 q 389 272 435 254 q 303 290 343 290 q 199 258 238 290 q 160 169 160 225 q 199 82 160 115 q 303 49 238 49 q 389 67 343 49 q 479 132 435 85 l 479 69 q 397 10 447 33 q 278 -14 347 -14 z "},"å":{"ha":729,"x_min":49,"x_max":736,"o":"m 603 -14 q 522 7 556 -14 q 479 69 489 28 l 479 417 q 448 549 479 501 q 338 597 417 597 q 258 588 294 597 q 189 556 221 579 q 220 525 211 543 q 229 486 229 507 q 208 436 229 456 q 160 417 188 417 q 110 438 131 417 q 90 494 90 458 q 113 560 90 531 q 172 610 135 589 q 256 642 210 631 q 350 653 303 653 q 471 634 417 653 q 558 569 525 615 q 590 438 590 522 l 590 107 q 599 68 590 88 q 635 49 608 49 q 669 63 654 49 q 699 94 685 76 l 736 63 q 700 22 719 39 q 657 -5 681 4 q 603 -14 633 -14 m 278 -14 q 108 40 168 -14 q 49 169 49 94 q 108 299 49 246 q 278 353 168 353 q 397 329 347 353 q 479 269 447 306 l 479 207 q 389 272 435 254 q 303 290 343 290 q 199 258 238 290 q 160 169 160 225 q 199 82 160 115 q 303 49 238 49 q 389 67 343 49 q 479 132 435 85 l 479 69 q 397 10 447 33 q 278 -14 347 -14 m 369 749 q 272 783 314 749 q 231 874 231 818 q 272 964 231 929 q 369 999 314 999 q 467 964 426 999 q 508 874 508 929 q 467 783 508 818 q 369 749 426 749 m 372 783 q 416 807 400 783 q 432 874 432 831 q 413 941 432 918 q 367 964 394 964 q 324 941 340 964 q 307 874 307 918 q 326 807 307 831 q 372 783 346 783 z "},"ǻ":{"ha":729,"x_min":49,"x_max":736,"o":"m 603 -14 q 522 7 556 -14 q 479 69 489 28 l 479 417 q 448 549 479 501 q 338 597 417 597 q 258 588 294 597 q 189 556 221 579 q 220 525 211 543 q 229 486 229 507 q 208 436 229 456 q 160 417 188 417 q 110 438 131 417 q 90 494 90 458 q 113 560 90 531 q 172 610 135 589 q 256 642 210 631 q 350 653 303 653 q 471 634 417 653 q 558 569 525 615 q 590 438 590 522 l 590 107 q 599 68 590 88 q 635 49 608 49 q 669 63 654 49 q 699 94 685 76 l 736 63 q 700 22 719 39 q 657 -5 681 4 q 603 -14 633 -14 m 278 -14 q 108 40 168 -14 q 49 169 49 94 q 108 299 49 246 q 278 353 168 353 q 397 329 347 353 q 479 269 447 306 l 479 207 q 389 272 435 254 q 303 290 343 290 q 199 258 238 290 q 160 169 160 225 q 199 82 160 115 q 303 49 238 49 q 389 67 343 49 q 479 132 435 85 l 479 69 q 397 10 447 33 q 278 -14 347 -14 m 369 749 q 272 783 314 749 q 231 874 231 818 q 272 964 231 929 q 369 999 314 999 q 467 964 426 999 q 508 874 508 929 q 467 783 508 818 q 369 749 426 749 m 372 783 q 416 807 400 783 q 432 874 432 831 q 413 941 432 918 q 367 964 394 964 q 324 941 340 964 q 307 874 307 918 q 326 807 307 831 q 372 783 346 783 m 569 1167 l 376 972 l 335 972 l 417 1167 l 569 1167 z "},"ã":{"ha":729,"x_min":49,"x_max":736,"o":"m 603 -14 q 522 7 556 -14 q 479 69 489 28 l 479 417 q 448 549 479 501 q 338 597 417 597 q 258 588 294 597 q 189 556 221 579 q 220 525 211 543 q 229 486 229 507 q 208 436 229 456 q 160 417 188 417 q 110 438 131 417 q 90 494 90 458 q 113 560 90 531 q 172 610 135 589 q 256 642 210 631 q 350 653 303 653 q 471 634 417 653 q 558 569 525 615 q 590 438 590 522 l 590 107 q 599 68 590 88 q 635 49 608 49 q 669 63 654 49 q 699 94 685 76 l 736 63 q 700 22 719 39 q 657 -5 681 4 q 603 -14 633 -14 m 278 -14 q 108 40 168 -14 q 49 169 49 94 q 108 299 49 246 q 278 353 168 353 q 397 329 347 353 q 479 269 447 306 l 479 207 q 389 272 435 254 q 303 290 343 290 q 199 258 238 290 q 160 169 160 225 q 199 82 160 115 q 303 49 238 49 q 389 67 343 49 q 479 132 435 85 l 479 69 q 397 10 447 33 q 278 -14 347 -14 m 446 783 q 390 796 413 783 q 349 826 367 808 q 313 856 331 843 q 269 868 294 868 q 228 852 247 868 q 193 790 208 836 l 154 811 q 209 919 169 888 q 292 951 249 951 q 347 939 324 951 q 388 909 369 926 q 426 879 407 892 q 469 867 444 867 q 511 883 492 867 q 546 944 531 899 l 585 924 q 528 813 569 843 q 446 783 488 783 z "},"ɐ":{"ha":729,"x_min":-7,"x_max":681,"o":"m 126 653 q 208 632 175 653 q 250 569 240 611 l 250 222 q 281 90 250 138 q 392 42 313 42 q 472 51 435 42 q 540 83 510 61 q 509 114 518 96 q 500 153 500 132 q 522 203 500 183 q 569 222 543 222 q 619 201 599 222 q 639 144 639 181 q 617 79 639 108 q 557 29 594 50 q 473 -3 519 8 q 379 -14 426 -14 q 259 5 314 -14 q 172 71 204 24 q 139 201 139 118 l 139 532 q 130 571 139 551 q 94 590 121 590 q 61 576 76 590 q 31 544 46 563 l -7 576 q 29 617 10 600 q 73 644 49 635 q 126 653 97 653 m 451 653 q 622 599 563 653 q 681 469 681 544 q 622 340 681 393 q 451 286 563 286 q 333 310 383 286 q 250 369 282 333 l 250 432 q 340 367 294 385 q 426 349 386 349 q 531 381 492 349 q 569 469 569 414 q 531 557 569 524 q 426 590 492 590 q 340 572 386 590 q 250 507 294 554 l 250 569 q 333 629 282 606 q 451 653 383 653 z "},"æ":{"ha":1100,"x_min":49,"x_max":1044,"o":"m 788 42 q 912 75 861 42 q 1000 149 963 108 l 1038 117 q 972 52 1008 82 q 885 4 935 22 q 767 -14 836 -14 q 626 17 692 -14 q 517 106 561 49 q 408 20 469 54 q 278 -14 346 -14 q 108 40 168 -14 q 49 169 49 94 q 108 299 49 246 q 278 353 168 353 q 378 338 332 353 q 454 299 424 324 q 459 403 454 350 q 459 499 464 456 q 427 570 454 543 q 338 597 400 597 q 258 588 294 597 q 189 556 221 579 q 220 525 211 543 q 229 486 229 507 q 208 436 229 456 q 160 417 188 417 q 110 438 131 417 q 90 494 90 458 q 113 560 90 531 q 172 610 135 589 q 256 642 210 631 q 350 653 303 653 q 470 635 418 653 q 549 569 522 618 q 767 653 639 653 q 911 619 849 653 q 1009 518 974 586 q 1044 347 1044 450 l 558 347 l 558 396 l 911 396 q 872 550 906 496 q 760 604 838 604 q 649 568 692 604 q 588 467 607 532 q 568 319 568 403 q 599 175 568 238 q 680 77 629 113 q 788 42 731 42 m 303 49 q 394 71 343 49 q 490 144 446 93 q 458 228 468 185 q 379 276 419 263 q 303 290 339 290 q 199 258 238 290 q 160 169 160 225 q 199 82 160 115 q 303 49 238 49 z "},"ǽ":{"ha":1100,"x_min":49,"x_max":1044,"o":"m 788 42 q 912 75 861 42 q 1000 149 963 108 l 1038 117 q 972 52 1008 82 q 885 4 935 22 q 767 -14 836 -14 q 626 17 692 -14 q 517 106 561 49 q 408 20 469 54 q 278 -14 346 -14 q 108 40 168 -14 q 49 169 49 94 q 108 299 49 246 q 278 353 168 353 q 378 338 332 353 q 454 299 424 324 q 459 403 454 350 q 459 499 464 456 q 427 570 454 543 q 338 597 400 597 q 258 588 294 597 q 189 556 221 579 q 220 525 211 543 q 229 486 229 507 q 208 436 229 456 q 160 417 188 417 q 110 438 131 417 q 90 494 90 458 q 113 560 90 531 q 172 610 135 589 q 256 642 210 631 q 350 653 303 653 q 470 635 418 653 q 549 569 522 618 q 767 653 639 653 q 911 619 849 653 q 1009 518 974 586 q 1044 347 1044 450 l 558 347 l 558 396 l 911 396 q 872 550 906 496 q 760 604 838 604 q 649 568 692 604 q 588 467 607 532 q 568 319 568 403 q 599 175 568 238 q 680 77 629 113 q 788 42 731 42 m 303 49 q 394 71 343 49 q 490 144 446 93 q 458 228 468 185 q 379 276 419 263 q 303 290 339 290 q 199 258 238 290 q 160 169 160 225 q 199 82 160 115 q 303 49 238 49 m 503 764 l 557 1000 l 682 1000 l 544 764 l 503 764 z "},"b":{"ha":824,"x_min":25,"x_max":754,"o":"m 468 653 q 616 612 551 653 q 717 497 681 571 q 754 322 754 422 q 717 147 754 222 q 616 28 681 71 q 468 -14 551 -14 q 327 25 381 -14 q 247 118 274 64 l 185 0 l 136 0 l 136 958 l 129 965 l 25 965 l 25 1014 q 97 1015 61 1014 q 169 1017 133 1015 q 240 1021 204 1018 l 247 1014 l 247 521 q 330 611 274 569 q 468 653 386 653 m 449 49 q 578 109 528 49 q 629 306 629 169 q 578 516 629 442 q 449 590 528 590 q 339 551 392 590 q 247 424 286 513 l 247 215 q 339 88 286 126 q 449 49 392 49 z "},"ɓ":{"ha":824,"x_min":136,"x_max":754,"o":"m 136 0 l 136 868 q 149 943 136 913 q 183 992 161 974 q 231 1019 204 1011 q 288 1028 258 1028 q 384 999 349 1028 q 442 939 419 971 l 404 907 q 365 949 385 933 q 317 965 344 965 q 267 944 286 965 q 247 876 247 922 l 247 521 q 330 611 274 569 q 468 653 386 653 q 616 612 551 653 q 717 497 681 571 q 754 322 754 422 q 717 147 754 222 q 616 28 681 71 q 468 -14 551 -14 q 327 25 381 -14 q 247 118 274 64 l 185 0 l 136 0 m 247 215 q 339 88 286 126 q 449 49 392 49 q 578 109 528 49 q 629 306 629 169 q 578 516 629 442 q 449 590 528 590 q 339 551 392 590 q 247 424 286 513 l 247 215 z "},"ʭ":{"ha":729,"x_min":69,"x_max":660,"o":"m 660 931 l 660 667 l 611 667 q 605 716 610 688 q 585 771 600 744 q 541 815 571 797 q 458 833 511 833 l 271 833 q 189 815 219 833 q 144 771 158 797 q 124 716 129 744 q 118 667 119 688 l 69 667 l 69 931 l 660 931 m 660 264 l 660 0 l 611 0 q 605 49 610 21 q 585 104 600 78 q 541 149 571 131 q 458 167 511 167 l 271 167 q 189 149 219 167 q 144 104 158 131 q 124 49 129 78 q 118 0 119 21 l 69 0 l 69 264 l 660 264 z "},"ʘ":{"ha":1028,"x_min":69,"x_max":958,"o":"m 514 944 q 742 883 642 944 q 901 714 843 822 q 958 465 958 606 q 924 275 958 363 q 827 123 889 188 q 685 22 765 58 q 514 -14 604 -14 q 285 47 386 -14 q 127 217 185 108 q 69 465 69 325 q 104 656 69 568 q 201 808 139 743 q 343 908 263 872 q 514 944 424 944 m 528 42 q 690 95 624 42 q 792 244 757 149 q 826 465 826 339 q 790 682 826 586 q 680 833 753 778 q 500 889 607 889 q 338 835 406 889 q 236 687 271 782 q 201 465 201 592 q 238 249 201 344 q 348 97 275 153 q 528 42 421 42 m 514 403 q 460 426 483 403 q 438 479 438 449 q 460 533 438 511 q 514 556 483 556 q 568 533 546 556 q 590 479 590 511 q 568 426 590 449 q 514 403 546 403 z "},"ʬ":{"ha":840,"x_min":56,"x_max":785,"o":"m 617 428 l 785 428 l 785 396 l 729 396 l 596 0 l 536 0 l 431 283 l 426 283 l 317 0 l 258 0 l 114 396 l 56 396 l 56 428 l 279 428 l 279 396 l 224 396 l 218 390 l 314 115 l 319 115 l 408 342 l 389 396 l 347 396 l 347 428 l 549 428 l 549 396 l 496 396 l 490 390 l 589 115 l 594 115 l 688 390 l 681 396 l 617 396 l 617 428 m 617 931 l 785 931 l 785 899 l 729 899 l 596 503 l 536 503 l 431 786 l 426 786 l 317 503 l 258 503 l 114 899 l 56 899 l 56 931 l 279 931 l 279 899 l 224 899 l 218 893 l 314 618 l 319 618 l 408 844 l 389 899 l 347 899 l 347 931 l 549 931 l 549 899 l 496 899 l 490 893 l 589 618 l 594 618 l 688 893 l 681 899 l 617 899 l 617 931 z "},"ᵬ":{"ha":824,"x_min":-29,"x_max":754,"o":"m 468 653 q 616 612 551 653 q 717 497 681 571 q 754 322 754 422 q 717 147 754 222 q 616 28 681 71 q 468 -14 551 -14 q 327 25 381 -14 q 247 118 274 64 l 185 0 l 136 0 l 136 958 l 129 965 l 25 965 l 25 1014 q 97 1015 61 1014 q 169 1017 133 1015 q 240 1021 204 1018 l 247 1014 l 247 521 q 330 611 274 569 q 468 653 386 653 m 449 49 q 578 109 528 49 q 629 306 629 169 q 578 516 629 442 q 449 590 528 590 q 339 551 392 590 q 247 424 286 513 l 247 215 q 339 88 286 126 q 449 49 392 49 m 263 714 q 206 726 229 714 q 165 756 183 739 q 129 786 147 774 q 86 799 111 799 q 44 783 64 799 q 10 721 25 767 l -29 742 q 26 850 -14 818 q 108 882 65 882 q 163 869 140 882 q 205 840 186 857 q 242 810 224 822 q 286 797 261 797 q 328 813 308 797 q 363 875 347 829 l 401 854 q 345 744 386 774 q 263 714 304 714 z "},"c":{"ha":694,"x_min":69,"x_max":653,"o":"m 388 -14 q 228 26 300 -14 q 113 140 156 67 q 69 314 69 214 q 115 497 69 421 q 237 613 161 572 q 401 653 313 653 q 522 631 467 653 q 612 569 578 608 q 646 479 646 531 q 626 424 646 444 q 576 403 606 403 q 528 422 550 403 q 507 472 507 442 q 519 513 507 494 q 564 540 532 532 q 494 588 535 572 q 400 604 453 604 q 279 567 325 604 q 212 468 233 531 q 190 329 190 406 q 219 174 190 239 q 298 76 249 110 q 407 42 347 42 q 515 74 463 42 q 615 169 568 107 l 653 138 q 579 56 618 90 q 493 4 540 22 q 388 -14 446 -14 z "}}}
